<?xml version="1.0" encoding="UTF-8"?>
<svg width="64px" height="64px" viewBox="0 0 64 64" version="1.1" xmlns="http://www.w3.org/2000/svg" xmlns:xlink="http://www.w3.org/1999/xlink">
    <!-- Generator: Sketch 46.2 (44496) - http://www.bohemiancoding.com/sketch -->
    <title>facebook</title>
    <desc>Created with Sketch.</desc>
    <defs></defs>
    <g id="Icons" stroke="none" stroke-width="1" fill="none" fill-rule="evenodd">
        <g id="facebook" fill-rule="nonzero" fill="#3B5998">
            <path d="M7.21428571,3 L57.7857143,3 C60.1141071,3 62,4.88589286 62,7.21428571 L62,57.7857143 C62,60.1141071 60.1141071,62 57.7857143,62 L7.21428571,62 C4.88589286,62 3,60.1141071 3,57.7857143 L3,7.21428571 C3,4.88589286 4.88589286,3 7.21428571,3 Z M34.6598214,62 L34.6598214,62 L43.0546786,62 L43.0546786,41.8536071 L50.0609286,41.8536071 L51.1102857,34.0023929 L43.0567857,34.0023929 L43.0567857,28.9895 C43.0567857,26.7158929 43.71,25.1671429 47.08775,25.1671429 L51.39475,25.1650357 L51.39475,18.1419286 C50.6509286,18.045 48.0949643,17.8321786 45.1196786,17.8321786 C38.9120357,17.8321786 34.6598214,21.4922857 34.6598214,28.2119643 L34.6598214,34.0023929 L27.6367143,34.0023929 L27.6367143,41.8536071 L34.6598214,41.8536071 L34.6598214,62 Z" id="Combined-Shape"></path>
        </g>
    </g>
</svg>