<?xml version="1.0" encoding="UTF-8"?>
<svg width="64px" height="64px" viewBox="0 0 64 64" version="1.1" xmlns="http://www.w3.org/2000/svg" xmlns:xlink="http://www.w3.org/1999/xlink">
    <!-- Generator: Sketch 46.2 (44496) - http://www.bohemiancoding.com/sketch -->
    <title>twitter</title>
    <desc>Created with Sketch.</desc>
    <defs></defs>
    <g id="Icons" stroke="none" stroke-width="1" fill="none" fill-rule="evenodd">
        <g id="twitter" fill-rule="nonzero" fill="#55ACEE">
            <path d="M62,13.6820399 C59.8289886,14.6457545 57.496419,15.2971905 55.0479237,15.5900887 C57.5468915,14.0904131 59.4662315,11.7157346 60.3701282,8.88596217 C58.0309902,10.2747771 55.440757,11.2831359 52.6834342,11.8264798 C50.4755479,9.47141243 47.3295404,8 43.847971,8 C37.1631227,8 31.7435454,13.4252493 31.7435454,20.1172631 C31.7435454,21.0670192 31.8505979,21.9918575 32.0569823,22.8788579 C21.997041,22.3733519 13.0778026,17.5492418 7.10775174,10.2177894 C6.06580456,12.0074792 5.46877643,14.0890288 5.46877643,16.3098176 C5.46877643,20.513985 7.6056785,24.2230287 10.8536683,26.3960585 C8.86945143,26.3330722 7.0030039,25.7879978 5.3711731,24.880348 C5.37002076,24.9308755 5.37002076,24.9816338 5.37002076,25.0327381 C5.37002076,30.9038525 9.5425341,35.8013314 15.0797655,36.9147829 C14.0642069,37.1915307 12.9947188,37.3401139 11.8907756,37.3401139 C11.1107556,37.3401139 10.3525149,37.2639765 9.61328786,37.1223149 C11.153738,41.9362734 15.6239011,45.4402076 20.9207541,45.5376866 C16.7780864,48.7880603 11.558786,50.7250643 5.88753733,50.7250643 C4.91046697,50.7250643 3.94699424,50.6678459 3,50.5553702 C8.35677469,53.9938956 14.7194283,56 21.5551181,56 C43.8196234,56 55.994918,37.5353025 55.994918,21.5222284 C55.994918,20.9968805 55.9829336,20.4743012 55.9597716,19.9544906 C58.3250677,18.2461294 60.3772727,16.1119758 62,13.6820399 Z" id="Shape"></path>
        </g>
    </g>
</svg>