<?xml version="1.0" encoding="UTF-8"?>
<svg width="64px" height="64px" viewBox="0 0 64 64" version="1.1" xmlns="http://www.w3.org/2000/svg" xmlns:xlink="http://www.w3.org/1999/xlink">
    <!-- Generator: Sketch 46.2 (44496) - http://www.bohemiancoding.com/sketch -->
    <title>icon_person</title>
    <desc>Created with Sketch.</desc>
    <defs></defs>
    <g id="Icons" stroke="none" stroke-width="1" fill="none" fill-rule="evenodd">
        <g id="icon_person" fill-rule="nonzero" fill="#000000">
            <g id="np_people_707167_000000" transform="translate(7.000000, 8.000000)">
                <path d="M11.0961111,12.4872222 C11.0961111,14.7832222 9.23411111,16.6452222 6.93811111,16.6452222 C4.64211111,16.6452222 2.78227778,14.7832222 2.78227778,12.4872222 C2.78227778,10.1933889 4.64211111,8.33138889 6.93811111,8.33138889 C9.23411111,8.33138889 11.0961111,10.1933889 11.0961111,12.4872222" id="Shape"></path>
                <path d="M10.56,46.8166667 L10.56,32.9038889 C10.56,32.8539761 10.5491494,32.8062333 10.5448094,32.7584889 L11.2045317,32.7584889 C12.6780317,32.7584889 13.8738094,31.5627667 13.8738094,30.0892111 L13.8738094,20.4475444 C13.8738094,18.9740444 12.6802539,17.7761 11.2066983,17.7761 L2.66947611,17.7761 C1.19380944,17.7761 0.000198333333,18.9718222 0.000198333333,20.4475444 L0.000198333333,30.0892111 C0.000198333333,31.5648778 1.19375389,32.7606556 2.66947611,32.7606556 L3.331365,32.7606556 C3.32702444,32.8083989 3.31617389,32.8561444 3.31617389,32.9060556 L3.31617389,46.8210556 C3.31617389,47.9582222 4.236285,48.8783333 5.37345167,48.8783333 L8.50061833,48.8783333 C9.63995167,48.8739928 10.5600628,47.9516667 10.5600628,46.8167222 L10.56,46.8166667 Z" id="Shape"></path>
                <path d="M29.1577778,12.4872222 C29.1577778,14.7832222 27.2979444,16.6452222 25.0019444,16.6452222 C22.7059444,16.6452222 20.8461111,14.7832222 20.8461111,12.4872222 C20.8461111,10.1933889 22.7059444,8.33138889 25.0019444,8.33138889 C27.2979444,8.33138889 29.1577778,10.1933889 29.1577778,12.4872222" id="Shape"></path>
                <path d="M28.6222222,46.8166667 L28.6222222,32.9038889 C28.6222222,32.8539761 28.6092017,32.8062333 28.6092017,32.7584889 L29.2689239,32.7584889 C30.7424239,32.7584889 31.936035,31.5627667 31.936035,30.0892111 L31.938205,30.0892111 L31.9403756,20.4475444 C31.9403756,18.9740444 30.74682,17.7761 29.2710978,17.7761 L20.7316533,17.7761 C19.2559867,17.7761 18.0623756,18.9718222 18.0623756,20.4475444 L18.0623756,30.0892111 C18.0623756,31.5648778 19.2559311,32.7606556 20.7294867,32.7606556 L21.3913756,32.7606556 C21.3870356,32.8083989 21.3740144,32.8561444 21.3740144,32.9060556 L21.3740144,46.8210556 C21.3740144,47.9582222 22.2963478,48.8783333 23.4334589,48.8783333 L26.5606256,48.8783333 C27.7021256,48.8739928 28.6222367,47.9516667 28.6222367,46.8167222 L28.6222222,46.8166667 Z" id="Shape"></path>
                <path d="M47.22,12.4872222 C47.22,14.7832222 45.3601667,16.6452222 43.0641667,16.6452222 C40.7681667,16.6452222 38.9083333,14.7832222 38.9083333,12.4872222 C38.9083333,10.1933889 40.7681667,8.33138889 43.0641667,8.33138889 C45.3601667,8.33138889 47.22,10.1933889 47.22,12.4872222" id="Shape"></path>
                <path d="M47.3372222,17.7777778 L38.7977778,17.7777778 C37.3242778,17.7777778 36.1285,18.9713333 36.1285,20.4470556 L36.1285,30.0909444 C36.1285,31.5644444 37.3220556,32.7602222 38.7977778,32.7602222 L39.4596667,32.7602222 C39.4553261,32.8079656 39.4444756,32.8557111 39.4444756,32.9056222 L39.4444756,46.8206222 C39.4444756,47.9577889 40.3668089,48.8779 41.4995867,48.8779 L44.62892,48.8779 C45.7660867,48.8779 46.6883644,47.9577889 46.6883644,46.8206222 L46.6861944,32.9034 C46.6861944,32.8513167 46.6753439,32.8057444 46.6710033,32.758 L47.3307256,32.758 C48.8020589,32.758 50.0000033,31.5622778 50.0000033,30.0865556 L50.0000033,20.4465556 C50.0043433,18.9708889 48.8086144,17.7772778 47.3372256,17.7772778 L47.3372222,17.7777778 Z" id="Shape"></path>
                <path d="M20.13,4.17333333 C20.13,6.46933333 18.268,8.33133333 15.9698333,8.33133333 C13.6738333,8.33133333 11.8118333,6.46933333 11.8118333,4.17333333 C11.8118333,1.87516667 13.6738333,0.0131666667 15.9698333,0.0131666667 C18.268,0.0131666667 20.13,1.87516667 20.13,4.17333333" id="Shape"></path>
                <path d="M38.19,4.17333333 C38.19,6.46716667 36.3301667,8.32916667 34.0341667,8.32916667 C31.7381667,8.32916667 29.8783333,6.46716667 29.8783333,4.17333333 C29.8783333,1.87733333 31.7381667,0.0153333333 34.0341667,0.0153333333 C36.3301667,0.0153333333 38.19,1.87733333 38.19,4.17333333" id="Shape"></path>
            </g>
        </g>
    </g>
</svg>