<?xml version="1.0" encoding="UTF-8"?>
<svg width="64px" height="64px" viewBox="0 0 64 64" version="1.1" xmlns="http://www.w3.org/2000/svg" xmlns:xlink="http://www.w3.org/1999/xlink">
    <!-- Generator: Sketch 46.2 (44496) - http://www.bohemiancoding.com/sketch -->
    <title>icon_textile</title>
    <desc>Created with Sketch.</desc>
    <defs></defs>
    <g id="Icons" stroke="none" stroke-width="1" fill="none" fill-rule="evenodd">
        <g id="icon_textile" fill-rule="nonzero" fill="#000000">
            <path d="M60.4397972,11.4776165 L42.0053326,6.02391459 C41.7629304,5.9602446 41.4587414,6.02391459 41.2757656,6.21247957 C38.8422532,8.72015931 35.5579849,10.0988816 32.1500942,10.0988816 C28.6828258,10.0988816 25.4579352,8.72015931 23.0244228,6.21247957 C22.8414348,6.02391459 22.5372458,5.96268959 22.2948558,6.02391459 L3.55620214,11.4776165 C3.19022621,11.6025115 2.94782405,11.9796414 3.00961093,12.4179964 L5.86850126,25.3946122 C5.98970234,25.8329671 6.35567827,26.0852272 6.7810684,25.9578621 L15.0562272,24.0134072 L15.3604163,56.1750269 C15.3604163,56.6133818 15.7263922,56.9268293 16.1517945,56.9268293 L47.8495099,56.9268293 C48.2749,56.9268293 48.6408881,56.5496993 48.6408881,56.1750269 L48.9450772,24.0134072 L57.220236,25.9578621 C57.6456261,26.0827571 58.0709919,25.7692971 58.1328031,25.3946122 L60.9916935,12.4179964 C61.0487289,12.0408664 60.8063267,11.6024989 60.4403508,11.4776165 L60.4397972,11.4776165 Z" id="Shape"></path>
        </g>
    </g>
</svg>