<?xml version="1.0" encoding="UTF-8"?>
<svg width="64px" height="64px" viewBox="0 0 64 64" version="1.1" xmlns="http://www.w3.org/2000/svg" xmlns:xlink="http://www.w3.org/1999/xlink">
    <!-- Generator: Sketch 46.2 (44496) - http://www.bohemiancoding.com/sketch -->
    <title>icon_rubber</title>
    <desc>Created with Sketch.</desc>
    <defs></defs>
    <g id="Icons" stroke="none" stroke-width="1" fill="none" fill-rule="evenodd">
        <g id="icon_rubber" fill-rule="nonzero" fill="#000000">
            <g id="np_tire_732821_000000-copy-2" transform="translate(31.864119, 31.704312) rotate(-45.000000) translate(-31.864119, -31.704312) translate(11.364119, 5.204312)">
                <path d="M28.3950222,52.9416427 C21.8468157,50.9562551 16.8846538,39.9049259 16.8846538,26.7332028 C16.8846538,25.4768495 16.9546575,24.1532577 17.0219731,22.8942573 C17.2292962,19.7843462 17.7812893,16.870856 18.5378484,14.0917105 C19.2271333,11.6435952 20.0537238,9.45913939 21.0876511,7.54099025 C23.2255371,3.57021504 25.9826767,1.05486131 28.8772597,0.392933082 C26.4647625,0.129247136 21.3654329,-0.268862786 15.7105397,0.261090109 C15.0912585,0.328302097 12.2668172,0.659213267 12.1294979,0.659213267 L12.2668172,0.659213267 C10.9582788,0.858268228 9.64698319,1.52007733 8.47575031,2.44553267 C8.61306964,2.51274466 7.51182674,3.23914504 7.51182674,3.17193305 C3.1015063,7.40636773 0,16.4078504 0,26.7331895 C0,37.8520219 3.57883012,47.0565994 8.40858639,51.1521334 C10.2126751,52.6819636 11.0887417,52.6753493 11.0187379,52.9416427 L28.3950222,52.9416427 Z" id="Shape"></path>
                <path d="M30.5775508,1.40220902 C30.1114741,1.27040916 29.6454242,1.20321915 29.3771978,1.20321915 C26.1771455,1.20321915 23.1775963,3.71775031 20.8444803,8.21728443 C19.8446306,10.0702361 19.0452841,12.2539776 18.3787176,14.6340758 C17.644428,17.34761 17.1783647,20.2575011 16.9778615,23.3020897 C16.910165,24.5580321 16.8450681,25.8166208 16.8450681,27.0725632 C16.8450681,41.3640024 22.4431601,52.9416427 29.3771845,52.9416427 L30.043751,52.9416427 C36.1756294,50.9569044 40.9094512,40.1083246 40.9094512,27.00839 C40.9094512,14.3708995 36.5090459,3.78562836 30.5776707,1.40328078 L30.5775508,1.40220902 Z M23.1773297,27.0721531 C23.1773297,18.9340643 25.3775323,12.3182699 28.0437983,12.3182699 C30.7100642,12.3182699 32.9102668,18.9340643 32.9102668,27.0721531 C32.9102668,35.2102418 30.7100642,41.8260363 28.0437983,41.8260363 C25.3775323,41.8260363 23.1773297,35.2102418 23.1773297,27.0721531 Z M28.0437983,45.1339335 C27.7782115,45.1339335 27.5100252,44.9349436 27.5100252,44.6041539 C27.5100252,44.2733642 27.710515,44.0743743 28.0437983,44.0743743 C30.642341,44.0743743 33.0430469,39.8413244 34.1106197,33.4891032 C34.1783162,33.2255035 34.3762065,33.0265136 34.7094897,33.0911235 C34.9750765,33.1583135 35.1755663,33.4219132 35.1104694,33.6855129 C33.9752401,40.7015629 31.1761941,45.1341452 28.0435316,45.1341452 L28.0437983,45.1339335 Z" id="Shape"></path>
            </g>
        </g>
    </g>
</svg>