<?xml version="1.0" encoding="UTF-8"?>
<svg width="64px" height="64px" viewBox="0 0 64 64" version="1.1" xmlns="http://www.w3.org/2000/svg" xmlns:xlink="http://www.w3.org/1999/xlink">
    <!-- Generator: Sketch 46.2 (44496) - http://www.bohemiancoding.com/sketch -->
    <title>icon_plastic</title>
    <desc>Created with Sketch.</desc>
    <defs></defs>
    <g id="Icons" stroke="none" stroke-width="1" fill="none" fill-rule="evenodd">
        <g id="icon_plastic" fill-rule="nonzero" fill="#000000">
            <path d="M24.5044388,-3.71961105 L38.8983782,-3.71961105 L38.8983782,0.835944507 L24.5044388,0.835944507 L24.5044388,-3.71961105 Z M36.7357601,3.06757067 C36.7978813,4.5741297 37.0612904,7.12640194 38.1029571,8.09528229 C39.6210631,9.50716148 44.2641692,13.043363 44.2641692,17.9943174 L44.2641692,58.6832086 C44.2641692,58.6832086 44.1694722,65.3268299 40.0501541,65.3268299 L23.4781844,65.3268299 C19.3588662,65.3268299 19.2641692,58.6832086 19.2641692,58.6832086 L19.2641692,17.9943174 C19.2641692,13.0462367 23.9072753,9.51026202 25.4253813,8.09528229 C26.4670556,7.12345265 26.7304336,4.5741297 26.7925783,3.06757067 L36.7357601,3.06757067 Z" id="Mask-Copy-2" transform="translate(31.764169, 30.803609) rotate(-41.000000) translate(-31.764169, -30.803609) "></path>
        </g>
    </g>
</svg>