<?xml version="1.0" encoding="UTF-8"?>
<svg width="64px" height="64px" viewBox="0 0 64 64" version="1.1" xmlns="http://www.w3.org/2000/svg" xmlns:xlink="http://www.w3.org/1999/xlink">
    <!-- Generator: Sketch 46.2 (44496) - http://www.bohemiancoding.com/sketch -->
    <title>icon_other</title>
    <desc>Created with Sketch.</desc>
    <defs></defs>
    <g id="Icons" stroke="none" stroke-width="1" fill="none" fill-rule="evenodd">
        <g id="icon_other" fill-rule="nonzero" fill="#000000">
            <g id="np_crumpled-box_269324_000000" transform="translate(8.000000, 7.000000)">
                <path d="M18.9997465,12.9997883 L18.9997465,0 L10.3145488,0 L9.96603582,1.53655135 C9.5818807,1.37331854 9.11652585,1.17091141 8.65714769,0.972866891 L8.00168976,0.6877541 L1,13 L19,13" id="Shape"></path>
                <path d="M30.8343368,14 L30.8343368,32.3381245 L28.3343342,29.8835502 L25.0003308,33.1569705 L21.6663273,29.8835502 L19.1663247,32.3381245 L19.1663247,14 L1.34380638,14 L1.88285694,15.587815 C1.66996672,15.4804274 1.44731149,15.3634522 1.21685625,15.246477 L5.50000567e-05,14.6251752 L5.50000567e-05,26.9805203 C5.50000567e-05,27.701576 0.255915264,28.4053025 0.71880574,28.965289 C1.7500568,30.2098564 2.68365776,31.3335605 3.35160845,32.1351263 L3.58012369,32.4074318 L3.93754406,32.4323615 C4.71879486,32.4879723 5.51174568,32.5397491 6.25589644,32.5896064 L3.86329398,33.527352 L0.179690185,43.8635643 C0.0605500624,44.1972342 0,44.5462305 0,44.9010147 L0,46.8570158 C0,48.5886198 1.43555148,50 3.2011533,50 L20.9201715,50 C21.1701718,50 21.4201721,49.9712353 21.6643223,49.913707 C27.0628279,48.649994 32.033333,47.4610473 34.1368352,46.958645 L34.6055856,46.8474233 L34.7383958,46.3910247 C34.8184759,46.1187191 34.9024609,45.8387455 34.984491,45.5626059 L35.3985515,46.9816444 L41.6015578,49.7238457 C42.0175733,49.9060193 42.4589587,49.9999853 42.9160092,49.9999853 L46.7988132,49.9999853 C48.564415,49.9999853 49.9999665,48.5886051 49.9999665,46.8570011 L49.9999665,40.8565488 C49.9999665,40.4346664 49.9159814,40.0243008 49.7323862,39.600494 L45.4823818,30.8312819 C45.4706628,30.7814246 45.4608973,30.7315673 45.4472253,30.6836246 L45.3456652,30.325026 L42.9257627,29.1917 L45.3203152,28.8982998 L45.5156254,28.4860099 C45.5761704,28.355613 45.6406255,28.2482205 45.7148456,28.1619275 L49.2773493,23.8875318 C49.7421947,23.3275944 50,22.6199897 50,21.8970194 L50,14.5833698 L49.6289046,14.0004084 L30.8338853,14.0004084" id="Shape"></path>
                <polyline id="Shape" points="41.3951651 1.38638994 39.5118167 1.68238899 39.818781 0 30 0 30 13 48 13 41.3955047 1.38625064"></polyline>
            </g>
        </g>
    </g>
</svg>