<?xml version="1.0" encoding="UTF-8"?>
<svg width="64px" height="64px" viewBox="0 0 64 64" version="1.1" xmlns="http://www.w3.org/2000/svg" xmlns:xlink="http://www.w3.org/1999/xlink">
    <!-- Generator: Sketch 46.2 (44496) - http://www.bohemiancoding.com/sketch -->
    <title>icon_lumber</title>
    <desc>Created with Sketch.</desc>
    <defs></defs>
    <g id="Icons" stroke="none" stroke-width="1" fill="none" fill-rule="evenodd">
        <g id="icon_lumber" fill-rule="nonzero" fill="#000000">
            <path d="M53.1033652,49.3375388 L35.5972618,8.83753878 C34.9828809,7.41910204 33.5761682,6.5 32.0196256,6.5 C30.4630829,6.5 29.0563702,7.41910204 28.4419893,8.83753878 L10.9381089,49.3375388 C10.4214343,50.5278531 10.5451775,52.3100184 11.2659121,53.3927184 C11.984496,54.4753633 13.2066999,55.5408163 14.5135999,55.5408163 L27.0179595,55.5408163 L27.0179595,56.6428571 C27.0179595,58.7737633 28.759011,60.5 30.9082047,60.5 C33.0573985,60.5 34.7984499,58.7737633 34.7984499,56.6428571 L34.7984499,55.5408163 L49.5258068,55.5408163 C50.8348743,55.5408163 52.0527433,54.4732143 52.7734946,53.3948673 C53.4942459,52.3122224 53.6157883,50.530002 53.1034708,49.3375388 L53.1033652,49.3375388 Z" id="Shape-Copy"></path>
        </g>
    </g>
</svg>