<?xml version="1.0" encoding="utf-8"?>
<!-- Generator: Adobe Illustrator 15.0.2, SVG Export Plug-In . SVG Version: 6.00 Build 0)  -->
<!DOCTYPE svg PUBLIC "-//W3C//DTD SVG 1.1//EN" "http://www.w3.org/Graphics/SVG/1.1/DTD/svg11.dtd">
<svg version="1.1" id="Layer_1" xmlns="http://www.w3.org/2000/svg" xmlns:xlink="http://www.w3.org/1999/xlink" x="0px" y="0px"
	 width="162.234px" height="153.121px" viewBox="0 0 162.234 153.121" enable-background="new 0 0 162.234 153.121"
	 xml:space="preserve">
<path fill="#FFFFFF" d="M83.123,152.682c-37.57,4.063-72.432-20.597-81.103-57.416C-7.5,55.005,17.534,14.435,57.842,4.913
	c3.008-0.739,6.127-1.237,9.176-1.589c37.575-4.08,72.412,20.591,81.189,57.434c9.551,40.255-15.542,80.816-55.855,90.365
	c-2.996,0.758-6.145,1.238-9.206,1.561L83.123,152.682L83.123,152.682z"/>
<path fill="#FFFFFF" d="M125.737,52.826c-7.018,1.142-13.771-3.166-15.703-10.017c-0.411-1.463-0.58-2.988-0.499-4.538
	c0.035-0.653,0.355-1.255,0.886-1.64c0.282-0.212,0.609-0.344,0.949-0.396c0.283-0.046,0.584-0.041,0.885,0.035l1.289,0.32
	l0.567-2.448c0.196-0.842,0.881-1.502,1.755-1.655l3.192-0.57l0.342-1.084c0.237-0.748,0.872-1.309,1.646-1.46
	c0.031-0.001,0.062-0.009,0.096-0.022c0.735-0.119,1.494,0.148,1.994,0.719l1.28,1.471l1.34-1.372
	c0.335-0.325,0.763-0.552,1.221-0.628c0.159-0.027,0.335-0.046,0.513-0.027c0.637,0.055,1.224,0.382,1.607,0.909l1.03,1.439
	l2.003-1.279c0.263-0.17,0.546-0.277,0.827-0.319c0.812-0.133,1.68,0.206,2.172,0.945c0.823,1.236,1.46,2.585,1.855,3.997
	c1.008,3.594,0.569,7.369-1.262,10.635c-1.822,3.268-4.812,5.621-8.412,6.646C126.788,52.62,126.259,52.742,125.737,52.826"/>
<path fill="#FFFFFF" d="M114.439,39.652c-0.279,0.043-0.58,0.038-0.871-0.039l-2.214-0.552c-1.104-0.264-1.819-1.362-1.629-2.498
	c0.954-5.336,4.774-9.564,9.976-11.036c5.168-1.456,10.857,0.263,14.375,4.311c0.405,0.471,0.6,1.11,0.512,1.738
	c-0.1,0.625-0.449,1.185-0.979,1.531l-2.49,1.593c-0.98,0.625-2.272,0.388-2.951-0.566l-0.932-1.299l-1.287,1.324
	c-0.431,0.435-1.011,0.678-1.622,0.654c-0.609-0.022-1.184-0.29-1.59-0.75l-0.945-1.087l-0.097,0.274
	c-0.244,0.761-0.895,1.327-1.691,1.466l-3.153,0.579l-0.618,2.693c-0.141,0.571-0.501,1.057-0.987,1.373
	C114.993,39.508,114.729,39.603,114.439,39.652"/>
<path fill="#FFFFFF" d="M119.648,77.816c-0.649,0.114-1.3,0.168-1.959,0.184c-7.233,0.147-13.479-5.375-14.211-12.57
	c-0.028-0.296,0.005-0.586,0.08-0.869c-0.104-0.267-0.162-0.555-0.152-0.86c0.148-6.75,5.077-12.432,11.727-13.508
	c0.646-0.105,1.304-0.168,1.972-0.177c3.729-0.083,7.282,1.289,9.98,3.88c2.7,2.585,4.227,6.078,4.305,9.815
	C131.538,70.65,126.488,76.719,119.648,77.816"/>
<path fill="#FFFFFF" d="M107.132,35.062c-6.202,0.997-12.362-2.296-14.971-8.017c-0.616-1.354-1.011-2.81-1.174-4.311
	c-0.124-1.117,0.639-2.153,1.74-2.384c1.42-0.276,4.204-0.93,6.901-2.173c3.191-1.474,5.176-3.223,5.899-5.199
	c0.255-0.712,0.849-1.221,1.566-1.384c0.049-0.005,0.097-0.023,0.143-0.025c0.676-0.11,1.369,0.102,1.874,0.59
	c1.062,1.032,2.854,2.188,5.334,1.79c0.155-0.027,0.334-0.064,0.507-0.099c0.053-0.018,0.113-0.025,0.169-0.041
	c0.957-0.156,1.905,0.35,2.328,1.241c0.068,0.144,0.128,0.251,0.18,0.361c3.202,7.021,0.112,15.339-6.911,18.547
	C109.571,34.484,108.364,34.845,107.132,35.062"/>
<path fill="#FFFFFF" d="M103.354,11.726c-0.847,0.131-1.676,0.379-2.464,0.752c-2.449,1.117-4.253,3.152-5.092,5.601
	c1-0.307,2.109-0.71,3.228-1.213c1.833-0.841,4.966-2.622,5.326-5.075l0.029-0.185C104.035,11.622,103.697,11.667,103.354,11.726
	 M93.443,23.191c-0.623,0.098-1.271-0.078-1.757-0.49c-0.503-0.424-0.792-1.055-0.771-1.715c0.092-5.36,3.299-10.257,8.164-12.499
	c1.144-0.524,2.344-0.884,3.575-1.081c5.405-0.875,10.854,1.502,13.872,6.062c0.415,0.61,0.49,1.387,0.21,2.055
	c-0.289,0.679-0.891,1.175-1.61,1.306l-0.243,0.042c-2.18,0.354-4.256-0.087-6.175-1.328c-0.319-0.195-0.588-0.401-0.851-0.601
	c-1.195,2.314-3.578,4.325-7.015,5.898c-2.167,0.981-4.354,1.626-5.8,1.985c-0.585,0.14-1.102,0.264-1.542,0.351
	C93.487,23.176,93.463,23.185,93.443,23.191"/>
<path fill="#FFFFFF" d="M98.835,51.174c-0.939,0.149-1.745,0.444-2.345,0.835c-0.448,0.302-0.634,0.575-0.629,0.664
	c0.002,0.036,0.244,0.271,0.749,0.475c0.778,0.306,1.827,0.408,2.925,0.291c0.157-0.01,0.312-0.032,0.469-0.059
	c0.929-0.15,1.739-0.441,2.353-0.831c0.435-0.298,0.622-0.558,0.611-0.665c0.003-0.04-0.233-0.273-0.736-0.467
	c-0.777-0.316-1.817-0.42-2.93-0.306C99.136,51.127,98.984,51.145,98.835,51.174 M101.033,60.045
	c-0.269,0.045-0.537,0.084-0.812,0.109c-3.719,0.379-7.36-0.7-10.261-3.057c-2.913-2.364-4.72-5.707-5.104-9.433
	c-0.761-7.365,4.369-14.072,11.672-15.258c0.271-0.046,0.549-0.075,0.826-0.113c3.708-0.376,7.352,0.704,10.25,3.069
	c2.909,2.354,4.716,5.709,5.1,9.431C113.478,52.161,108.35,58.863,101.033,60.045"/>
<path fill="#FFFFFF" d="M100.496,56.268L100.496,56.268c-0.219,0.038-0.441,0.064-0.668,0.084c-1.554,0.17-3.098-0.006-4.312-0.497
	c-1.516-0.605-2.454-1.669-2.559-2.91c-0.147-1.243,0.55-2.459,1.912-3.368c1.08-0.705,2.537-1.207,4.124-1.372
	c1.558-0.167,3.091,0.013,4.312,0.492c1.513,0.605,2.465,1.694,2.58,2.923c0.069,0.67-0.042,2.103-1.916,3.363
	C103.047,55.604,101.809,56.051,100.496,56.268"/>
<path fill="#FFFFFF" d="M144.341,70.615c-6.558,1.058-13.012-2.7-15.343-8.928c-2.703-7.233,0.987-15.31,8.211-18.007
	c0.877-0.328,1.768-0.572,2.676-0.723c6.56-1.058,13.013,2.697,15.34,8.935c1.31,3.503,1.186,7.306-0.372,10.697
	c-1.551,3.41-4.339,6.009-7.845,7.317C146.146,70.219,145.249,70.465,144.341,70.615"/>
<path fill="#FFFFFF" d="M150.759,28.773c0.032,0.136,0.045,0.279,0.054,0.422c-0.002,0.228,0.025,0.404,0.063,0.537
	c0.31,1.047,1.356,1.702,2.425,1.531c0.1-0.015,0.19-0.04,0.29-0.066c0.552-0.175,1.011-0.541,1.281-1.058
	c0.277-0.506,0.345-1.096,0.184-1.65c-0.324-1.042-1.365-1.705-2.427-1.527c-0.102,0.011-0.188,0.031-0.281,0.06
	c-0.688,0.208-1.215,0.716-1.453,1.41C150.862,28.546,150.808,28.664,150.759,28.773 M143.117,29.792
	c-0.094,0.013-0.183,0.035-0.278,0.058c-1.144,0.346-1.795,1.562-1.451,2.712c0.308,1.046,1.35,1.701,2.42,1.525
	c0.095-0.013,0.187-0.028,0.291-0.066c0.553-0.16,1.014-0.537,1.285-1.05c0.277-0.505,0.341-1.096,0.169-1.657
	c-0.035-0.136-0.11-0.293-0.219-0.479c-0.063-0.117-0.129-0.241-0.172-0.365c-0.114-0.067-0.236-0.141-0.335-0.221
	C144.348,29.861,143.724,29.698,143.117,29.792 M150.445,45.612c-6.909,1.117-13.645-3.102-15.643-9.833
	c-2.197-7.386,2.024-15.214,9.423-17.413c0.586-0.176,1.175-0.307,1.77-0.405c6.909-1.11,13.646,3.104,15.646,9.816
	c1.081,3.593,0.677,7.376-1.1,10.664c-1.777,3.293-4.731,5.699-8.316,6.771C151.64,45.375,151.049,45.511,150.445,45.612"/>
<path fill="#FFFFFF" d="M143.352,31.224c-0.038,0.009-0.063,0.01-0.095,0.017c-0.374,0.11-0.595,0.524-0.488,0.911
	c0.116,0.371,0.524,0.601,0.918,0.48c0.376-0.118,0.596-0.515,0.478-0.896C144.067,31.386,143.709,31.171,143.352,31.224
	 M144.296,36.971L144.296,36.971c-2.52,0.41-4.978-1.126-5.713-3.573c-0.788-2.696,0.746-5.533,3.423-6.345
	c0.219-0.066,0.432-0.112,0.643-0.141c2.513-0.418,4.975,1.126,5.707,3.569c0.798,2.685-0.742,5.529-3.422,6.339
	C144.711,36.892,144.509,36.937,144.296,36.971"/>
<path fill="#FFFFFF" d="M152.835,28.393c-0.022,0.001-0.06,0.011-0.088,0.025c-0.372,0.112-0.601,0.519-0.484,0.906
	c0.111,0.342,0.46,0.565,0.818,0.508c0.025-0.003,0.054-0.012,0.092-0.026c0.384-0.116,0.595-0.522,0.482-0.9
	C153.556,28.562,153.208,28.334,152.835,28.393 M153.78,34.145c-2.513,0.398-4.966-1.126-5.699-3.573
	c-0.796-2.695,0.738-5.536,3.418-6.349c0.229-0.065,0.432-0.117,0.645-0.146c2.521-0.403,4.961,1.125,5.707,3.573
	c0.799,2.703-0.739,5.543-3.432,6.347C154.205,34.059,153.99,34.107,153.78,34.145"/>
<path fill="#FFFFFF" d="M131.838,27.827c-6.953,1.123-13.685-3.128-15.657-9.897c-2.165-7.402,2.099-15.199,9.51-17.365
	c0.554-0.167,1.129-0.29,1.692-0.385c6.955-1.126,13.682,3.127,15.675,9.899c2.171,7.401-2.104,15.196-9.517,17.368
	c-0.551,0.17-1.132,0.29-1.698,0.38H131.838z"/>
<path fill="#1C75BC" d="M128.062,38.815c-0.805,0.231-1.652-0.24-1.885-1.052c-0.226-0.816,0.242-1.653,1.057-1.882
	c0.815-0.222,1.655,0.242,1.878,1.058C129.349,37.746,128.867,38.591,128.062,38.815 M119.873,41.131
	c-0.804,0.234-1.641-0.246-1.871-1.053c-0.24-0.813,0.243-1.66,1.044-1.889c0.82-0.227,1.668,0.242,1.891,1.063
	C121.168,40.05,120.695,40.904,119.873,41.131 M133.305,32.416l-3.742,2.4l-2.251-3.115l-2.989,3.053l-2.833-3.253l-0.756,2.342
	l-4.494,0.798l-1.061,4.629l-3.457-0.881c-0.077,1.256,0.049,2.548,0.411,3.83c1.772,6.275,8.305,9.922,14.584,8.15
	c6.277-1.769,9.928-8.286,8.16-14.569C134.537,34.561,133.988,33.44,133.305,32.416"/>
<path fill="#1C75BC" d="M111.881,36.948l2.214,0.55l0.95-4.114l4.576-0.814l1.274-3.945l3.502,4.006l3.084-3.18l2.456,3.405
	l2.487-1.589c-2.908-3.341-7.582-4.912-12.129-3.639C115.798,28.906,112.644,32.634,111.881,36.948"/>
<path fill="#EF4138" d="M121.379,66.307c-0.841,0.015-1.543-0.657-1.567-1.498c-0.014-0.85,0.663-1.543,1.498-1.563
	c0.85-0.016,1.537,0.651,1.56,1.5C122.893,65.582,122.224,66.287,121.379,66.307 M112.881,66.474
	c-0.851,0.027-1.549-0.645-1.565-1.487c-0.017-0.842,0.662-1.549,1.502-1.556c0.84-0.02,1.536,0.651,1.555,1.49
	C114.391,65.757,113.73,66.458,112.881,66.474 M117.152,52.196c-6.36,0.129-11.42,5.266-11.562,11.561
	c0.514-0.05,0.562-0.137,0.675-0.298c0.139-0.192,0.243-0.713,0.374-1.389c0.275-1.363,0.92-3.352,3.481-4.948
	c0.889-0.574,1.942-0.928,3.061-0.952c1.43-0.028,2.96,0.468,4.566,1.549c1.439,0.984,3.381,1.962,5.114,1.92
	c1.103-0.022,2.126-0.403,3.131-1.476l1.062,0.984c-1.23,1.353-2.724,1.919-4.156,1.945c-2.293,0.031-4.411-1.13-5.963-2.179
	c-1.431-0.962-2.657-1.303-3.723-1.294c-0.85,0.017-1.614,0.279-2.322,0.732c-3.271,2.151-2.458,4.08-3.367,5.846
	c-0.33,0.589-1.045,0.994-1.876,1.017c0.617,6.062,5.796,10.726,11.999,10.593c6.517-0.13,11.702-5.525,11.561-12.055
	C129.07,57.227,123.679,52.05,117.152,52.196"/>
<path fill="#F15A2A" d="M109.425,20.787c-0.772,0.353-1.68,0.015-2.025-0.748c-0.35-0.77-0.011-1.67,0.75-2.023
	c0.772-0.362,1.683-0.014,2.027,0.748C110.519,19.535,110.191,20.45,109.425,20.787 M101.699,24.32
	c-0.773,0.358-1.678,0.021-2.026-0.751c-0.351-0.751-0.011-1.673,0.76-2.025c0.761-0.344,1.667-0.007,2.01,0.76
	C102.803,23.068,102.46,23.975,101.699,24.32 M115.468,15.968c-3.83,0.922-6.548-0.948-7.874-2.246
	c-1.122,3.078-4.115,5.094-7.062,6.441c-2.921,1.353-5.896,2.05-7.371,2.337c0.129,1.23,0.456,2.454,0.993,3.648
	c2.705,5.923,9.725,8.536,15.652,5.827c5.939-2.724,8.542-9.735,5.829-15.663C115.585,16.192,115.518,16.086,115.468,15.968"/>
<path fill="#F15A2A" d="M99.93,18.856c3.23-1.482,6.145-3.706,6.581-6.754l0.286-1.79l1.04,1.497
	c-0.003-0.012,0.155,0.231,0.512,0.607c0.338,0.369,0.869,0.861,1.533,1.287c1.189,0.764,2.788,1.364,4.837,0.979
	c-3.158-4.753-9.386-6.645-14.735-4.199c-4.27,1.95-6.803,6.14-6.894,10.54c0.402-0.075,0.873-0.184,1.426-0.311
	C96.025,20.337,98.009,19.734,99.93,18.856"/>
<path fill="#0EA84F" d="M103.549,54.366c-0.978,0.649-2.299,1.094-3.795,1.254c-1.478,0.151-2.859-0.024-3.96-0.441
	c-1.068-0.437-1.97-1.182-2.108-2.303c-0.098-1.136,0.64-2.05,1.601-2.683c0.982-0.65,2.3-1.091,3.789-1.256
	c1.479-0.152,2.871,0.017,3.964,0.446c1.077,0.432,1.979,1.168,2.112,2.314C105.251,52.819,104.518,53.736,103.549,54.366
	 M93.498,39.531c0.838-0.096,1.594,0.518,1.672,1.352c0.087,0.846-0.527,1.596-1.363,1.681c-0.839,0.08-1.591-0.522-1.677-1.368
	C92.045,40.365,92.661,39.611,93.498,39.531 M101.956,38.653c0.836-0.09,1.582,0.528,1.678,1.354
	c0.071,0.847-0.531,1.594-1.374,1.685c-0.84,0.08-1.588-0.52-1.67-1.361C100.502,39.485,101.104,38.736,101.956,38.653
	 M97.581,34.475c-6.5,0.67-11.214,6.47-10.548,12.96c0.673,6.49,6.475,11.216,12.965,10.542c6.492-0.67,11.214-6.469,10.539-12.961
	C109.869,38.525,104.063,33.803,97.581,34.475"/>
<path fill="#0EA84F" d="M102.499,50.737c-0.814-0.325-2-0.493-3.28-0.354c-1.278,0.13-2.4,0.531-3.136,1.012
	c-0.758,0.507-0.996,1.015-0.957,1.327c0.017,0.319,0.37,0.77,1.217,1.101c0.805,0.323,1.979,0.498,3.278,0.359
	c1.269-0.138,2.399-0.532,3.133-1.024c0.755-0.503,1.004-1.014,0.959-1.323C103.697,51.517,103.341,51.066,102.499,50.737"/>
<path fill="#BED73B" d="M145.608,65.035c-0.019-0.006-0.03,0.002-0.03,0.002c-3.485,1.289-7.475,0.277-9.959-2.16l1.128-1.124
	c2.005,1.995,5.446,2.863,8.265,1.792c2.292-0.874,4.274-2.936,4.938-6.957l0.003-0.001l1.575,0.243
	C150.829,61.279,148.443,63.967,145.608,65.035 M136.528,54.268c0.789-0.298,1.677,0.103,1.965,0.895
	c0.307,0.784-0.106,1.668-0.896,1.96c-0.787,0.3-1.663-0.098-1.974-0.904C135.337,55.441,135.741,54.558,136.528,54.268
	 M144.494,51.284c0.784-0.297,1.669,0.119,1.963,0.895c0.298,0.794-0.107,1.678-0.895,1.958c-0.792,0.308-1.678-0.087-1.97-0.893
	C143.306,52.462,143.696,51.586,144.494,51.284 M137.979,45.723c-6.121,2.287-9.223,9.087-6.931,15.196
	c2.287,6.111,9.095,9.227,15.205,6.932c6.104-2.272,9.208-9.091,6.921-15.191C150.901,46.537,144.086,43.436,137.979,45.723"/>
<path fill="#FBB040" d="M154.215,33.281c-2.313,0.697-4.739-0.619-5.439-2.925c-0.099-0.372-0.146-0.73-0.155-1.095
	c-0.148-0.159-0.358-0.251-0.845-0.157l-0.031,0.002c-0.299,0.069-0.447,0.376-0.526,0.627c0.182,0.3,0.343,0.611,0.435,0.958
	c0.688,2.309-0.625,4.736-2.937,5.426c-2.311,0.696-4.737-0.626-5.421-2.935c-0.688-2.308,0.623-4.736,2.929-5.424
	c1.435-0.425,2.906-0.078,3.974,0.795c0.246-0.331,0.599-0.651,1.148-0.836c0.024-0.007,0.066-0.024,0.115-0.033
	c0.535-0.145,0.989-0.089,1.364,0.051c0.439-1.306,1.477-2.383,2.891-2.804c2.312-0.688,4.737,0.629,5.425,2.937
	C157.84,30.168,156.516,32.601,154.215,33.281 M144.855,20.46c-6.255,1.868-9.818,8.446-7.953,14.697
	c1.867,6.257,8.446,9.817,14.696,7.948c6.263-1.864,9.811-8.447,7.956-14.7C157.685,22.153,151.098,18.597,144.855,20.46"/>
<path fill="#FBB040" d="M142.637,29.144c-1.543,0.462-2.413,2.09-1.96,3.632c0.47,1.536,2.082,2.416,3.627,1.96
	c1.541-0.469,2.416-2.088,1.961-3.618C145.798,29.573,144.178,28.693,142.637,29.144"/>
<path fill="#FBB040" d="M152.129,26.317c-1.536,0.461-2.412,2.074-1.965,3.625c0.476,1.54,2.093,2.415,3.629,1.96
	c1.544-0.467,2.422-2.079,1.968-3.625C155.292,26.739,153.675,25.858,152.129,26.317"/>
<path fill="#8A5D3B" d="M129.052,9.499l6.174,7.406l-5.131,1.821l-0.477-1.369l3.164-1.134l-6.103-7.29l7.379-3.165h0.002
	l0.571,1.33L129.052,9.499z M134.176,12.028c-0.81,0.244-1.653-0.225-1.891-1.04c-0.235-0.807,0.227-1.648,1.036-1.887
	c0.812-0.232,1.652,0.232,1.89,1.038C135.452,10.947,134.99,11.796,134.176,12.028 M126.021,14.412
	c-0.813,0.232-1.654-0.238-1.896-1.035c-0.229-0.813,0.234-1.659,1.038-1.893c0.821-0.237,1.657,0.225,1.899,1.038
	C127.301,13.323,126.827,14.179,126.021,14.412 M126.311,2.663c-6.271,1.838-9.872,8.397-8.034,14.657
	c1.826,6.263,8.381,9.854,14.658,8.025c6.257-1.827,9.854-8.388,8.025-14.651C139.12,4.438,132.565,0.841,126.311,2.663"/>
<g>
	<path d="M31.586,75.068h4.632l-0.383,8.689H16.694v-3.904h2.412V60.864h-2.412v-3.905h10.413v3.905h-2.412v18.989h6.584
		L31.586,75.068z"/>
	<path d="M43.184,74.953c0.153,3.177,2.604,5.128,6.355,5.128c2.564,0,4.211-0.42,6.47-1.377l-0.268,4.25
		c-2.489,0.918-4.672,1.262-7.39,1.262c-7.732,0-10.986-4.822-10.986-10.375c0-6.24,3.789-10.566,10.067-10.566
		c6.893,0,9.687,5.207,9.687,11.677H43.184z M51.3,71.278c0-2.757-1.569-4.326-4.058-4.326c-2.45,0-3.867,1.608-4.097,4.326H51.3z"
		/>
	<path d="M61.098,59.601l5.36-0.307v4.441h5.359v3.905h-5.359v8.92c0,2.833,0.728,3.521,2.947,3.521
		c0.729,0,1.608-0.229,2.604-0.613l-0.191,3.791c-1.99,0.689-3.368,0.957-4.671,0.957c-3.942,0-6.049-1.838-6.049-5.359V67.641
		H58.38v-3.905h2.718V59.601z"/>
	<path d="M72.313,66.147c2.527-1.991,3.063-3.407,3.063-4.747c0-1.953-2.105-2.604-2.105-4.518c0-1.953,1.417-3.139,3.254-3.139
		c2.795,0,4.211,2.68,4.211,5.283c0,3.905-2.066,6.968-5.934,9.494L72.313,66.147z"/>
	<path d="M91.876,67.526c-1.072-0.383-2.105-0.574-3.103-0.574c-2.449,0-3.599,0.995-3.599,2.105c0,0.957,0.268,1.34,1.8,1.57
		l4.211,0.612c4.595,0.651,6.509,2.412,6.509,6.049c0,3.561-2.488,6.928-9.457,6.928c-2.411,0-5.741-0.496-7.886-1.262v-5.629h4.824
		v2.336c0.881,0.307,2.412,0.65,3.561,0.65c1.11,0,3.905-0.346,3.905-2.451c0-1.11-0.688-1.684-3.023-2.029L85.1,75.145
		c-3.483-0.536-4.977-2.45-4.977-5.322c0-4.938,4.67-6.546,8.805-6.546c2.145,0,4.824,0.344,7.771,1.34v4.938h-4.823V67.526z"/>
</g>
<path fill="#231F20" d="M117.719,114.678c0,1.909,1.3,3.436,3.59,3.436c2.289,0,3.587-1.526,3.587-3.436
	c0-2.251-1.565-3.435-3.587-3.435C119.284,111.244,117.719,112.427,117.719,114.678 M118.752,108.916h5.113l0.457-20.804h-6.03
	L118.752,108.916z M105.136,97.503h-2.709v3.894h2.709v11.182c0,3.511,2.101,5.345,6.031,5.345c1.3,0,2.672-0.268,4.658-0.954
	l0.19-3.778c-0.992,0.381-1.869,0.609-2.596,0.609c-2.213,0-2.939-0.687-2.939-3.511v-8.893h5.345v-3.894h-5.345v-4.429
	l-5.345,0.306V97.503z M92.122,90.863c0,1.984,1.374,3.32,3.587,3.32c2.215,0,3.59-1.336,3.59-3.32c0-1.986-1.375-3.321-3.59-3.321
	C93.496,87.542,92.122,88.876,92.122,90.863 M93.231,113.572h-2.178v3.894h9.81v-3.894h-2.29V97.503h-7.938v3.894h2.597V113.572z
	 M68.358,107.808c0-3.625,1.412-6.411,4.694-6.411s4.692,2.138,4.692,6.411c0,3.588-1.41,5.764-4.692,5.764
	S68.358,111.396,68.358,107.808 M62.556,107.695c0,6.794,4.122,10.229,10.496,10.229c6.374,0,10.494-4.274,10.494-10.229
	c0-6.947-3.778-10.648-10.494-10.648C66.525,97.046,62.556,101.969,62.556,107.695 M52.862,107.77c0,3.053-1.794,5.572-4.62,5.572
	c-2.595,0-4.083-2.671-4.083-5.802c0-3.092,1.449-6.144,5.305-6.144c1.183,0,2.672,0.343,3.397,0.725V107.77z M53.013,97.503
	c-1.069-0.307-2.366-0.457-3.283-0.457c-8.511,0-11.145,6.298-11.145,11.754c0,5.954,3.741,9.123,8.13,9.123
	c3.358,0,5.572-1.527,6.794-4.314h0.076c-0.306,1.262-0.458,2.406-0.458,3.856h7.519v-3.894h-2.29v-25.46H49.96v3.896h3.054V97.503z
	"/>
</svg>
