<?xml version="1.0" encoding="utf-8"?>
<!-- Generator: Adobe Illustrator 16.0.0, SVG Export Plug-In . SVG Version: 6.00 Build 0)  -->
<!DOCTYPE svg PUBLIC "-//W3C//DTD SVG 1.1//EN" "http://www.w3.org/Graphics/SVG/1.1/DTD/svg11.dtd">
<svg version="1.1" id="Layer_1" xmlns="http://www.w3.org/2000/svg" xmlns:xlink="http://www.w3.org/1999/xlink" x="0px" y="0px"
	 width="55px" height="11px" viewBox="0 0 55 11" enable-background="new 0 0 55 11" xml:space="preserve">
<title>39FF810D-AF27-43EF-9396-6D9BF0E0334D</title>
<desc>Created with sketchtool.</desc>
<g id="Page-1">
	<g id="Assets" transform="translate(-742.000000, -589.000000)">
		
			<g id="Arrow" transform="translate(767.000000, 594.500000) scale(-1, 1) translate(-767.000000, -594.500000) translate(737.000000, 589.000000)">
			<g id="Small-arrow">
				<g id="Group-2">
					<g id="Group-3">
						<path id="Combined-Shape" fill="#3B8FE7" d="M53.586,5.5l-3.889,3.889c-0.195,0.195-0.195,0.512,0,0.707
							c0.194,0.195,0.512,0.195,0.707,0l4.242-4.242L55,5.5l-4.596-4.596c-0.195-0.195-0.513-0.195-0.707,0
							c-0.195,0.195-0.195,0.512,0,0.707L53.586,5.5z"/>
					</g>
				</g>
			</g>
			<path id="Rectangle-3" fill="#3B8FE7" d="M53.551,6h-32c-0.275,0-0.5-0.224-0.5-0.5l0,0c0-0.276,0.225-0.5,0.5-0.5h32
				c0.275,0,0.5,0.224,0.5,0.5l0,0C54.051,5.776,53.826,6,53.551,6z"/>
			<g id="Small-arrow_1_" transform="translate(49.000000, 0.000000)" display="none">
				<g id="Group-2_1_" display="inline">
					<g id="Group-3_1_">
						<path id="Combined-Shape_1_" fill="#3B8FE7" d="M-44.413,5.5l-3.89,3.889c-0.194,0.195-0.194,0.512,0,0.707
							c0.195,0.195,0.513,0.195,0.707,0l4.242-4.242l0.354-0.354l-4.597-4.596c-0.194-0.195-0.512-0.195-0.707,0
							c-0.194,0.195-0.194,0.512,0,0.707L-44.413,5.5z"/>
					</g>
				</g>
			</g>
		</g>
	</g>
</g>
</svg>
