<?xml version="1.0" encoding="utf-8"?>
<!-- Generator: Adobe Illustrator 16.0.0, SVG Export Plug-In . SVG Version: 6.00 Build 0)  -->
<!DOCTYPE svg PUBLIC "-//W3C//DTD SVG 1.1//EN" "http://www.w3.org/Graphics/SVG/1.1/DTD/svg11.dtd">
<svg version="1.1" id="Layer_1" xmlns="http://www.w3.org/2000/svg" xmlns:xlink="http://www.w3.org/1999/xlink" x="0px" y="0px"
	 width="55px" height="11px" viewBox="0 0 55 11" enable-background="new 0 0 55 11" xml:space="preserve">
<title>39FF810D-AF27-43EF-9396-6D9BF0E0334D</title>
<desc>Created with sketchtool.</desc>
<g id="Page-1">
	<g id="Assets" transform="translate(-742.000000, -589.000000)">
		
			<g id="Arrow" transform="translate(767.000000, 594.500000) scale(-1, 1) translate(-767.000000, -594.500000) translate(737.000000, 589.000000)">
			<g id="Small-arrow">
				<g id="Group-2">
					<g id="Group-3">
						<path id="Combined-Shape" fill="#3B8FE7" d="M1.965,5.5l3.889-3.889c0.195-0.195,0.195-0.512,0-0.707s-0.512-0.195-0.707,0
							L0.904,5.146L0.551,5.5l4.596,4.596c0.195,0.195,0.512,0.195,0.707,0s0.195-0.512,0-0.707L1.965,5.5z"/>
					</g>
				</g>
			</g>
			<path id="Rectangle-3" fill="#3B8FE7" d="M2,5h32c0.276,0,0.5,0.224,0.5,0.5l0,0C34.5,5.776,34.276,6,34,6H2
				C1.724,6,1.5,5.776,1.5,5.5l0,0C1.5,5.224,1.724,5,2,5z"/>
			<g id="Small-arrow_1_" transform="translate(49.000000, 0.000000)" display="none">
				<g id="Group-2_1_" display="inline">
					<g id="Group-3_1_">
						<path id="Combined-Shape_1_" fill="#3B8FE7" d="M1.964,5.5l3.889-3.889c0.195-0.195,0.195-0.512,0-0.707s-0.512-0.195-0.707,0
							L0.904,5.146L0.55,5.5l4.596,4.596c0.195,0.195,0.512,0.195,0.707,0s0.195-0.512,0-0.707L1.964,5.5z"/>
					</g>
				</g>
			</g>
		</g>
	</g>
</g>
</svg>
