<?xml version="1.0" encoding="UTF-8"?>
<svg width="23px" height="22px" viewBox="0 0 23 22" version="1.1" xmlns="http://www.w3.org/2000/svg" xmlns:xlink="http://www.w3.org/1999/xlink">
    <!-- Generator: sketchtool 46.2 (44496) - http://www.bohemiancoding.com/sketch -->
    <title>38DCA24A-8C4D-45C1-9347-8A694DAF6D71</title>
    <desc>Created with sketchtool.</desc>
    <defs></defs>
    <g id="Page-1" stroke="none" stroke-width="1" fill="none" fill-rule="evenodd">
        <g id="Assets" transform="translate(-566.000000, -933.000000)">
            <g id="Trash-scale" transform="translate(474.000000, 928.000000)">
                <g id="Measure_icons">
                    <g id="Filledbag_icon" transform="translate(92.000000, 5.000000)">
                        <circle id="Oval-4" fill="#FFF13D" cx="15.5" cy="15.5" r="6.5"></circle>
                        <g id="Trashbag_icoon" transform="translate(1.000000, 1.000000)" fill-rule="nonzero" fill="#FFF13D">
                            <path d="M21.9949938,19.2135075 C21.9854171,18.4837421 21.6012305,17.9175204 21.001073,17.4898263 C20.7026907,17.2771278 20.5275606,16.9543004 20.5275606,16.6137238 L20.5275606,12.0905904 C20.188681,8.72474942 17.348895,6.20761454 13.3242114,4.40349804 C13.1215536,4.31270545 12.9145154,4.2348176 12.704514,4.16895747 C13.9021233,2.98280694 14.3837953,2.10862544 14.2908621,1.45858555 C14.2263586,1.00788009 13.8075583,0.68655616 13.3389845,0.68655616 L12.0988596,0.68655616 C11.5124876,0.68655616 10.5954814,0.452433216 9.64467742,0.122464363 C9.20779717,-0.0291768091 8.7484137,-0.0440026466 8.33742934,0.100497066 C7.96071514,0.233428449 7.68874398,0.465003855 7.52039929,0.766114528 C7.25276558,1.24450881 7.31383348,1.84113392 7.64816088,2.29664212 L9.07694353,4.24175024 C8.94132298,4.29040405 8.80711962,4.34415293 8.6747629,4.40345628 C4.64999342,6.20761454 1.81025034,8.72474942 1.47308856,12.0556766 L1.47132781,16.6137238 C1.47132781,16.9543004 1.2961978,17.2771278 0.997772472,17.4898681 C0.397657995,17.9175204 0.0134713543,18.4837421 0.00561240562,19.1958 C-0.0203264196,19.4912727 0.0403549712,19.8164805 0.256712259,20.1296189 C0.639911162,20.6842305 1.39587332,21 2.57072173,21 C6.16841311,21 8.81150587,21 10.5,21 C12.5575857,21 15.5336126,21 19.4280808,21 C20.6029722,21 21.3589343,20.6842305 21.7420903,20.1296189 C21.9585335,19.8164388 22.0192578,19.4912309 21.9949938,19.2135075 Z M8.16431774,1.1066494 C8.24827536,0.956511693 8.38123331,0.843292409 8.587112,0.770624924 C8.8282486,0.685846191 9.11413396,0.695075796 9.39834447,0.79371982 C10.427695,1.15095986 11.400358,1.3992822 12.0988596,1.3992822 L13.3389845,1.3992822 C13.4559669,1.3992822 13.5530657,1.47374549 13.5649186,1.55672842 C13.6231521,1.96408397 13.1717994,2.73356582 11.9504414,3.89390686 L9.72219328,3.89390686 L8.24466798,1.88239569 C8.0674766,1.641006 8.03621258,1.33559374 8.16431774,1.1066494 Z M21.1338163,19.7321194 C20.9014405,20.0684362 20.3776394,20.2872322 19.4281667,20.2872322 L2.57080762,20.2872322 C1.62133496,20.2872322 1.09753388,20.0684362 0.86515808,19.7321194 C0.754359787,19.5717498 0.722966937,19.403487 0.734304437,19.2737714 C0.734647998,19.2698874 0.738513054,19.2181431 0.738513054,19.2181431 C0.738513054,18.7572893 0.995625218,18.3751168 1.43117417,18.0647765 C1.91452099,17.7201906 2.20440024,17.1858758 2.20440024,16.6137655 L2.20440024,12.0905904 C2.50677651,9.12074545 5.17151841,6.75871807 8.98164841,5.05078158 C10.2617981,4.47716784 11.7372621,4.47716784 13.0174977,5.05082335 C16.8275848,6.75871807 19.4923267,9.12078721 19.7964637,12.1255042 L19.7947029,16.6137238 C19.7947029,17.1858758 20.0845822,17.7201906 20.5678431,18.064693 C21.003435,18.375075 21.2605472,18.7572475 21.2605472,19.2181014 L21.2649276,19.2731031 C21.2760074,19.4034452 21.2446146,19.5717498 21.1338163,19.7321194 Z" id="Shape"></path>
                            <path d="M12.6192539,3.33923353 C12.1079176,3.11432921 11.562519,3 10.9999777,3 C10.4374363,3 9.89203778,3.11428655 9.38088007,3.33914821 C5.86451686,4.88801033 3.32801394,6.95745429 3.00265871,9.59329708 C2.978016,9.79294659 3.12743476,9.97391095 3.3363621,9.99745935 C3.54528944,10.0210078 3.73466333,9.87822423 3.75930604,9.67857472 C4.04305437,7.37978979 6.40812972,5.45018581 9.69967284,4.00038056 C10.1107865,3.81954417 10.547525,3.72803815 11.0000223,3.72803815 C11.4525197,3.72803815 11.8892582,3.81954417 12.3005057,4.00046588 C15.5918256,5.45018581 17.9569456,7.37978979 18.240694,9.67857472 C18.2653367,9.87822423 18.4547106,10.0210078 18.6636379,9.99745935 C18.8725652,9.97391095 19.021984,9.79294659 18.9973413,9.59329708 C18.6719414,6.95745429 16.1354385,4.88801033 12.6192539,3.33923353 Z" id="Shape"></path>
                        </g>
                        <g id="Trashbag_icoon" fill-rule="nonzero" fill="#000000">
                            <path d="M21.9949938,19.2135075 C21.9854171,18.4837421 21.6012305,17.9175204 21.001073,17.4898263 C20.7026907,17.2771278 20.5275606,16.9543004 20.5275606,16.6137238 L20.5275606,12.0905904 C20.188681,8.72474942 17.348895,6.20761454 13.3242114,4.40349804 C13.1215536,4.31270545 12.9145154,4.2348176 12.704514,4.16895747 C13.9021233,2.98280694 14.3837953,2.10862544 14.2908621,1.45858555 C14.2263586,1.00788009 13.8075583,0.68655616 13.3389845,0.68655616 L12.0988596,0.68655616 C11.5124876,0.68655616 10.5954814,0.452433216 9.64467742,0.122464363 C9.20779717,-0.0291768091 8.7484137,-0.0440026466 8.33742934,0.100497066 C7.96071514,0.233428449 7.68874398,0.465003855 7.52039929,0.766114528 C7.25276558,1.24450881 7.31383348,1.84113392 7.64816088,2.29664212 L9.07694353,4.24175024 C8.94132298,4.29040405 8.80711962,4.34415293 8.6747629,4.40345628 C4.64999342,6.20761454 1.81025034,8.72474942 1.47308856,12.0556766 L1.47132781,16.6137238 C1.47132781,16.9543004 1.2961978,17.2771278 0.997772472,17.4898681 C0.397657995,17.9175204 0.0134713543,18.4837421 0.00561240562,19.1958 C-0.0203264196,19.4912727 0.0403549712,19.8164805 0.256712259,20.1296189 C0.639911162,20.6842305 1.39587332,21 2.57072173,21 C6.16841311,21 8.81150587,21 10.5,21 C12.5575857,21 15.5336126,21 19.4280808,21 C20.6029722,21 21.3589343,20.6842305 21.7420903,20.1296189 C21.9585335,19.8164388 22.0192578,19.4912309 21.9949938,19.2135075 Z M8.16431774,1.1066494 C8.24827536,0.956511693 8.38123331,0.843292409 8.587112,0.770624924 C8.8282486,0.685846191 9.11413396,0.695075796 9.39834447,0.79371982 C10.427695,1.15095986 11.400358,1.3992822 12.0988596,1.3992822 L13.3389845,1.3992822 C13.4559669,1.3992822 13.5530657,1.47374549 13.5649186,1.55672842 C13.6231521,1.96408397 13.1717994,2.73356582 11.9504414,3.89390686 L9.72219328,3.89390686 L8.24466798,1.88239569 C8.0674766,1.641006 8.03621258,1.33559374 8.16431774,1.1066494 Z M21.1338163,19.7321194 C20.9014405,20.0684362 20.3776394,20.2872322 19.4281667,20.2872322 L2.57080762,20.2872322 C1.62133496,20.2872322 1.09753388,20.0684362 0.86515808,19.7321194 C0.754359787,19.5717498 0.722966937,19.403487 0.734304437,19.2737714 C0.734647998,19.2698874 0.738513054,19.2181431 0.738513054,19.2181431 C0.738513054,18.7572893 0.995625218,18.3751168 1.43117417,18.0647765 C1.91452099,17.7201906 2.20440024,17.1858758 2.20440024,16.6137655 L2.20440024,12.0905904 C2.50677651,9.12074545 5.17151841,6.75871807 8.98164841,5.05078158 C10.2617981,4.47716784 11.7372621,4.47716784 13.0174977,5.05082335 C16.8275848,6.75871807 19.4923267,9.12078721 19.7964637,12.1255042 L19.7947029,16.6137238 C19.7947029,17.1858758 20.0845822,17.7201906 20.5678431,18.064693 C21.003435,18.375075 21.2605472,18.7572475 21.2605472,19.2181014 L21.2649276,19.2731031 C21.2760074,19.4034452 21.2446146,19.5717498 21.1338163,19.7321194 Z" id="Shape"></path>
                            <path d="M12.6192539,6.33923353 C12.1079176,6.11432921 11.562519,6 10.9999777,6 C10.4374363,6 9.89203778,6.11428655 9.38088007,6.33914821 C5.86451686,7.88801033 3.32801394,9.95745429 3.00265871,12.5932971 C2.978016,12.7929466 3.12743476,12.9739109 3.3363621,12.9974594 C3.54528944,13.0210078 3.73466333,12.8782242 3.75930604,12.6785747 C4.04305437,10.3797898 6.40812972,8.45018581 9.69967284,7.00038056 C10.1107865,6.81954417 10.547525,6.72803815 11.0000223,6.72803815 C11.4525197,6.72803815 11.8892582,6.81954417 12.3005057,7.00046588 C15.5918256,8.45018581 17.9569456,10.3797898 18.240694,12.6785747 C18.2653367,12.8782242 18.4547106,13.0210078 18.6636379,12.9974594 C18.8725652,12.9739109 19.021984,12.7929466 18.9973413,12.5932971 C18.6719414,9.95745429 16.1354385,7.88801033 12.6192539,6.33923353 Z" id="Shape"></path>
                            <g id="Recycle" transform="translate(6.000000, 9.000000)">
                                <path d="M5.14736871,1.91170484 L3.71320738,0.461411413 C3.52956128,0.274567376 3.23220215,0.274567376 3.03986565,0.461411413 C2.85621954,0.648255451 2.85621954,0.95079265 3.03986565,1.14647841 L3.66073707,1.7781614 C2.32274399,1.84047055 1.34327076,2.57007984 0.713626958,3.70891093 C0.486282914,4.11821615 0.320099583,4.54528824 0.197696173,4.98120205 C0.127763079,5.23919696 0.0839831585,5.44389128 0.0665203813,5.57735131 C0.0315128419,5.84427136 0.21515895,6.08449941 0.468820137,6.12011656 C0.73117172,6.1557337 0.967288144,5.96888966 1.00229568,5.71081134 C1.01106806,5.62181018 1.04599362,5.46165815 1.10723632,5.2481221 C1.20340457,4.87443403 1.34335274,4.51851282 1.53577123,4.18936703 C2.01677646,3.33522286 2.69889058,2.81030789 3.66081905,2.74799874 L3.05741041,3.36191486 C2.8737643,3.5487589 2.8737643,3.8512961 3.05741041,4.04698186 C3.24105652,4.2338259 3.53841564,4.2338259 3.73075215,4.04698186 L5.14745069,2.59668843 C5.33101482,2.40992781 5.33101482,2.10739061 5.14736871,1.91170484 Z" id="Shape"></path>
                                <path d="M8.43453002,7.09101601 L7.65780202,7.09101601 C7.96137879,6.75674579 8.1934765,6.39545957 8.35417884,6.01604975 C8.82733006,4.91398278 8.72019517,3.76669153 8.26487186,2.67360167 C8.11312533,2.32129255 7.9702509,2.05934733 7.86311601,1.90572023 C7.71136947,1.67985282 7.4077927,1.62565142 7.1845671,1.77927852 C6.96134151,1.93282093 6.90777406,2.23999045 7.05960429,2.46585786 C7.07743221,2.49295856 7.10421593,2.53809816 7.14891127,2.61940027 C7.22030663,2.75490377 7.30065781,2.89946908 7.37213687,3.0710504 C7.7381532,3.93827284 7.81850437,4.82353419 7.47031596,5.62757813 C7.35422525,5.88952335 7.19352291,6.15155326 6.97925312,6.39545957 L6.97925312,5.62757813 C6.97925312,5.35657112 6.76498333,5.1397655 6.49714609,5.1397655 C6.22930885,5.1397655 6.01503906,5.35657112 6.01503906,5.62757813 L6.01503906,7.58789043 C6.01503906,7.85889745 6.22930885,8.07570306 6.49714609,8.07570306 L8.43453002,8.07570306 C8.70236725,8.07570306 8.91663704,7.85889745 8.91663704,7.58789043 C8.91663704,7.29875982 8.70236725,7.09101601 8.43453002,7.09101601 Z" id="Shape" transform="translate(7.465838, 4.883945) rotate(-27.000000) translate(-7.465838, -4.883945) "></path>
                                <path d="M6.93891676,8.45464158 C6.78515463,8.23141598 6.47754556,8.17784854 6.26042969,8.32967877 C6.23329021,8.34750669 6.18808601,8.37429041 6.10666756,8.41898575 C5.97097015,8.49038111 5.82619797,8.57073228 5.65437112,8.64221135 C4.78590767,9.00822767 3.89937951,9.08857885 3.09418498,8.74039044 C2.83186492,8.62429973 2.56946004,8.46359739 2.3252047,8.2493276 L3.09418498,8.2493276 C3.36557981,8.2493276 3.58269567,8.03505781 3.58269567,7.76722057 C3.58269567,7.49938333 3.36557981,7.28511354 3.09418498,7.28511354 L1.13106746,7.28511354 C0.859672632,7.28511354 0.64255677,7.49938333 0.64255677,7.76722057 L0.64255677,9.70460449 C0.64255677,9.97244173 0.859672632,10.1867115 1.13106746,10.1867115 C1.40246229,10.1867115 1.61957815,9.97244173 1.61957815,9.70460449 L1.61957815,8.9278765 C1.95432671,9.23145327 2.31612993,9.46355098 2.69608269,9.62425332 C3.79972672,10.0974045 4.94865976,9.99026965 6.04331383,9.53494634 C6.39612711,9.38319981 6.65844717,9.24032538 6.81229411,9.13319049 C7.03839993,8.98136025 7.09267889,8.67778348 6.93891676,8.45464158 Z" id="Shape"></path>
                            </g>
                        </g>
                    </g>
                </g>
            </g>
        </g>
    </g>
</svg>