<?xml version="1.0" encoding="UTF-8"?>
<svg width="31px" height="21px" viewBox="0 0 31 21" version="1.1" xmlns="http://www.w3.org/2000/svg" xmlns:xlink="http://www.w3.org/1999/xlink">
    <!-- Generator: sketchtool 46.2 (44496) - http://www.bohemiancoding.com/sketch -->
    <title>7DC57898-B008-4D31-A28B-D475FBFC7AE5</title>
    <desc>Created with sketchtool.</desc>
    <defs></defs>
    <g id="Page-1" stroke="none" stroke-width="1" fill="none" fill-rule="evenodd">
        <g id="Assets" transform="translate(-474.000000, -934.000000)">
            <g id="Trash-scale" transform="translate(474.000000, 928.000000)">
                <g id="Measure_icons">
                    <g id="Filledhand_icon" transform="translate(0.000000, 7.000000)">
                        <circle id="Oval-3" fill="#FFF13D" cx="21.5" cy="11.5" r="6.5"></circle>
                        <g id="Handul_filled_icon">
                            <g id="Handfuloftrash_icon">
                                <g transform="translate(1.000000, 1.000000)">
                                    <path d="M27.7461328,6.51785069 C27.4150195,6.51785069 27.1092773,6.59826054 26.8381055,6.71945883 C26.4258398,6.19440236 25.7859375,5.85455697 25.0645898,5.85385674 C24.6918164,5.85385674 24.3489258,5.95235588 24.0543164,6.09992955 L24.0234961,6.1169685 L23.1024023,6.66104791 C22.6894922,6.16931076 22.0710352,5.85420685 21.377168,5.85385674 C21.0043945,5.85385674 20.6615039,5.95235588 20.3668945,6.09992955 L20.3300391,6.12064471 L16.803457,8.27169568 C16.0070508,8.03735174 15.1228125,7.78030864 14.2683984,7.53896239 C13.3670508,7.28425341 12.5002148,7.04757536 11.8054102,6.87298446 C11.4574805,6.78551395 11.1531445,6.71374028 10.9044141,6.66268178 C10.7797266,6.63694829 10.6691016,6.6166416 10.5708984,6.60164498 C10.4713477,6.58694014 10.3882031,6.57661173 10.2943945,6.57626161 C10.2219727,6.57661173 10.1592773,6.58291381 10.0879102,6.59160834 C9.82816406,6.62568625 9.45873047,6.70446222 9.02296875,6.80622911 C8.13269531,7.0145478 6.99644531,7.31763108 6.36861328,7.48784554 L6.36861328,6.42962159 C6.36861328,5.69525444 5.76527344,5.09433962 5.0278125,5.09433962 L1.34080078,5.09433962 C0.603339844,5.09445633 0,5.69531279 0,6.4297383 L0,16.7779256 C0,17.5122927 0.603339844,18.1132075 1.34080078,18.1132075 L5.02787109,18.1132075 C5.76527344,18.1132075 6.36867187,17.5123511 6.36867187,16.7779256 L6.36867187,15.974469 C7.16443359,16.1470175 8.93056641,16.5268928 10.7925586,16.9077601 C12.0519141,17.1651533 13.3533984,17.4228382 14.4283594,17.617094 C14.9660156,17.714251 15.4470117,17.7953611 15.8408789,17.85278 C16.2380859,17.9099072 16.534043,17.9452688 16.7596289,17.9466109 C16.9352344,17.9459691 17.1015234,17.9128832 17.2811719,17.8634585 C17.6153906,17.7696276 17.9957812,17.6104418 18.4311914,17.399789 C19.946543,16.6640797 22.1229492,15.2857335 24.1760156,13.9218004 C26.2253906,12.5595012 28.1423437,11.2142993 29.081543,10.5700285 C29.6694727,10.1664621 30,9.48449559 30,8.76279095 C29.9990039,7.52326555 28.9910156,6.51849257 27.7461328,6.51785069 Z M5.36302734,16.7778089 C5.36302734,16.9587019 5.20951172,17.1115856 5.02787109,17.1115856 L1.34080078,17.1115856 C1.15916016,17.1115856 1.00564453,16.9587019 1.00564453,16.7778089 L1.00564453,6.4297383 C1.00564453,6.24884532 1.15916016,6.09596157 1.34080078,6.09596157 L5.02787109,6.09596157 C5.20951172,6.09596157 5.36302734,6.24884532 5.36302734,6.4297383 L5.36302734,16.7778089 Z M28.5113672,9.74509819 C27.3563086,10.5375845 24.7716211,12.3551505 22.2697852,13.9735008 C21.0198633,14.7819758 19.7907422,15.5400924 18.7828125,16.0895403 C18.279375,16.3642642 17.8301953,16.5862374 17.4711914,16.734803 C17.2918945,16.8088524 17.1349805,16.8646375 17.0105859,16.8990072 C16.8868945,16.9340187 16.7936719,16.9457476 16.7598633,16.9450474 C16.6502344,16.9460393 16.3600195,16.9173299 15.9869531,16.8618949 C14.6663086,16.6692731 12.1942969,16.1775359 10.0657617,15.7352818 C9.00052734,15.5139505 8.019375,15.3049899 7.30447266,15.1514059 C6.88916016,15.0623015 6.56871094,14.9925118 6.36890625,14.9494476 L6.36890625,8.52634631 C6.46716797,8.49927072 6.59583984,8.46425917 6.75035156,8.42253708 C7.28033203,8.27933986 8.08910156,8.06466074 8.81449219,7.88680209 C9.17683594,7.79763936 9.51908203,7.71827986 9.79089844,7.66179456 C9.92630859,7.63378533 10.044668,7.61143629 10.1354883,7.59702321 C10.2246094,7.58231836 10.2939844,7.57700827 10.2946875,7.57800027 C10.2963867,7.57765015 10.3490039,7.58097625 10.4207227,7.59206324 C10.6982813,7.63343521 11.2670508,7.76595391 11.9598633,7.94655513 C14.047793,8.4897009 17.34,9.47142462 18.6700781,9.87364892 C19.1302734,10.0118278 19.5469336,10.2201465 19.8204492,10.4728715 C19.9579102,10.5990881 20.0611523,10.7339409 20.1305273,10.879764 C20.1999023,11.0262873 20.2391016,11.1848896 20.2398047,11.3787952 C20.2394531,11.7716831 20.08125,12.1228489 19.8228516,12.3809424 C19.5660938,12.6356513 19.2174609,12.7915111 18.8283398,12.7951873 L17.5307813,12.6686789 L13.1025586,12.1024839 C12.8269922,12.0674723 12.5749219,12.2610278 12.5394141,12.5354016 C12.5038477,12.8098338 12.6989648,13.0604581 12.9741211,13.0958781 L17.4166992,13.6636487 L18.7916602,13.7978012 L18.8164453,13.7978012 C20.1575391,13.7974511 21.2445703,12.7148941 21.2452734,11.3789703 C21.245918,11.0428595 21.1712109,10.7267052 21.0387891,10.4499973 C20.8393945,10.0330682 20.5185938,9.71026171 20.1558984,9.46453901 C19.7918555,9.21817444 19.3809375,9.0426499 18.9626367,8.9157914 C18.729375,8.84535984 18.4354102,8.75654722 18.0995508,8.65606409 L20.8283203,6.99132348 C21.0052734,6.9045532 21.1863281,6.85547869 21.3780469,6.85512857 C21.7031836,6.85477845 21.9967969,6.98029484 22.21875,7.18330345 L20.870625,7.97946598 C20.6319727,8.12038745 20.5532227,8.42778882 20.6950195,8.66545885 C20.8368164,8.90312889 21.1451953,8.98190487 21.3841406,8.84074999 L24.5135156,6.99243218 C24.6914648,6.90461155 24.8735156,6.85524527 25.0659375,6.85524527 C25.4128711,6.85489516 25.7249414,6.99879261 25.9511719,7.22712623 L22.3073438,9.37922755 C22.0683398,9.52014902 21.9899414,9.82755038 22.1317383,10.0655122 C22.2735352,10.3031822 22.5819141,10.3816081 22.8208594,10.2403948 L26.7610547,7.91306075 C26.7992578,7.90670032 26.8378125,7.89736391 26.8753711,7.88131695 C26.9561133,7.84723905 27.0218555,7.79320456 27.0724219,7.72907508 L27.1954102,7.65630942 C27.3733594,7.5684888 27.5554102,7.51912252 27.7477734,7.51912252 C28.0933594,7.51947263 28.4023828,7.65770988 28.6300195,7.88335929 C28.8566016,8.11005905 28.9953516,8.41810229 28.9957617,8.76261589 C28.9940625,9.18228761 28.8009961,9.54880013 28.5113672,9.74509819 Z" id="Shape" fill="#FFF13D" fill-rule="nonzero"></path>
                                    <path d="M9.05660377,6.86783255 C9.05660377,6.37728951 9.3461189,5.73952031 9.63563402,5.44518299 C9.78039158,5.34705139 9.82862526,5.39614593 9.87691548,5.39614593 C10.1181969,5.49427754 10.7454608,5.69048326 11.034976,5.24897727 C11.2762574,4.90560289 11.034976,4.51313396 10.8902184,4.31692824 C10.648937,4.07162798 10.648937,3.58108494 10.8419847,3.33578467 C11.0832662,3.04144735 11.5175389,3.23765307 11.7587638,3.38482173 L11.8552877,3.48295333 C12.0965691,3.63012199 12.4825516,3.82632771 12.8203569,3.63012199 C13.1581057,3.38482173 13.1581057,2.89427869 13.1098721,2.40373564 C13.1098721,2.15843538 13.1098721,1.96222966 13.206396,1.86409805 C13.3511535,1.71692939 13.6406686,1.71692939 13.7854262,1.71692939 C13.9301838,1.71692939 14.123175,1.71692939 14.2679326,1.56976073 L14.4126901,1.42259207 L14.4126901,1.22638635 C14.4126901,0.539580101 14.9434867,0 15.6189843,0 C15.9084994,0 16.2462482,0.147168662 16.4875297,0.392468927 C16.4875297,0.392468927 17.0665599,0.981143573 17.5490663,0.68680625 C17.7903477,0.539637588 18.0315726,0.49060053 18.2728541,0.49060053 C18.900118,0.49060053 19.4791483,0.932106515 19.6239058,1.52078116 C19.6239058,1.56981822 19.6721395,1.76608143 19.6721395,1.96228715 L19.8651307,2.20758741 L20.058122,2.40379313 L20.1063556,2.45283019 C20.2511132,2.55096179 20.5406283,2.69813045 20.8301434,2.55096179 C21.2161825,2.40379313 21.4574074,2.45283019 21.5056976,2.50192473 C21.6022215,2.60005634 21.6022215,2.99246778 21.3127063,3.48306831 C20.9749576,3.82644269 21.1197151,4.562286 21.2644727,4.80758626 L21.5057541,5.10192358 L21.8435029,4.95475492 C22.4707668,4.70945466 22.9050395,4.80758626 23.0497971,5.00379198 C23.146321,5.1999977 23.0497971,5.54342957 22.760282,5.83776689 C22.5190005,6.03397261 22.5190005,6.32830994 22.6155244,6.5736102 L22.7120483,6.86794752 L23.0015634,6.86794752 C23.2910785,6.91698458 23.5805937,7.11324779 23.7735849,7.35849057" id="Path" stroke="#FFF13D"></path>
                                </g>
                                <path d="M27.7461328,6.51785069 C27.4150195,6.51785069 27.1092773,6.59826054 26.8381055,6.71945883 C26.4258398,6.19440236 25.7859375,5.85455697 25.0645898,5.85385674 C24.6918164,5.85385674 24.3489258,5.95235588 24.0543164,6.09992955 L24.0234961,6.1169685 L23.1024023,6.66104791 C22.6894922,6.16931076 22.0710352,5.85420685 21.377168,5.85385674 C21.0043945,5.85385674 20.6615039,5.95235588 20.3668945,6.09992955 L20.3300391,6.12064471 L16.803457,8.27169568 C16.0070508,8.03735174 15.1228125,7.78030864 14.2683984,7.53896239 C13.3670508,7.28425341 12.5002148,7.04757536 11.8054102,6.87298446 C11.4574805,6.78551395 11.1531445,6.71374028 10.9044141,6.66268178 C10.7797266,6.63694829 10.6691016,6.6166416 10.5708984,6.60164498 C10.4713477,6.58694014 10.3882031,6.57661173 10.2943945,6.57626161 C10.2219727,6.57661173 10.1592773,6.58291381 10.0879102,6.59160834 C9.82816406,6.62568625 9.45873047,6.70446222 9.02296875,6.80622911 C8.13269531,7.0145478 6.99644531,7.31763108 6.36861328,7.48784554 L6.36861328,6.42962159 C6.36861328,5.69525444 5.76527344,5.09433962 5.0278125,5.09433962 L1.34080078,5.09433962 C0.603339844,5.09445633 0,5.69531279 0,6.4297383 L0,16.7779256 C0,17.5122927 0.603339844,18.1132075 1.34080078,18.1132075 L5.02787109,18.1132075 C5.76527344,18.1132075 6.36867187,17.5123511 6.36867187,16.7779256 L6.36867187,15.974469 C7.16443359,16.1470175 8.93056641,16.5268928 10.7925586,16.9077601 C12.0519141,17.1651533 13.3533984,17.4228382 14.4283594,17.617094 C14.9660156,17.714251 15.4470117,17.7953611 15.8408789,17.85278 C16.2380859,17.9099072 16.534043,17.9452688 16.7596289,17.9466109 C16.9352344,17.9459691 17.1015234,17.9128832 17.2811719,17.8634585 C17.6153906,17.7696276 17.9957812,17.6104418 18.4311914,17.399789 C19.946543,16.6640797 22.1229492,15.2857335 24.1760156,13.9218004 C26.2253906,12.5595012 28.1423437,11.2142993 29.081543,10.5700285 C29.6694727,10.1664621 30,9.48449559 30,8.76279095 C29.9990039,7.52326555 28.9910156,6.51849257 27.7461328,6.51785069 Z M5.36302734,16.7778089 C5.36302734,16.9587019 5.20951172,17.1115856 5.02787109,17.1115856 L1.34080078,17.1115856 C1.15916016,17.1115856 1.00564453,16.9587019 1.00564453,16.7778089 L1.00564453,6.4297383 C1.00564453,6.24884532 1.15916016,6.09596157 1.34080078,6.09596157 L5.02787109,6.09596157 C5.20951172,6.09596157 5.36302734,6.24884532 5.36302734,6.4297383 L5.36302734,16.7778089 Z M28.5113672,9.74509819 C27.3563086,10.5375845 24.7716211,12.3551505 22.2697852,13.9735008 C21.0198633,14.7819758 19.7907422,15.5400924 18.7828125,16.0895403 C18.279375,16.3642642 17.8301953,16.5862374 17.4711914,16.734803 C17.2918945,16.8088524 17.1349805,16.8646375 17.0105859,16.8990072 C16.8868945,16.9340187 16.7936719,16.9457476 16.7598633,16.9450474 C16.6502344,16.9460393 16.3600195,16.9173299 15.9869531,16.8618949 C14.6663086,16.6692731 12.1942969,16.1775359 10.0657617,15.7352818 C9.00052734,15.5139505 8.019375,15.3049899 7.30447266,15.1514059 C6.88916016,15.0623015 6.56871094,14.9925118 6.36890625,14.9494476 L6.36890625,8.52634631 C6.46716797,8.49927072 6.59583984,8.46425917 6.75035156,8.42253708 C7.28033203,8.27933986 8.08910156,8.06466074 8.81449219,7.88680209 C9.17683594,7.79763936 9.51908203,7.71827986 9.79089844,7.66179456 C9.92630859,7.63378533 10.044668,7.61143629 10.1354883,7.59702321 C10.2246094,7.58231836 10.2939844,7.57700827 10.2946875,7.57800027 C10.2963867,7.57765015 10.3490039,7.58097625 10.4207227,7.59206324 C10.6982813,7.63343521 11.2670508,7.76595391 11.9598633,7.94655513 C14.047793,8.4897009 17.34,9.47142462 18.6700781,9.87364892 C19.1302734,10.0118278 19.5469336,10.2201465 19.8204492,10.4728715 C19.9579102,10.5990881 20.0611523,10.7339409 20.1305273,10.879764 C20.1999023,11.0262873 20.2391016,11.1848896 20.2398047,11.3787952 C20.2394531,11.7716831 20.08125,12.1228489 19.8228516,12.3809424 C19.5660938,12.6356513 19.2174609,12.7915111 18.8283398,12.7951873 L17.5307813,12.6686789 L13.1025586,12.1024839 C12.8269922,12.0674723 12.5749219,12.2610278 12.5394141,12.5354016 C12.5038477,12.8098338 12.6989648,13.0604581 12.9741211,13.0958781 L17.4166992,13.6636487 L18.7916602,13.7978012 L18.8164453,13.7978012 C20.1575391,13.7974511 21.2445703,12.7148941 21.2452734,11.3789703 C21.245918,11.0428595 21.1712109,10.7267052 21.0387891,10.4499973 C20.8393945,10.0330682 20.5185938,9.71026171 20.1558984,9.46453901 C19.7918555,9.21817444 19.3809375,9.0426499 18.9626367,8.9157914 C18.729375,8.84535984 18.4354102,8.75654722 18.0995508,8.65606409 L20.8283203,6.99132348 C21.0052734,6.9045532 21.1863281,6.85547869 21.3780469,6.85512857 C21.7031836,6.85477845 21.9967969,6.98029484 22.21875,7.18330345 L20.870625,7.97946598 C20.6319727,8.12038745 20.5532227,8.42778882 20.6950195,8.66545885 C20.8368164,8.90312889 21.1451953,8.98190487 21.3841406,8.84074999 L24.5135156,6.99243218 C24.6914648,6.90461155 24.8735156,6.85524527 25.0659375,6.85524527 C25.4128711,6.85489516 25.7249414,6.99879261 25.9511719,7.22712623 L22.3073438,9.37922755 C22.0683398,9.52014902 21.9899414,9.82755038 22.1317383,10.0655122 C22.2735352,10.3031822 22.5819141,10.3816081 22.8208594,10.2403948 L26.7610547,7.91306075 C26.7992578,7.90670032 26.8378125,7.89736391 26.8753711,7.88131695 C26.9561133,7.84723905 27.0218555,7.79320456 27.0724219,7.72907508 L27.1954102,7.65630942 C27.3733594,7.5684888 27.5554102,7.51912252 27.7477734,7.51912252 C28.0933594,7.51947263 28.4023828,7.65770988 28.6300195,7.88335929 C28.8566016,8.11005905 28.9953516,8.41810229 28.9957617,8.76261589 C28.9940625,9.18228761 28.8009961,9.54880013 28.5113672,9.74509819 Z" id="Shape" fill="#000000" fill-rule="nonzero"></path>
                                <path d="M9.05660377,6.86783255 C9.05660377,6.37728951 9.3461189,5.73952031 9.63563402,5.44518299 C9.78039158,5.34705139 9.82862526,5.39614593 9.87691548,5.39614593 C10.1181969,5.49427754 10.7454608,5.69048326 11.034976,5.24897727 C11.2762574,4.90560289 11.034976,4.51313396 10.8902184,4.31692824 C10.648937,4.07162798 10.648937,3.58108494 10.8419847,3.33578467 C11.0832662,3.04144735 11.5175389,3.23765307 11.7587638,3.38482173 L11.8552877,3.48295333 C12.0965691,3.63012199 12.4825516,3.82632771 12.8203569,3.63012199 C13.1581057,3.38482173 13.1581057,2.89427869 13.1098721,2.40373564 C13.1098721,2.15843538 13.1098721,1.96222966 13.206396,1.86409805 C13.3511535,1.71692939 13.6406686,1.71692939 13.7854262,1.71692939 C13.9301838,1.71692939 14.123175,1.71692939 14.2679326,1.56976073 L14.4126901,1.42259207 L14.4126901,1.22638635 C14.4126901,0.539580101 14.9434867,0 15.6189843,0 C15.9084994,0 16.2462482,0.147168662 16.4875297,0.392468927 C16.4875297,0.392468927 17.0665599,0.981143573 17.5490663,0.68680625 C17.7903477,0.539637588 18.0315726,0.49060053 18.2728541,0.49060053 C18.900118,0.49060053 19.4791483,0.932106515 19.6239058,1.52078116 C19.6239058,1.56981822 19.6721395,1.76608143 19.6721395,1.96228715 L19.8651307,2.20758741 L20.058122,2.40379313 L20.1063556,2.45283019 C20.2511132,2.55096179 20.5406283,2.69813045 20.8301434,2.55096179 C21.2161825,2.40379313 21.4574074,2.45283019 21.5056976,2.50192473 C21.6022215,2.60005634 21.6022215,2.99246778 21.3127063,3.48306831 C20.9749576,3.82644269 21.1197151,4.562286 21.2644727,4.80758626 L21.5057541,5.10192358 L21.8435029,4.95475492 C22.4707668,4.70945466 22.9050395,4.80758626 23.0497971,5.00379198 C23.146321,5.1999977 23.0497971,5.54342957 22.760282,5.83776689 C22.5190005,6.03397261 22.5190005,6.32830994 22.6155244,6.5736102 L22.7120483,6.86794752 L23.0015634,6.86794752 C23.2910785,6.91698458 23.5805937,7.11324779 23.7735849,7.35849057" id="Path" stroke="#000000"></path>
                            </g>
                        </g>
                    </g>
                </g>
            </g>
        </g>
    </g>
</svg>