<?xml version="1.0" encoding="UTF-8"?>
<svg width="36px" height="36px" viewBox="0 0 36 36" version="1.1" xmlns="http://www.w3.org/2000/svg" xmlns:xlink="http://www.w3.org/1999/xlink">
    <!-- Generator: Sketch 50.2 (55047) - http://www.bohemiancoding.com/sketch -->
    <title>Hazardous</title>
    <desc>Created with Sketch.</desc>
    <defs></defs>
    <g id="Page-1" stroke="none" stroke-width="1" fill="none" fill-rule="evenodd">
        <g id="Assets" transform="translate(-766.000000, -178.000000)">
            <g id="Hazardous" transform="translate(766.000000, 178.000000)">
                <g id="Group-6">
                    <g>
                        <g id="Hazardous-point" fill="#FF548B">
                            <circle id="Oval-14" cx="18" cy="18" r="18"></circle>
                        </g>
                        <g id="Regular-trash" transform="translate(6.000000, 7.000000)">
                            <path d="M12.8477715,0.476592866 L22.8502714,16.4697426 C23.1431244,16.9379899 23.0009394,17.5549836 22.5326921,17.8478367 C22.3737029,17.9472723 22.189958,18 22.0024347,18 L1.99743501,18 C1.44515026,18 0.997435009,17.5522847 0.997435009,17 C0.997435009,16.8124767 1.05016267,16.6287317 1.14959831,16.4697426 L11.1520981,0.476592866 C11.4449512,0.00834558926 12.061945,-0.133839493 12.5301923,0.159013597 C12.6587623,0.239424395 12.7673607,0.348022814 12.8477715,0.476592866 Z" id="Triangle-3" fill="#FFFFFF"></path>
                            <g id="Exclamation-mark" transform="translate(11.000000, 5.000000)" fill="#FF548B">
                                <rect id="Rectangle-6" x="0" y="0" width="2" height="8" rx="1"></rect>
                                <circle id="Oval-5" cx="1" cy="10" r="1"></circle>
                            </g>
                        </g>
                    </g>
                </g>
            </g>
        </g>
    </g>
</svg>