<?xml version="1.0" encoding="UTF-8"?>
<svg width="12px" height="13px" viewBox="0 0 12 13" version="1.1" xmlns="http://www.w3.org/2000/svg" xmlns:xlink="http://www.w3.org/1999/xlink">
    <!-- Generator: sketchtool 46.2 (44496) - http://www.bohemiancoding.com/sketch -->
    <title>5F466030-C390-4760-9CF2-1296E61469B4</title>
    <desc>Created with sketchtool.</desc>
    <defs></defs>
    <g id="Page-1" stroke="none" stroke-width="1" fill="none" fill-rule="evenodd">
        <g id="Assets" transform="translate(-495.000000, -616.000000)" fill-rule="nonzero" fill="#3B8FE7">
            <g id="Social-media-drop" transform="translate(480.000000, 587.000000)">
                <g id="Copy-link" transform="translate(15.000000, 29.000000)">
                    <g id="Link_icon">
                        <path d="M5.05,10.05 L4.5,10.55 C3.8,11.25 2.65,11.25 2,10.55 L2,10.55 C1.3,9.85 1.3,8.7 2,8.05 L4.2,5.85 C4.9,5.15 6.05,5.15 6.7,5.85 C6.75,5.9 6.75,5.9 6.8,5.95 L7.8,4.95 L7.6,4.75 C6.5,3.65 4.7,3.65 3.6,4.75 L0.9,7.45 C-0.2,8.55 -0.2,10.35 0.9,11.45 L1.15,11.7 C2.25,12.8 4.05,12.8 5.15,11.7 L5.95,10.9 L5.05,10.05 Z" id="Shape"></path>
                        <path d="M11.15,1.55 L10.9,1.3 C9.8,0.2 8,0.2 6.9,1.3 L6.15,2.1 L7,2.95 L7.55,2.45 C8.25,1.75 9.4,1.75 10.05,2.45 C10.75,3.15 10.75,4.3 10.05,4.95 L7.85,7.15 C7.15,7.85 6,7.85 5.35,7.15 C5.3,7.1 5.25,7.05 5.2,7 L4.2,8 C4.2,8 4.28333333,8.08333333 4.45,8.25 C5.55,9.35 7.35,9.35 8.45,8.25 L11.15,5.55 C12.25,4.45 12.25,2.65 11.15,1.55 Z" id="Shape"></path>
                    </g>
                </g>
            </g>
        </g>
    </g>
</svg>