<?xml version="1.0" encoding="UTF-8"?>
<svg width="32px" height="32px" viewBox="0 0 32 32" version="1.1" xmlns="http://www.w3.org/2000/svg" xmlns:xlink="http://www.w3.org/1999/xlink">
    <!-- Generator: sketchtool 46.2 (44496) - http://www.bohemiancoding.com/sketch -->
    <title>19C29805-D77E-4866-A35C-A99B9FE9C2B0</title>
    <desc>Created with sketchtool.</desc>
    <defs>
        <rect id="path-1" x="0" y="0" width="12" height="12" rx="2"></rect>
        <filter x="-125.0%" y="-125.0%" width="350.0%" height="350.0%" filterUnits="objectBoundingBox" id="filter-2">
            <feOffset dx="0" dy="0" in="SourceAlpha" result="shadowOffsetOuter1"></feOffset>
            <feGaussianBlur stdDeviation="5" in="shadowOffsetOuter1" result="shadowBlurOuter1"></feGaussianBlur>
            <feColorMatrix values="0 0 0 0 0.696933461   0 0 0 0 0.696933461   0 0 0 0 0.696933461  0 0 0 0.5 0" type="matrix" in="shadowBlurOuter1"></feColorMatrix>
        </filter>
    </defs>
    <g id="Page-1" stroke="none" stroke-width="1" fill="none" fill-rule="evenodd">
        <g id="Assets" transform="translate(-486.000000, -695.000000)">
            <g id="Social-media-drop" transform="translate(480.000000, 587.000000)">
                <g id="Messenger_color_icon" transform="translate(16.000000, 118.000000)">
                    <g id="Rectangle-11">
                        <use fill="black" fill-opacity="1" filter="url(#filter-2)" xlink:href="#path-1"></use>
                        <use fill="#FFFFFF" fill-rule="evenodd" xlink:href="#path-1"></use>
                    </g>
                    <g id="facebook-messenger" transform="translate(1.548387, 1.548387)">
                        <rect id="Rectangle-path" x="0" y="0" width="8.98759305" height="8.98759305"></rect>
                        <path d="M4.94036756,5.60334297 L3.79599418,4.38285592 L1.56306882,5.60334297 L4.0192797,2.99581754 L5.19159887,4.21637481 L7.39664865,2.99581754 L4.94036756,5.60334297 Z M4.49379653,0 C2.01195696,0 0,1.86288931 0,4.16090451 C0,5.47035468 0.653496317,6.63832049 1.67471158,7.40107223 L1.67471158,8.98759305 L3.20477908,8.14781483 C3.61315284,8.26079168 4.04575097,8.32180901 4.49379653,8.32180901 C6.97563609,8.32180901 8.98759305,6.4589197 8.98759305,4.16090451 C8.98759305,1.86288931 6.97563609,0 4.49379653,0 Z" id="Facebook_Messenger" fill="#007FFF"></path>
                    </g>
                </g>
            </g>
        </g>
    </g>
</svg>