<?xml version="1.0" encoding="UTF-8"?>
<svg width="36px" height="39px" viewBox="0 0 36 39" version="1.1" xmlns="http://www.w3.org/2000/svg" xmlns:xlink="http://www.w3.org/1999/xlink">
    <!-- Generator: sketchtool 46.2 (44496) - http://www.bohemiancoding.com/sketch -->
    <title>B2848E1D-A1EF-4D45-92DD-54FBC17C0319</title>
    <desc>Created with sketchtool.</desc>
    <defs></defs>
    <g id="Page-1" stroke="none" stroke-width="1" fill="none" fill-rule="evenodd">
        <g id="Assets" transform="translate(-537.000000, -872.000000)">
            <g id="Population_icon" transform="translate(537.000000, 872.000000)">
                <circle id="Oval-10" fill="#FFF13D" cx="26" cy="29" r="10"></circle>
                <path d="M19.125,29 L17.875,29 C16.84125,29 16,29.673 16,30.5 C16,31.327 16.84125,32 17.875,32 L19.125,32 C20.15875,32 21,31.327 21,30.5 C21,29.673 20.15875,29 19.125,29 Z M19.125,31 L17.875,31 C17.530625,31 17.25,30.776 17.25,30.5 C17.25,30.224 17.530625,30 17.875,30 L19.125,30 C19.469375,30 19.75,30.224 19.75,30.5 C19.75,30.776 19.469375,31 19.125,31 Z" id="Shape" fill="#FFF13D" fill-rule="nonzero"></path>
                <path d="M30.6912,24.609375 L30.7,24.609375 L30.7,15.3125 L32.35,15.3125 C32.6536,15.3125 32.9,15.0680469 32.9,14.765625 L32.9,10.9375 C32.9,9.42976562 31.66635,8.203125 30.15,8.203125 L29.853,8.203125 C30.3777,7.62179687 30.7,6.85671875 30.7,6.015625 C30.7,4.20601562 29.21995,2.734375 27.4,2.734375 C25.58005,2.734375 24.1,4.20601562 24.1,6.015625 C24.1,6.85671875 24.4223,7.62179687 24.947,8.203125 L24.65,8.203125 C24.0285,8.203125 23.4609,8.41695312 23,8.76421875 L23,8.203125 C23,6.69539062 21.76635,5.46875 20.25,5.46875 L19.953,5.46875 C20.4777,4.88742187 20.8,4.12234375 20.8,3.28125 C20.8,1.47164062 19.31995,0 17.5,0 C15.68005,0 14.2,1.47164062 14.2,3.28125 C14.2,4.12234375 14.5223,4.88742187 15.047,5.46875 L14.75,5.46875 C13.23365,5.46875 12,6.69539062 12,8.203125 L12,8.76421875 C11.5391,8.41695312 10.9715,8.203125 10.35,8.203125 L10.053,8.203125 C10.5777,7.62179687 10.9,6.85671875 10.9,6.015625 C10.9,4.20601562 9.41995,2.734375 7.6,2.734375 C5.78005,2.734375 4.3,4.20601562 4.3,6.015625 C4.3,6.85671875 4.6223,7.62179687 5.147,8.203125 L4.85,8.203125 C3.33365,8.203125 2.1,9.42976562 2.1,10.9375 L2.1,14.765625 C2.1,15.0680469 2.3464,15.3125 2.65,15.3125 L4.3,15.3125 L4.3,24.609375 L4.3088,24.609375 C2.23255,27.3535937 1,30.7628125 1,34.453125 C1,34.7555469 1.2464,35 1.55,35 L8.15,35 L33.45,35 C33.7536,35 34,34.7555469 34,34.453125 C34,30.7628125 32.76745,27.3535937 30.6912,24.609375 Z M32.53975,31.171875 L25.2,31.171875 C24.89695,31.171875 24.65,30.926875 24.65,30.625 C24.65,30.323125 24.89695,30.078125 25.2,30.078125 L26.3,30.078125 C27.2097,30.078125 27.95,29.3420313 27.95,28.4375 C27.95,27.5329688 27.2097,26.796875 26.3,26.796875 L20.8,26.796875 C20.49695,26.796875 20.25,26.551875 20.25,26.25 C20.25,25.948125 20.49695,25.703125 20.8,25.703125 L21.9,25.703125 C22.8097,25.703125 23.55,24.9670313 23.55,24.0625 C23.55,23.1579688 22.8097,22.421875 21.9,22.421875 L19.15,22.421875 C18.84695,22.421875 18.6,22.176875 18.6,21.875 C18.6,21.573125 18.84695,21.328125 19.15,21.328125 L25.4211,21.328125 C28.9917,23.4664063 31.6207,27.0041406 32.53975,31.171875 Z M27.4,3.828125 C28.6133,3.828125 29.6,4.80921875 29.6,6.015625 C29.6,7.22203125 28.6133,8.203125 27.4,8.203125 C26.1867,8.203125 25.2,7.22203125 25.2,6.015625 C25.2,4.80921875 26.1867,3.828125 27.4,3.828125 Z M23,12.03125 L23,10.9375 C23,10.0329688 23.7403,9.296875 24.65,9.296875 L30.15,9.296875 C31.0597,9.296875 31.8,10.0329688 31.8,10.9375 L31.8,14.21875 L30.7,14.21875 L30.7,10.9375 L29.6,10.9375 L29.6,23.314375 C29.08575,22.7625781 28.5352,22.2446875 27.95,21.7667188 L27.95,15.3125 L26.85,15.3125 L26.85,20.9453125 C26.4936,20.7003125 26.1262,20.470625 25.75,20.2540625 L25.75,20.234375 L25.71535,20.234375 C25.54485,20.1364844 25.3738,20.0407813 25.2,19.9489063 L25.2,10.9375 L24.1,10.9375 L24.1,14.21875 L23,14.21875 L23,12.03125 Z M22.45,15.3125 L24.1,15.3125 L24.1,19.420625 C23.0517,18.9634375 21.94785,18.6096094 20.8,18.3766406 L20.8,12.578125 L21.9,12.578125 L21.9,14.765625 C21.9,15.0680469 22.1464,15.3125 22.45,15.3125 Z M17.5,1.09375 C18.7133,1.09375 19.7,2.07484375 19.7,3.28125 C19.7,4.48765625 18.7133,5.46875 17.5,5.46875 C16.2867,5.46875 15.3,4.48765625 15.3,3.28125 C15.3,2.07484375 16.2867,1.09375 17.5,1.09375 Z M13.1,10.9375 L13.1,8.203125 C13.1,7.29859375 13.8403,6.5625 14.75,6.5625 L20.25,6.5625 C21.1597,6.5625 21.9,7.29859375 21.9,8.203125 L21.9,10.9375 L21.9,11.484375 L20.8,11.484375 L20.8,8.203125 L19.7,8.203125 L19.7,18.195625 C19.68515,18.1934375 19.66975,18.1928906 19.6549,18.19125 C19.3381,18.1496875 19.018,18.1174219 18.6957,18.0944531 C18.64345,18.090625 18.5912,18.0857031 18.53895,18.0824219 C18.3767,18.0725781 18.2139,18.0660156 18.05,18.0605469 L18.05,12.578125 L16.95,12.578125 L16.95,18.0605469 C16.78665,18.0660156 16.6233,18.0725781 16.46105,18.0824219 C16.4088,18.0857031 16.35655,18.090625 16.3043,18.0944531 C15.982,18.1174219 15.6619,18.1496875 15.3451,18.19125 C15.33025,18.1934375 15.31485,18.1939844 15.3,18.195625 L15.3,8.203125 L14.2,8.203125 L14.2,11.484375 L13.1,11.484375 L13.1,10.9375 Z M12.55,15.3125 C12.8536,15.3125 13.1,15.0680469 13.1,14.765625 L13.1,12.578125 L14.2,12.578125 L14.2,18.3771875 C13.05215,18.6096094 11.9483,18.9639844 10.9,19.420625 L10.9,15.3125 L12.55,15.3125 Z M7.6,3.828125 C8.8133,3.828125 9.8,4.80921875 9.8,6.015625 C9.8,7.22203125 8.8133,8.203125 7.6,8.203125 C6.3867,8.203125 5.4,7.22203125 5.4,6.015625 C5.4,4.80921875 6.3867,3.828125 7.6,3.828125 Z M4.3,10.9375 L4.3,14.21875 L3.2,14.21875 L3.2,10.9375 C3.2,10.0329688 3.9403,9.296875 4.85,9.296875 L10.35,9.296875 C11.2597,9.296875 12,10.0329688 12,10.9375 L12,12.03125 L12,14.21875 L10.9,14.21875 L10.9,10.9375 L9.8,10.9375 L9.8,19.9489062 C9.2291,20.2496875 8.67855,20.5821875 8.15,20.9453125 L8.15,15.3125 L7.05,15.3125 L7.05,21.7672656 C6.4648,22.2446875 5.91425,22.7625781 5.4,23.3149219 L5.4,10.9375 L4.3,10.9375 Z M8.15,33.90625 L2.1099,33.90625 C2.24465,30.1136719 3.77475,26.6694531 6.20135,24.0625 L10.9319,24.0614063 C11.2179,24.0614063 11.45,24.2921875 11.45,24.6039062 C11.45,24.7526562 11.3928,24.8921094 11.2883,24.9965625 C11.18545,25.099375 11.04795,25.15625 10.9011,25.15625 C10.9011,25.15625 10.9011,25.15625 10.90055,25.15625 L9.7989,25.15625 C8.88975,25.15625 8.15,25.8923437 8.15,26.796875 C8.15,27.7014062 8.8903,28.4375 9.8,28.4375 L15.3,28.4375 C15.60305,28.4375 15.85,28.6825 15.85,28.984375 C15.85,29.28625 15.6047,29.53125 15.30275,29.53125 L6.4967,29.53125 C5.58865,29.53125 4.85,30.2673437 4.85,31.171875 C4.85,32.0764062 5.5903,32.8125 6.5,32.8125 L8.15,32.8125 C8.45305,32.8125 8.7,33.0575 8.7,33.359375 C8.7,33.66125 8.45305,33.90625 8.15,33.90625 Z M9.69900625,33.9057031 C9.76046875,33.7341211 9.8,33.5516699 9.8,33.359375 C9.8,32.4548437 9.0597,31.71875 8.15,31.71875 L6.5,31.71875 C6.19695,31.71875 5.95,31.47375 5.95,31.171875 C5.95,30.87 6.1953,30.625 6.4967,30.625 L15.30275,30.625 C16.21135,30.625 16.95,29.8889062 16.95,28.984375 C16.95,28.0798437 16.2097,27.34375 15.3,27.34375 L9.8,27.34375 C9.49695,27.34375 9.25,27.09875 9.25,26.796875 C9.25,26.495 9.4964,26.25 9.7989,26.25 L10.9,26.25 C10.90055,26.25 10.9011,26.25 10.90165,26.25 C11.34275,26.25 11.7569,26.079375 12.0682,25.7682031 C12.3784,25.458125 12.55,25.0446875 12.55,24.5760156 C12.55,23.6889844 11.824,22.9676563 10.9319,22.9676563 L7.325,22.9682031 C9.41335,21.1367188 12.0044,19.8625 14.8622,19.3697656 C15.29395,19.2959375 15.72405,19.2396094 16.15305,19.201875 C16.17395,19.2002344 16.19485,19.1991406 16.2152,19.1975 C17.0732,19.1253125 17.92735,19.1253125 18.7848,19.1975 C18.8057,19.1991406 18.8266,19.2002344 18.84695,19.201875 C19.27595,19.2396094 19.70605,19.2959375 20.1378,19.3697656 C21.20205,19.5535156 22.23,19.8444531 23.2079,20.2338281 L19.15,20.2338281 C18.2403,20.2338281 17.5,20.9699219 17.5,21.8744531 C17.5,22.7789844 18.2403,23.5150781 19.15,23.5150781 L21.9,23.5150781 C22.20305,23.5150781 22.45,23.7600781 22.45,24.0619531 C22.45,24.3638281 22.20305,24.6088281 21.9,24.6088281 L20.8,24.6088281 C19.8903,24.6088281 19.15,25.3449219 19.15,26.2494531 C19.15,27.1539844 19.8903,27.8900781 20.8,27.8900781 L26.3,27.8900781 C26.60305,27.8900781 26.85,28.1350781 26.85,28.4369531 C26.85,28.7388281 26.60305,28.9838281 26.3,28.9838281 L25.2,28.9838281 C24.2903,28.9838281 23.55,29.7199219 23.55,30.6244531 C23.55,31.5289844 24.2903,32.2650781 25.2,32.2650781 L32.7405,32.2650781 C32.8186,32.80375 32.8703,33.350625 32.8901,33.9057031 L9.69900625,33.9057031 Z" id="Shape" fill="#FFF13D" fill-rule="nonzero"></path>
                <g id="Popolation-icon"></g>
                <path d="M20.125,30 L18.875,30 C17.84125,30 17,30.673 17,31.5 C17,32.327 17.84125,33 18.875,33 L20.125,33 C21.15875,33 22,32.327 22,31.5 C22,30.673 21.15875,30 20.125,30 Z M20.125,32 L18.875,32 C18.530625,32 18.25,31.776 18.25,31.5 C18.25,31.224 18.530625,31 18.875,31 L20.125,31 C20.469375,31 20.75,31.224 20.75,31.5 C20.75,31.776 20.469375,32 20.125,32 Z" id="Shape" fill="#313131" fill-rule="nonzero"></path>
                <path d="M29.6912,24.609375 L29.7,24.609375 L29.7,15.3125 L31.35,15.3125 C31.6536,15.3125 31.9,15.0680469 31.9,14.765625 L31.9,10.9375 C31.9,9.42976562 30.66635,8.203125 29.15,8.203125 L28.853,8.203125 C29.3777,7.62179687 29.7,6.85671875 29.7,6.015625 C29.7,4.20601562 28.21995,2.734375 26.4,2.734375 C24.58005,2.734375 23.1,4.20601562 23.1,6.015625 C23.1,6.85671875 23.4223,7.62179687 23.947,8.203125 L23.65,8.203125 C23.0285,8.203125 22.4609,8.41695312 22,8.76421875 L22,8.203125 C22,6.69539062 20.76635,5.46875 19.25,5.46875 L18.953,5.46875 C19.4777,4.88742187 19.8,4.12234375 19.8,3.28125 C19.8,1.47164062 18.31995,0 16.5,0 C14.68005,0 13.2,1.47164062 13.2,3.28125 C13.2,4.12234375 13.5223,4.88742187 14.047,5.46875 L13.75,5.46875 C12.23365,5.46875 11,6.69539062 11,8.203125 L11,8.76421875 C10.5391,8.41695312 9.9715,8.203125 9.35,8.203125 L9.053,8.203125 C9.5777,7.62179687 9.9,6.85671875 9.9,6.015625 C9.9,4.20601562 8.41995,2.734375 6.6,2.734375 C4.78005,2.734375 3.3,4.20601562 3.3,6.015625 C3.3,6.85671875 3.6223,7.62179687 4.147,8.203125 L3.85,8.203125 C2.33365,8.203125 1.1,9.42976562 1.1,10.9375 L1.1,14.765625 C1.1,15.0680469 1.3464,15.3125 1.65,15.3125 L3.3,15.3125 L3.3,24.609375 L3.3088,24.609375 C1.23255,27.3535937 0,30.7628125 0,34.453125 C0,34.7555469 0.2464,35 0.55,35 L7.15,35 L32.45,35 C32.7536,35 33,34.7555469 33,34.453125 C33,30.7628125 31.76745,27.3535937 29.6912,24.609375 Z M31.53975,31.171875 L24.2,31.171875 C23.89695,31.171875 23.65,30.926875 23.65,30.625 C23.65,30.323125 23.89695,30.078125 24.2,30.078125 L25.3,30.078125 C26.2097,30.078125 26.95,29.3420313 26.95,28.4375 C26.95,27.5329688 26.2097,26.796875 25.3,26.796875 L19.8,26.796875 C19.49695,26.796875 19.25,26.551875 19.25,26.25 C19.25,25.948125 19.49695,25.703125 19.8,25.703125 L20.9,25.703125 C21.8097,25.703125 22.55,24.9670313 22.55,24.0625 C22.55,23.1579688 21.8097,22.421875 20.9,22.421875 L18.15,22.421875 C17.84695,22.421875 17.6,22.176875 17.6,21.875 C17.6,21.573125 17.84695,21.328125 18.15,21.328125 L24.4211,21.328125 C27.9917,23.4664063 30.6207,27.0041406 31.53975,31.171875 Z M26.4,3.828125 C27.6133,3.828125 28.6,4.80921875 28.6,6.015625 C28.6,7.22203125 27.6133,8.203125 26.4,8.203125 C25.1867,8.203125 24.2,7.22203125 24.2,6.015625 C24.2,4.80921875 25.1867,3.828125 26.4,3.828125 Z M22,12.03125 L22,10.9375 C22,10.0329688 22.7403,9.296875 23.65,9.296875 L29.15,9.296875 C30.0597,9.296875 30.8,10.0329688 30.8,10.9375 L30.8,14.21875 L29.7,14.21875 L29.7,10.9375 L28.6,10.9375 L28.6,23.314375 C28.08575,22.7625781 27.5352,22.2446875 26.95,21.7667188 L26.95,15.3125 L25.85,15.3125 L25.85,20.9453125 C25.4936,20.7003125 25.1262,20.470625 24.75,20.2540625 L24.75,20.234375 L24.71535,20.234375 C24.54485,20.1364844 24.3738,20.0407813 24.2,19.9489063 L24.2,10.9375 L23.1,10.9375 L23.1,14.21875 L22,14.21875 L22,12.03125 Z M21.45,15.3125 L23.1,15.3125 L23.1,19.420625 C22.0517,18.9634375 20.94785,18.6096094 19.8,18.3766406 L19.8,12.578125 L20.9,12.578125 L20.9,14.765625 C20.9,15.0680469 21.1464,15.3125 21.45,15.3125 Z M16.5,1.09375 C17.7133,1.09375 18.7,2.07484375 18.7,3.28125 C18.7,4.48765625 17.7133,5.46875 16.5,5.46875 C15.2867,5.46875 14.3,4.48765625 14.3,3.28125 C14.3,2.07484375 15.2867,1.09375 16.5,1.09375 Z M12.1,10.9375 L12.1,8.203125 C12.1,7.29859375 12.8403,6.5625 13.75,6.5625 L19.25,6.5625 C20.1597,6.5625 20.9,7.29859375 20.9,8.203125 L20.9,10.9375 L20.9,11.484375 L19.8,11.484375 L19.8,8.203125 L18.7,8.203125 L18.7,18.195625 C18.68515,18.1934375 18.66975,18.1928906 18.6549,18.19125 C18.3381,18.1496875 18.018,18.1174219 17.6957,18.0944531 C17.64345,18.090625 17.5912,18.0857031 17.53895,18.0824219 C17.3767,18.0725781 17.2139,18.0660156 17.05,18.0605469 L17.05,12.578125 L15.95,12.578125 L15.95,18.0605469 C15.78665,18.0660156 15.6233,18.0725781 15.46105,18.0824219 C15.4088,18.0857031 15.35655,18.090625 15.3043,18.0944531 C14.982,18.1174219 14.6619,18.1496875 14.3451,18.19125 C14.33025,18.1934375 14.31485,18.1939844 14.3,18.195625 L14.3,8.203125 L13.2,8.203125 L13.2,11.484375 L12.1,11.484375 L12.1,10.9375 Z M11.55,15.3125 C11.8536,15.3125 12.1,15.0680469 12.1,14.765625 L12.1,12.578125 L13.2,12.578125 L13.2,18.3771875 C12.05215,18.6096094 10.9483,18.9639844 9.9,19.420625 L9.9,15.3125 L11.55,15.3125 Z M6.6,3.828125 C7.8133,3.828125 8.8,4.80921875 8.8,6.015625 C8.8,7.22203125 7.8133,8.203125 6.6,8.203125 C5.3867,8.203125 4.4,7.22203125 4.4,6.015625 C4.4,4.80921875 5.3867,3.828125 6.6,3.828125 Z M3.3,10.9375 L3.3,14.21875 L2.2,14.21875 L2.2,10.9375 C2.2,10.0329688 2.9403,9.296875 3.85,9.296875 L9.35,9.296875 C10.2597,9.296875 11,10.0329688 11,10.9375 L11,12.03125 L11,14.21875 L9.9,14.21875 L9.9,10.9375 L8.8,10.9375 L8.8,19.9489062 C8.2291,20.2496875 7.67855,20.5821875 7.15,20.9453125 L7.15,15.3125 L6.05,15.3125 L6.05,21.7672656 C5.4648,22.2446875 4.91425,22.7625781 4.4,23.3149219 L4.4,10.9375 L3.3,10.9375 Z M7.15,33.90625 L1.1099,33.90625 C1.24465,30.1136719 2.77475,26.6694531 5.20135,24.0625 L9.9319,24.0614063 C10.2179,24.0614063 10.45,24.2921875 10.45,24.6039062 C10.45,24.7526562 10.3928,24.8921094 10.2883,24.9965625 C10.18545,25.099375 10.04795,25.15625 9.9011,25.15625 C9.9011,25.15625 9.9011,25.15625 9.90055,25.15625 L8.7989,25.15625 C7.88975,25.15625 7.15,25.8923437 7.15,26.796875 C7.15,27.7014062 7.8903,28.4375 8.8,28.4375 L14.3,28.4375 C14.60305,28.4375 14.85,28.6825 14.85,28.984375 C14.85,29.28625 14.6047,29.53125 14.30275,29.53125 L5.4967,29.53125 C4.58865,29.53125 3.85,30.2673437 3.85,31.171875 C3.85,32.0764062 4.5903,32.8125 5.5,32.8125 L7.15,32.8125 C7.45305,32.8125 7.7,33.0575 7.7,33.359375 C7.7,33.66125 7.45305,33.90625 7.15,33.90625 Z M8.69900625,33.9057031 C8.76046875,33.7341211 8.8,33.5516699 8.8,33.359375 C8.8,32.4548437 8.0597,31.71875 7.15,31.71875 L5.5,31.71875 C5.19695,31.71875 4.95,31.47375 4.95,31.171875 C4.95,30.87 5.1953,30.625 5.4967,30.625 L14.30275,30.625 C15.21135,30.625 15.95,29.8889062 15.95,28.984375 C15.95,28.0798437 15.2097,27.34375 14.3,27.34375 L8.8,27.34375 C8.49695,27.34375 8.25,27.09875 8.25,26.796875 C8.25,26.495 8.4964,26.25 8.7989,26.25 L9.9,26.25 C9.90055,26.25 9.9011,26.25 9.90165,26.25 C10.34275,26.25 10.7569,26.079375 11.0682,25.7682031 C11.3784,25.458125 11.55,25.0446875 11.55,24.5760156 C11.55,23.6889844 10.824,22.9676563 9.9319,22.9676563 L6.325,22.9682031 C8.41335,21.1367188 11.0044,19.8625 13.8622,19.3697656 C14.29395,19.2959375 14.72405,19.2396094 15.15305,19.201875 C15.17395,19.2002344 15.19485,19.1991406 15.2152,19.1975 C16.0732,19.1253125 16.92735,19.1253125 17.7848,19.1975 C17.8057,19.1991406 17.8266,19.2002344 17.84695,19.201875 C18.27595,19.2396094 18.70605,19.2959375 19.1378,19.3697656 C20.20205,19.5535156 21.23,19.8444531 22.2079,20.2338281 L18.15,20.2338281 C17.2403,20.2338281 16.5,20.9699219 16.5,21.8744531 C16.5,22.7789844 17.2403,23.5150781 18.15,23.5150781 L20.9,23.5150781 C21.20305,23.5150781 21.45,23.7600781 21.45,24.0619531 C21.45,24.3638281 21.20305,24.6088281 20.9,24.6088281 L19.8,24.6088281 C18.8903,24.6088281 18.15,25.3449219 18.15,26.2494531 C18.15,27.1539844 18.8903,27.8900781 19.8,27.8900781 L25.3,27.8900781 C25.60305,27.8900781 25.85,28.1350781 25.85,28.4369531 C25.85,28.7388281 25.60305,28.9838281 25.3,28.9838281 L24.2,28.9838281 C23.2903,28.9838281 22.55,29.7199219 22.55,30.6244531 C22.55,31.5289844 23.2903,32.2650781 24.2,32.2650781 L31.7405,32.2650781 C31.8186,32.80375 31.8703,33.350625 31.8901,33.9057031 L8.69900625,33.9057031 Z" id="Shape" fill="#313131" fill-rule="nonzero"></path>
            </g>
        </g>
    </g>
</svg>