<?xml version="1.0" encoding="UTF-8"?>
<svg width="34px" height="39px" viewBox="0 0 34 39" version="1.1" xmlns="http://www.w3.org/2000/svg" xmlns:xlink="http://www.w3.org/1999/xlink">
    <!-- Generator: sketchtool 46.2 (44496) - http://www.bohemiancoding.com/sketch -->
    <title>17011AE5-4210-4489-9202-2F53740AE62D</title>
    <desc>Created with sketchtool.</desc>
    <defs></defs>
    <g id="Page-1" stroke="none" stroke-width="1" fill="none" fill-rule="evenodd">
        <g id="Assets" transform="translate(-474.000000, -871.000000)">
            <g id="Report_icon" transform="translate(474.000000, 871.000000)">
                <g id="Report-icon">
                    <circle id="Oval-10" fill="#FFF13D" cx="22" cy="29" r="10"></circle>
                    <rect id="Rectangle-path" fill="#000000" fill-rule="nonzero" x="8" y="26" width="2" height="1"></rect>
                    <rect id="Rectangle-path" fill="#000000" fill-rule="nonzero" x="8" y="28" width="3" height="1"></rect>
                    <path d="M33.3815026,30.3995822 L25.7501931,22.7674303 L25.7501931,5.81252119 C25.7501931,4.67344118 24.826766,3.75002132 23.687677,3.75002132 L9.86869028,3.75002132 C9.55016045,2.18097454 8.16305393,1 6.50002142,1 C4.83698892,1 3.44994685,2.18097454 3.13141702,3.75002132 L3.06251609,3.75002132 C1.92342713,3.75002132 1,4.67344118 1,5.81252119 L1,31.9374981 C1,33.0765781 1.92342713,33.999998 3.06251609,33.999998 L23.687677,33.999998 C24.826766,33.999998 25.7501931,33.0765781 25.7501931,31.9374981 L25.7501931,28.7322444 L30.3998133,33.381248 C30.7947852,33.7780214 31.3318128,34.0007714 31.8917215,33.999998 C32.4513079,33.9999335 32.9878843,33.7774414 33.3833073,33.3815058 C34.2062512,32.5576016 34.2054778,31.2225196 33.3815026,30.3995822 Z M6.50002142,2.37497843 C7.39798936,2.37497843 8.16150704,2.94899793 8.44471628,3.74995686 L4.55539102,3.74995686 C4.8385358,2.94899793 5.60205348,2.37497843 6.50002142,2.37497843 Z M24.3752038,31.9374981 C24.3752038,32.3171915 24.0673733,32.6250196 23.687677,32.6250196 L3.06251609,32.6250196 C2.68281977,32.6250196 2.37498924,32.3171915 2.37498924,31.9374981 L2.37498924,5.81252119 C2.37498924,5.43282786 2.68281977,5.12499975 3.06251609,5.12499975 L8.56253751,5.12499975 L8.56253751,12.6874778 C8.56253751,13.0671711 8.25470698,13.3749992 7.87501066,13.3749992 C7.49531434,13.3749992 7.18748382,13.0671711 7.18748382,12.6874778 L7.18748382,6.49997818 L5.81255903,6.49997818 L5.81255903,12.6874778 C5.81255903,13.8265578 6.73598615,14.7499777 7.87507512,14.7499777 C9.01416408,14.7499777 9.93759121,13.8265578 9.93759121,12.6874778 L9.93759121,5.12499975 L23.687677,5.12499975 C24.0673733,5.12499975 24.3752038,5.43282786 24.3752038,5.81252119 L24.3752038,21.392323 L22.3126877,19.3295653 L22.3126877,7.18749962 C22.3126877,6.80780629 22.0048572,6.49997818 21.6251609,6.49997818 L11.3125804,6.49997818 L11.3125804,7.87495661 L20.937634,7.87495661 L20.937634,18.1045693 L17.1199168,16.1999795 C16.9261047,16.1028487 16.69781,16.1028487 16.5039979,16.1999795 C16.4671304,16.2184131 16.4331634,16.2402627 16.4011944,16.2640459 L16.4000987,16.2625635 L14.4489584,17.724167 L13.3489284,13.8741887 C13.3168305,13.7615891 13.2565663,13.6590442 13.1737434,13.5762863 C12.9051651,13.3078391 12.4699098,13.307968 12.2014604,13.5764797 L10.3404264,15.4374991 L5.12503218,15.4374991 C4.74533586,15.4374991 4.43750533,15.7453272 4.43750533,16.1250206 L4.43750533,30.5625197 C4.43750533,30.942213 4.74533586,31.2500411 5.12503218,31.2500411 L21.6251609,31.2500411 C22.0048572,31.2500411 22.3126877,30.942213 22.3126877,30.5625197 L22.3126877,25.2951528 L24.3752038,27.3573949 L24.3752038,31.9374981 Z M19.011244,19.6732293 L18.3485318,18.34904 L19.6731183,19.0113602 L19.011244,19.6732293 Z M20.937634,23.9202388 L20.937634,29.8749982 L5.81255903,29.8749982 L5.81255903,16.8124776 L10.6251181,16.8124776 C10.8070062,16.8126065 10.9815466,16.7406768 11.1105183,16.6124151 L12.348028,15.3749151 L13.4012647,19.0633739 C13.4243391,19.144327 13.4620445,19.2204462 13.5125761,19.2877352 C13.7404842,19.5914383 14.1714211,19.6528621 14.4751266,19.4249559 L16.5648421,17.8577138 L18.2075717,21.1437273 L18.209312,21.1428894 C18.2414099,21.2066335 18.283627,21.2665105 18.3368013,21.3197488 L20.937634,23.9202388 Z M19.7950001,20.8337078 L20.8337993,19.7949168 L29.915831,28.8768128 L28.8770319,29.9156037 L19.7950001,20.8337078 Z M32.4107665,32.4105196 C32.1238834,32.6974004 31.658786,32.6974004 31.3719674,32.4105196 L29.8493149,30.887879 L30.888114,29.8490881 L32.4107021,31.3716642 C32.6976496,31.658545 32.6976496,32.1236387 32.4107665,32.4105196 Z" id="Shape" fill="#FFF13D" fill-rule="nonzero"></path>
                    <g id="Report_icon" fill-rule="nonzero">
                        <rect id="Rectangle-path" fill="#000000" x="6" y="24" width="2" height="1"></rect>
                        <rect id="Rectangle-path" fill="#000000" x="6" y="26" width="3" height="1"></rect>
                        <path d="M32.3815026,29.3995822 L24.7501931,21.7674303 L24.7501931,4.81252119 C24.7501931,3.67344118 23.826766,2.75002132 22.687677,2.75002132 L8.86869028,2.75002132 C8.55016045,1.18097454 7.16305393,0 5.50002142,0 C3.83698892,0 2.44994685,1.18097454 2.13141702,2.75002132 L2.06251609,2.75002132 C0.923427126,2.75002132 0,3.67344118 0,4.81252119 L0,30.9374981 C0,32.0765781 0.923427126,32.999998 2.06251609,32.999998 L22.687677,32.999998 C23.826766,32.999998 24.7501931,32.0765781 24.7501931,30.9374981 L24.7501931,27.7322444 L29.3998133,32.381248 C29.7947852,32.7780214 30.3318128,33.0007714 30.8917215,32.999998 C31.4513079,32.9999335 31.9878843,32.7774414 32.3833073,32.3815058 C33.2062512,31.5576016 33.2054778,30.2225196 32.3815026,29.3995822 Z M5.50002142,1.37497843 C6.39798936,1.37497843 7.16150704,1.94899793 7.44471628,2.74995686 L3.55539102,2.74995686 C3.8385358,1.94899793 4.60205348,1.37497843 5.50002142,1.37497843 Z M23.3752038,30.9374981 C23.3752038,31.3171915 23.0673733,31.6250196 22.687677,31.6250196 L2.06251609,31.6250196 C1.68281977,31.6250196 1.37498924,31.3171915 1.37498924,30.9374981 L1.37498924,4.81252119 C1.37498924,4.43282786 1.68281977,4.12499975 2.06251609,4.12499975 L7.56253751,4.12499975 L7.56253751,11.6874778 C7.56253751,12.0671711 7.25470698,12.3749992 6.87501066,12.3749992 C6.49531434,12.3749992 6.18748382,12.0671711 6.18748382,11.6874778 L6.18748382,5.49997818 L4.81255903,5.49997818 L4.81255903,11.6874778 C4.81255903,12.8265578 5.73598615,13.7499777 6.87507512,13.7499777 C8.01416408,13.7499777 8.93759121,12.8265578 8.93759121,11.6874778 L8.93759121,4.12499975 L22.687677,4.12499975 C23.0673733,4.12499975 23.3752038,4.43282786 23.3752038,4.81252119 L23.3752038,20.392323 L21.3126877,18.3295653 L21.3126877,6.18749962 C21.3126877,5.80780629 21.0048572,5.49997818 20.6251609,5.49997818 L10.3125804,5.49997818 L10.3125804,6.87495661 L19.937634,6.87495661 L19.937634,17.1045693 L16.1199168,15.1999795 C15.9261047,15.1028487 15.69781,15.1028487 15.5039979,15.1999795 C15.4671304,15.2184131 15.4331634,15.2402627 15.4011944,15.2640459 L15.4000987,15.2625635 L13.4489584,16.724167 L12.3489284,12.8741887 C12.3168305,12.7615891 12.2565663,12.6590442 12.1737434,12.5762863 C11.9051651,12.3078391 11.4699098,12.307968 11.2014604,12.5764797 L9.34042638,14.4374991 L4.12503218,14.4374991 C3.74533586,14.4374991 3.43750533,14.7453272 3.43750533,15.1250206 L3.43750533,29.5625197 C3.43750533,29.942213 3.74533586,30.2500411 4.12503218,30.2500411 L20.6251609,30.2500411 C21.0048572,30.2500411 21.3126877,29.942213 21.3126877,29.5625197 L21.3126877,24.2951528 L23.3752038,26.3573949 L23.3752038,30.9374981 Z M18.011244,18.6732293 L17.3485318,17.34904 L18.6731183,18.0113602 L18.011244,18.6732293 Z M19.937634,22.9202388 L19.937634,28.8749982 L4.81255903,28.8749982 L4.81255903,15.8124776 L9.62511805,15.8124776 C9.80700619,15.8126065 9.98154662,15.7406768 10.1105183,15.6124151 L11.348028,14.3749151 L12.4012647,18.0633739 C12.4243391,18.144327 12.4620445,18.2204462 12.5125761,18.2877352 C12.7404842,18.5914383 13.1714211,18.6528621 13.4751266,18.4249559 L15.5648421,16.8577138 L17.2075717,20.1437273 L17.209312,20.1428894 C17.2414099,20.2066335 17.283627,20.2665105 17.3368013,20.3197488 L19.937634,22.9202388 Z M18.7950001,19.8337078 L19.8337993,18.7949168 L28.915831,27.8768128 L27.8770319,28.9156037 L18.7950001,19.8337078 Z M31.4107665,31.4105196 C31.1238834,31.6974004 30.658786,31.6974004 30.3719674,31.4105196 L28.8493149,29.887879 L29.888114,28.8490881 L31.4107021,30.3716642 C31.6976496,30.658545 31.6976496,31.1236387 31.4107665,31.4105196 Z" id="Shape" fill="#313131"></path>
                    </g>
                </g>
            </g>
        </g>
    </g>
</svg>