<?xml version="1.0" encoding="UTF-8"?>
<svg width="30px" height="24px" viewBox="0 0 30 24" version="1.1" xmlns="http://www.w3.org/2000/svg" xmlns:xlink="http://www.w3.org/1999/xlink">
    <!-- Generator: Sketch 50.2 (55047) - http://www.bohemiancoding.com/sketch -->
    <title>Trashtruck_icon</title>
    <desc>Created with Sketch.</desc>
    <defs></defs>
    <g id="Page-1" stroke="none" stroke-width="1" fill="none" fill-rule="evenodd">
        <g id="Assets" transform="translate(-734.000000, -975.000000)" fill="#000000" fill-rule="nonzero">
            <g id="Trash-scale" transform="translate(474.000000, 972.000000)">
                <g id="Measure_icons">
                    <g id="Trashtruck_icon" transform="translate(260.000000, 3.000000)">
                        <path d="M29.1694645,8.26236109 L27.6714995,6.61168429 L26.3278419,5.12516037 L26.1825563,4.9610075 L24.8752413,3.52013859 C24.5665414,3.17362214 24.1217479,2.97296236 23.6587405,2.97296236 L18.7472026,2.97296236 L18.7472026,1.92426491 C18.7472026,0.866419363 17.8937881,0 16.8315947,0 L1.91560789,0 C0.853414509,0.00914810261 0,0.866333867 0,1.92426491 L0,13.8800656 L0,14.8741309 L0,19.0873879 C0,20.0449463 0.771707325,20.8201411 1.7249578,20.8201411 L2.49666512,20.8201411 C2.73267973,22.4981767 4.1761733,23.7931034 5.91023805,23.7931034 C7.64430279,23.7931034 9.08771126,22.4980912 9.32381097,20.8201411 L18.729244,20.8201411 L20.2453378,20.8201411 C20.4813524,22.4981767 21.924846,23.7931034 23.6589107,23.7931034 C25.4019973,23.7931034 26.836384,22.4980912 27.0724837,20.8201411 L28.5250842,20.8201411 C29.1061414,20.8201411 29.5781706,20.3458932 29.5781706,19.7622955 L29.5781706,14.8742164 L29.5962994,14.8742164 L29.5962994,9.37509525 C29.5961292,8.96454209 29.4418218,8.56330802 29.1694645,8.26236109 Z M5.91925988,22.7990381 C4.55747349,22.7990381 3.4499156,21.686475 3.4499156,20.3185344 C3.4499156,18.9505938 4.55747349,17.8380306 5.91925988,17.8380306 C7.28104627,17.8380306 8.38860417,18.9505938 8.38860417,20.3185344 C8.38860417,21.686475 7.28104627,22.7990381 5.91925988,22.7990381 Z M17.7576945,19.8259903 L9.33274769,19.8259903 C9.33274769,19.8168422 9.33274769,19.8168422 9.33274769,19.8077796 C9.32364075,19.7804208 9.32364075,19.76221 9.32364075,19.7439138 C9.3145338,19.7074069 9.3145338,19.6800481 9.30551197,19.6436267 C9.29640502,19.6162679 9.29640502,19.5980572 9.28738318,19.5706984 C9.27827624,19.5433396 9.27827624,19.5068326 9.26014746,19.4794738 C9.25104051,19.452115 9.25104051,19.4339043 9.24201868,19.4065455 C9.23291173,19.3791867 9.22388989,19.3518279 9.21478295,19.315321 C9.205676,19.2879621 9.205676,19.2697514 9.18754722,19.2423926 C9.17844027,19.2150338 9.16941844,19.187675 9.16031149,19.1511681 C9.15120455,19.1238093 9.14218271,19.1055986 9.13307576,19.0873024 C9.12396882,19.0599436 9.10584004,19.0325847 9.09673309,18.9960778 C9.08762614,18.968719 9.07860431,18.9595709 9.06949736,18.9322121 C9.06039042,18.9048533 9.04226163,18.8774945 9.03315469,18.8409876 C9.02404774,18.8227769 9.01502591,18.8044806 9.00591896,18.7862699 C8.98779018,18.7589111 8.97868323,18.7224042 8.96055445,18.6950454 C8.9514475,18.6768347 8.94242567,18.6585385 8.93331872,18.6403278 C8.906083,18.6038209 8.88795421,18.5582513 8.86071849,18.5217444 C8.85161154,18.5127673 8.85161154,18.5037047 8.85161154,18.4945566 C8.82437581,18.4489871 8.79714008,18.4033321 8.76079741,18.3577626 C8.75169046,18.3486145 8.74266863,18.3304037 8.73356168,18.3212556 C8.70632595,18.2938968 8.69721901,18.2573899 8.66998328,18.2300311 C8.66087633,18.2118204 8.64274755,18.1935242 8.63364061,18.1844616 C8.61551182,18.1571028 8.59729793,18.129744 8.57916915,18.1115333 C8.5700622,18.0933225 8.55193342,18.0750263 8.54282648,18.0568156 C8.52469769,18.0294568 8.5064838,18.0112461 8.47924807,17.9838873 C8.46111929,17.9656766 8.45201235,17.9473804 8.43388356,17.9291697 C8.40664784,17.9018109 8.39754089,17.8836002 8.37030516,17.8653039 C8.35217638,17.8470932 8.33396249,17.828797 8.32494065,17.8197344 C8.29770493,17.7923756 8.27957614,17.7832275 8.26136225,17.7558687 C8.24323347,17.737658 8.22501958,17.7285099 8.2068908,17.7102992 C8.17965507,17.6829404 8.16152629,17.6737923 8.13429056,17.6555816 C8.11616178,17.6373708 8.09794788,17.6282227 8.0798191,17.610012 C8.05258337,17.5918013 8.03445459,17.5735051 8.00721887,17.5552944 C7.98909008,17.5461463 7.97087619,17.5279356 7.95274741,17.5187875 C7.92551168,17.5005768 7.89827595,17.4822806 7.87104023,17.4640699 C7.85291145,17.4549218 7.83469755,17.4367111 7.82567572,17.427563 C7.78933304,17.4002042 7.76209732,17.391056 7.72583975,17.3636972 C7.71673281,17.3545491 7.69860403,17.3454865 7.68949708,17.3363384 C7.64413257,17.3089796 7.59868295,17.2816208 7.55331844,17.254262 C7.54421149,17.2451139 7.52608271,17.2451139 7.52608271,17.2360513 C7.48974004,17.2178406 7.45348247,17.1995444 7.4171398,17.1813337 C7.39901102,17.1721856 7.38079713,17.1631229 7.36266834,17.1539748 C7.33543262,17.1448267 7.29908994,17.126616 7.27185421,17.1174679 C7.25372543,17.1083198 7.23551154,17.0992572 7.21738276,17.0901091 C7.19014703,17.080961 7.1629113,17.0627503 7.12656863,17.0536022 C7.0993329,17.0444541 7.09022595,17.0353915 7.06299023,17.0262434 C7.0357545,17.0170953 7.00851877,16.9988846 6.9721761,16.9988846 C6.94494037,16.9897365 6.92681159,16.9897365 6.89957586,16.9715258 C6.87234013,16.9623777 6.8451044,16.9533151 6.80876173,16.944167 C6.781526,16.9350189 6.76339722,16.9350189 6.73616149,16.9259563 C6.70892577,16.9168081 6.67258309,16.9077455 6.64534736,16.8985974 C6.61811164,16.8894493 6.59998285,16.8894493 6.57274713,16.8803867 C6.5455114,16.8712386 6.50916872,16.8712386 6.481933,16.862176 C6.45469727,16.8530279 6.43656849,16.8530279 6.40933276,16.8530279 C6.37299009,16.8438798 6.33673252,16.8438798 6.30949679,16.8438798 C6.28226107,16.8438798 6.26413229,16.8347317 6.24591839,16.8347317 C6.20957572,16.8255836 6.17331816,16.8255836 6.13697548,16.8255836 C6.1188467,16.8255836 6.10063281,16.8164355 6.08250403,16.8164355 C6.02803257,16.8164355 5.96445417,16.8072874 5.91908966,16.8072874 C5.87372515,16.8072874 5.8010398,16.8072874 5.75567529,16.8164355 C5.73754651,16.8164355 5.71933262,16.8164355 5.70120384,16.8255836 C5.66486116,16.8255836 5.6286036,16.8347317 5.59226093,16.8347317 C5.5650252,16.8347317 5.54689642,16.8438798 5.52868252,16.8438798 C5.49233985,16.8530279 5.45608229,16.8530279 5.42884656,16.8530279 C5.40161083,16.862176 5.38348205,16.862176 5.35624632,16.862176 C5.32901059,16.8713241 5.29266792,16.8713241 5.26543219,16.8803867 C5.23819646,16.8895348 5.22006768,16.8895348 5.19283195,16.8985974 C5.16559623,16.9077455 5.12925355,16.9077455 5.10201782,16.9259563 C5.0747821,16.9351044 5.05665332,16.9351044 5.02941759,16.944167 C5.00218186,16.9533151 4.97494613,16.9623777 4.93860346,16.9715258 C4.91136773,16.9806739 4.89323895,16.9806739 4.86600322,16.9988846 C4.83876749,17.0080327 4.81153177,17.0170953 4.77518909,17.0262434 C4.74795336,17.0353915 4.73884642,17.0444541 4.71161069,17.0536022 C4.68437496,17.0627503 4.65713923,17.080961 4.62079656,17.0901091 C4.59356083,17.0992572 4.58445388,17.1083198 4.5663251,17.1174679 C4.53908938,17.126616 4.5027467,17.1448267 4.47551097,17.1539748 C4.45738219,17.1631229 4.4391683,17.1721856 4.42103952,17.1813337 C4.38469684,17.1995444 4.34843928,17.2178406 4.31209661,17.2360513 C4.30298966,17.2451994 4.28486088,17.2451994 4.28486088,17.254262 C4.23949637,17.2816208 4.19404675,17.3089796 4.14868224,17.3363384 C4.13957529,17.3454865 4.12144651,17.3545491 4.11233957,17.3636972 C4.07599689,17.391056 4.04876116,17.4002042 4.0125036,17.427563 C3.99437482,17.4367111 3.97616093,17.4549218 3.96713909,17.4640699 C3.93990336,17.4822806 3.91266764,17.5005768 3.88543191,17.5187875 C3.86730313,17.5279356 3.84908923,17.5461463 3.83096045,17.5552944 C3.80372472,17.5735051 3.776489,17.5918013 3.75836022,17.610012 C3.74023143,17.6191601 3.72201754,17.6373708 3.70388876,17.6555816 C3.67665303,17.6737923 3.65852425,17.6920885 3.63128852,17.7102992 C3.61315974,17.7285099 3.59494585,17.737658 3.57681707,17.7558687 C3.54958134,17.7832275 3.53145256,17.7923756 3.51323866,17.8197344 C3.49510988,17.8379451 3.47689599,17.8562413 3.46787416,17.8653039 C3.44063843,17.8926628 3.43153148,17.9108735 3.40429575,17.9291697 C3.38616697,17.9473804 3.37706003,17.9656766 3.35893124,17.9838873 C3.33169552,18.0112461 3.32258857,18.0294568 3.29535284,18.0568156 C3.2862459,18.0750263 3.26811711,18.0933225 3.25901017,18.1115333 C3.23177444,18.1388921 3.22266749,18.1662509 3.20453871,18.1844616 C3.19543177,18.2026723 3.17730298,18.2209685 3.16819604,18.2300311 C3.14096031,18.2573899 3.12283153,18.2847487 3.10461764,18.3212556 C3.09551069,18.3304037 3.08648885,18.3486145 3.07738191,18.3577626 C3.05014618,18.4033321 3.02291045,18.4489871 2.98656778,18.4945566 C2.97746083,18.5037047 2.97746083,18.5037047 2.97746083,18.5219154 C2.9502251,18.5584223 2.93209632,18.5948438 2.90486059,18.6404988 C2.89575365,18.6587095 2.88673181,18.6770057 2.87762487,18.6952164 C2.85949609,18.7225752 2.84128219,18.7590821 2.83226036,18.7864409 C2.82315341,18.8046516 2.81413158,18.8229478 2.80502463,18.8411586 C2.79591768,18.8685174 2.7777889,18.8958762 2.76868196,18.9323831 C2.75957501,18.9597419 2.75055317,18.96889 2.74144623,18.9962488 C2.73233928,19.0236076 2.7142105,19.0509664 2.70510355,19.0874734 C2.69599661,19.1148322 2.68697477,19.1330429 2.67786783,19.1513391 C2.66876088,19.1786979 2.6506321,19.2060567 2.6506321,19.2425636 C2.64152515,19.2699224 2.64152515,19.2881331 2.62339637,19.315492 C2.61428942,19.3428508 2.60526759,19.3702096 2.59616064,19.4067165 C2.5870537,19.4340753 2.5870537,19.452286 2.57803186,19.4796448 C2.56892491,19.5070036 2.55990308,19.5435105 2.55079613,19.5708694 C2.54168919,19.5982282 2.54168919,19.6164389 2.53266735,19.6437977 C2.52356041,19.6803046 2.52356041,19.7076634 2.51453857,19.7440848 C2.50543162,19.7714436 2.50543162,19.7896544 2.50543162,19.8079506 C2.50543162,19.8170987 2.50543162,19.8170987 2.50543162,19.8261613 L1.72470246,19.8261613 C1.31616655,19.8261613 0.989337813,19.4887074 0.989337813,19.0783253 L0.989337813,14.8650683 L17.7576945,14.8650683 L17.7576945,19.8259903 Z M17.7668015,2.97296236 L17.7668015,13.8709175 L0.989593148,13.8709175 L0.989593148,1.92426491 C0.989593148,1.41359559 1.40723601,0.994065319 1.91560789,0.994065319 L16.8407867,0.994065319 C17.3491586,0.994065319 17.7668015,1.41359559 17.7668015,1.92426491 L17.7668015,2.97296236 Z M25.7468697,5.95507282 L26.9633705,7.29565458 L28.4340998,8.92803517 C28.5430427,9.04661852 28.6066212,9.21077139 28.6066212,9.37492426 L28.6066212,10.9070177 L21.2076101,10.9070177 L21.2076101,5.95507282 L25.7468697,5.95507282 Z M23.6769544,22.7990381 C22.315168,22.7990381 21.2076101,21.686475 21.2076101,20.3185344 C21.2076101,19.935511 21.2984243,19.5706984 21.4527317,19.2423926 C21.6524887,18.8320105 21.9520817,18.485494 22.3333819,18.2392647 C22.7237891,17.9930354 23.1776895,17.8380306 23.6770395,17.8380306 C24.021997,17.8380306 24.3398039,17.910959 24.6393969,18.0386904 C25.5200472,18.4125657 26.1464689,19.2971957 26.1464689,20.3186199 C26.1371918,21.6955376 25.0387408,22.7990381 23.6769544,22.7990381 Z M28.6247499,14.399883 L26.1735344,14.399883 C25.9193059,14.399883 25.6923983,14.5913947 25.6651625,14.8467721 C25.6379268,15.1385709 25.8649196,15.3848002 26.1554056,15.3848002 L28.6247499,15.3848002 L28.6247499,19.5433396 C28.6247499,19.7074924 28.4885713,19.8442865 28.3251569,19.8442865 L27.0904422,19.8260758 C27.0904422,19.8169277 27.0904422,19.8169277 27.0904422,19.8078651 C27.0813353,19.7805063 27.0813353,19.7622955 27.0813353,19.7349367 C27.0722283,19.7075779 27.0722283,19.671071 27.0632065,19.6437122 C27.0540996,19.6163534 27.0540996,19.5981427 27.0450777,19.5707839 C27.0360559,19.5434251 27.0359708,19.5160662 27.0269489,19.4795593 C27.017842,19.4522005 27.017842,19.4339898 27.0088202,19.406631 C26.9997132,19.3792722 26.9906914,19.3519134 26.9815844,19.3154065 C26.9724775,19.2880476 26.9634556,19.2698369 26.9543487,19.2424781 C26.9452418,19.2151193 26.9362199,19.1877605 26.927113,19.1604017 C26.918006,19.1330429 26.9089842,19.1148322 26.8998772,19.0874734 C26.8907703,19.0601145 26.8726415,19.0327557 26.8726415,19.0053969 C26.8635346,18.9780381 26.8545127,18.9598274 26.8454058,18.9324686 C26.8362988,18.9051098 26.8181701,18.877751 26.8090631,18.8503922 C26.7999562,18.8230333 26.7818274,18.8048226 26.7818274,18.7774638 C26.7727204,18.750105 26.7545917,18.7318943 26.7454847,18.7045355 C26.7363778,18.6863248 26.7273559,18.6680286 26.718249,18.658966 C26.7001202,18.6224591 26.6728845,18.5860376 26.6546706,18.5495307 C26.6455636,18.5221719 26.6274349,18.5039612 26.6183279,18.4766024 C26.5910922,18.4400955 26.5729634,18.4036741 26.5457277,18.358019 C26.5366207,18.3398083 26.5184919,18.3215121 26.509385,18.3033014 C26.4912562,18.2759426 26.4730423,18.2577319 26.4549135,18.2303731 C26.4367848,18.2121624 26.4276778,18.1938662 26.409549,18.1756555 C26.3914203,18.1482967 26.3732064,18.1300859 26.3550776,18.1117897 C26.3369488,18.093579 26.3187349,18.0752828 26.3006061,18.0570721 C26.2824773,18.0297133 26.2642634,18.0205652 26.2461347,17.9932064 C26.2280059,17.9749957 26.209792,17.9566995 26.1916632,17.9384888 C26.1735344,17.9202781 26.1553205,17.9019819 26.1371918,17.8837711 C26.119063,17.8655604 26.1008491,17.8472642 26.0827203,17.8290535 C26.0645915,17.8108428 26.0463776,17.7925466 26.0282488,17.7743359 C26.0101201,17.7561252 25.9919062,17.737829 25.9737774,17.7196183 C25.9465417,17.7014076 25.9374347,17.6831114 25.910199,17.6649007 C25.8920702,17.6466899 25.8738563,17.6283937 25.8557275,17.6193311 C25.8284918,17.6011204 25.810363,17.5828242 25.7831273,17.5646135 C25.7649985,17.5464028 25.7467846,17.5372547 25.7286558,17.519044 C25.7014201,17.5008333 25.6832913,17.4825371 25.6560556,17.4643264 C25.6379268,17.4551783 25.6197129,17.4369676 25.6015841,17.4278195 C25.5743484,17.4096087 25.5471127,17.3913125 25.51077,17.3731018 C25.4926412,17.3639537 25.4835343,17.3548911 25.4654055,17.345743 C25.420041,17.3183842 25.3745914,17.2910254 25.3292269,17.2636666 C25.2838624,17.2363078 25.2384127,17.2180971 25.1930482,17.1907382 C25.1749194,17.1815901 25.1567056,17.1725275 25.1385768,17.1633794 C25.111341,17.1542313 25.0749984,17.1360206 25.0477626,17.1268725 C25.0296339,17.1177244 25.01142,17.1086618 24.9932912,17.0995137 C24.9660555,17.0903656 24.9388197,17.0721549 24.9024771,17.0630068 C24.8752413,17.0538587 24.8661344,17.0447961 24.8388987,17.035648 C24.8116629,17.0264999 24.7753203,17.0082892 24.7480845,17.0082892 C24.7208488,16.9991411 24.7117419,16.9991411 24.6845061,16.9900785 C24.6572704,16.9809304 24.6209277,16.9718678 24.593692,16.9627197 C24.5755632,16.9535716 24.5483275,16.9535716 24.5301136,16.9445089 C24.4937709,16.9353608 24.4665352,16.9262982 24.4302776,16.9171501 C24.4030419,16.908002 24.393935,16.908002 24.3666992,16.908002 C24.3303565,16.8988539 24.294099,16.8988539 24.2668633,16.8897913 C24.2396275,16.8806432 24.2305206,16.8806432 24.2032849,16.8806432 C24.1669422,16.8714951 24.1306846,16.8714951 24.0943419,16.8714951 C24.0762132,16.8714951 24.0579993,16.862347 24.0398705,16.862347 C24.0035278,16.8531989 23.9490564,16.8531989 23.9127988,16.8531989 C23.9036919,16.8531989 23.8855631,16.8531989 23.8764561,16.8531989 C23.8219847,16.8531989 23.7584063,16.8440508 23.7039348,16.8440508 C23.6494634,16.8440508 23.585885,16.8440508 23.5314135,16.8531989 C23.5223066,16.8531989 23.5041778,16.8531989 23.4950708,16.8531989 C23.4497063,16.8531989 23.4042567,16.862347 23.3679991,16.862347 C23.3498703,16.862347 23.3316565,16.8714951 23.3135277,16.8714951 C23.277185,16.8806432 23.2409274,16.8806432 23.2045848,16.8806432 C23.186456,16.8897913 23.1682421,16.8897913 23.1501133,16.8897913 C23.1137706,16.8989394 23.0775131,16.8989394 23.0502773,16.908002 C23.0230416,16.9171501 23.0139347,16.9171501 22.9866989,16.9171501 C22.9503563,16.9262982 22.9231205,16.9353608 22.886863,16.9445089 C22.8596272,16.953657 22.8505203,16.953657 22.8232846,16.9627197 C22.7869419,16.9718678 22.7597062,16.9809304 22.7234486,16.9900785 C22.6962129,16.9992266 22.6871059,16.9992266 22.6598702,17.0082892 C22.6326345,17.0174373 22.5962918,17.035648 22.5690561,17.0447961 C22.5509273,17.0539442 22.5327134,17.0539442 22.5145846,17.0721549 C22.4873489,17.081303 22.4510062,17.0995137 22.4237705,17.1086618 C22.4056417,17.1178099 22.3874278,17.1268725 22.369299,17.1360206 C22.3329564,17.1451687 22.3057206,17.1633794 22.2694631,17.1815901 C22.2513343,17.1907382 22.2331204,17.1998009 22.2240986,17.208949 C22.1877559,17.2271597 22.1423914,17.2454559 22.1060487,17.2636666 C22.0969418,17.2728147 22.0879199,17.2728147 22.078813,17.2728147 C22.0334485,17.3001735 21.9879988,17.3275323 21.9426343,17.3548911 C21.9335274,17.3640392 21.9153986,17.3731018 21.9062917,17.3822499 C21.869949,17.4096087 21.8427133,17.4187568 21.8064557,17.4461157 C21.7883269,17.4552638 21.770113,17.4734745 21.7519842,17.4826226 C21.7247485,17.5008333 21.6975128,17.5191295 21.6702771,17.5373402 C21.6521483,17.5464883 21.6339344,17.564699 21.6158056,17.5738471 C21.5885699,17.5920578 21.5704411,17.610354 21.5432054,17.6285647 C21.5250766,17.6467754 21.5068627,17.6559235 21.4887339,17.6741343 C21.4614982,17.692345 21.4433694,17.7106412 21.4161337,17.7288519 C21.3980049,17.7470626 21.379791,17.7562107 21.3616622,17.7744214 C21.3344265,17.7926321 21.3253195,17.8109283 21.2980838,17.8382871 C21.279955,17.8564978 21.2617411,17.874794 21.2436124,17.8930047 C21.2163766,17.9203636 21.2072697,17.9295117 21.180034,17.9568705 C21.1619052,17.9750812 21.1436913,17.9933774 21.1346694,18.0115881 C21.1165407,18.0389469 21.0983268,18.0571576 21.080198,18.0845164 C21.0620692,18.1027271 21.0529623,18.1210233 21.0348335,18.139234 C21.0167047,18.1665929 20.9984908,18.1939517 20.980362,18.2121624 C20.9712551,18.2303731 20.9531263,18.2486693 20.9440194,18.26688 C20.9167836,18.2942388 20.9076767,18.3215976 20.880441,18.3581045 C20.871334,18.3672526 20.8532052,18.3854634 20.8532052,18.3946115 C20.8259695,18.440181 20.7987338,18.485836 20.7623911,18.5314055 C20.7532841,18.5405536 20.7532841,18.5496162 20.7442623,18.5587643 C20.7170266,18.5952712 20.6988978,18.6316927 20.6806839,18.6773477 C20.671577,18.6955584 20.6625551,18.7138546 20.6534482,18.7320653 C20.6353194,18.7594241 20.6171055,18.795931 20.6080837,18.8232898 C20.5989767,18.8415005 20.5899549,18.8597967 20.5808479,18.8780075 C20.571741,18.9053663 20.5536122,18.9327251 20.5445053,18.969232 C20.5353983,18.9965908 20.5263765,19.0057389 20.5172695,19.0330977 C20.5081626,19.0604565 20.4900338,19.0878153 20.4809269,19.1243223 C20.4718199,19.1516811 20.4627981,19.1608292 20.4536911,19.188188 C20.4445842,19.2155468 20.4264554,19.2429056 20.4264554,19.2794125 C20.4173485,19.3067713 20.4173485,19.324982 20.3992197,19.3432782 C20.3901127,19.3706371 20.3810909,19.407144 20.371984,19.4345028 C20.362877,19.4618616 20.362877,19.4800723 20.3538552,19.4983685 C20.3447482,19.5348754 20.3357264,19.5622342 20.3266194,19.5986557 C20.3175125,19.6260145 20.3175125,19.6351626 20.3175125,19.6625214 C20.3084056,19.6990283 20.3084056,19.7354497 20.2993837,19.7628085 C20.2902768,19.7810192 20.2902768,19.7993154 20.2902768,19.8175261 C20.2902768,19.8266742 20.2902768,19.8266742 20.2811698,19.8357369 L18.7654165,19.8357369 L18.7654165,14.8831935 L18.7654165,13.8891282 L18.7654165,3.97617578 L23.6769544,3.97617578 C23.8584976,3.97617578 24.0401258,4.05825221 24.1671975,4.19504627 L24.8662195,4.9702411 L21.0895603,4.9702411 C20.6265529,4.9702411 20.2361458,5.35326446 20.2361458,5.82751236 L20.2361458,11.0621935 C20.2361458,11.5272933 20.617446,11.9194647 21.0895603,11.9194647 L28.6247499,11.9194647 L28.6247499,14.399883 Z" id="Shape"></path>
                        <path d="M5.80319596,19.7308663 C5.16433032,19.7308663 4.64255677,20.2419588 4.64255677,20.8915055 C4.64255677,21.5410521 5.15364928,22.0521447 5.80319596,22.0521447 C6.45274264,22.0521447 6.96383516,21.5410521 6.96383516,20.8915055 C6.96383516,20.2419588 6.44206161,19.7308663 5.80319596,19.7308663 Z" id="Shape"></path>
                        <path d="M23.7931034,19.7308663 C23.1542378,19.7308663 22.6324643,20.2419588 22.6324643,20.8915055 C22.6324643,21.5410521 23.1435568,22.0521447 23.7931034,22.0521447 C24.4426501,22.0521447 24.9537426,21.5410521 24.9537426,20.8915055 C24.9537426,20.2419588 24.4319691,19.7308663 23.7931034,19.7308663 Z" id="Shape"></path>
                        <path d="M9.14736871,3.91170484 L7.71320738,2.46141141 C7.52956128,2.27456738 7.23220215,2.27456738 7.03986565,2.46141141 C6.85621954,2.64825545 6.85621954,2.95079265 7.03986565,3.14647841 L7.66073707,3.7781614 C6.32274399,3.84047055 5.34327076,4.57007984 4.71362696,5.70891093 C4.48628291,6.11821615 4.32009958,6.54528824 4.19769617,6.98120205 C4.12776308,7.23919696 4.08398316,7.44389128 4.06652038,7.57735131 C4.03151284,7.84427136 4.21515895,8.08449941 4.46882014,8.12011656 C4.73117172,8.1557337 4.96728814,7.96888966 5.00229568,7.71081134 C5.01106806,7.62181018 5.04599362,7.46165815 5.10723632,7.2481221 C5.20340457,6.87443403 5.34335274,6.51851282 5.53577123,6.18936703 C6.01677646,5.33522286 6.69889058,4.81030789 7.66081905,4.74799874 L7.05741041,5.36191486 C6.8737643,5.5487589 6.8737643,5.8512961 7.05741041,6.04698186 C7.24105652,6.2338259 7.53841564,6.2338259 7.73075215,6.04698186 L9.14745069,4.59668843 C9.33101482,4.40992781 9.33101482,4.10739061 9.14736871,3.91170484 Z" id="Shape"></path>
                        <path d="M13.4455633,8.30042649 L12.6688353,8.30042649 C12.9724121,7.96615628 13.2045098,7.60487005 13.3652121,7.22546023 C13.8383633,6.12339327 13.7312284,4.97610201 13.2759051,3.88301215 C13.1241586,3.53070303 12.9812842,3.26875782 12.8741493,3.11513071 C12.7224027,2.8892633 12.418826,2.8350619 12.1956004,2.988689 C11.9723748,3.14223142 11.9188073,3.44940093 12.0706376,3.67526834 C12.0884655,3.70236904 12.1152492,3.74750864 12.1599445,3.82881075 C12.2313399,3.96431426 12.3116911,4.10887956 12.3831701,4.28046088 C12.7491865,5.14768332 12.8295376,6.03294468 12.4813492,6.83698861 C12.3652585,7.09893383 12.2045562,7.36096374 11.9902864,7.60487005 L11.9902864,6.83698861 C11.9902864,6.5659816 11.7760166,6.34917599 11.5081794,6.34917599 C11.2403421,6.34917599 11.0260723,6.5659816 11.0260723,6.83698861 L11.0260723,8.79730091 C11.0260723,9.06830793 11.2403421,9.28511354 11.5081794,9.28511354 L13.4455633,9.28511354 C13.7134005,9.28511354 13.9276703,9.06830793 13.9276703,8.79730091 C13.9276703,8.50817031 13.7134005,8.30042649 13.4455633,8.30042649 Z" id="Shape"></path>
                        <path d="M10.9389168,10.4546416 C10.7851546,10.231416 10.4775456,10.1778485 10.2604297,10.3296788 C10.2332902,10.3475067 10.188086,10.3742904 10.1066676,10.4189857 C9.97097015,10.4903811 9.82619797,10.5707323 9.65437112,10.6422113 C8.78590767,11.0082277 7.89937951,11.0885788 7.09418498,10.7403904 C6.83186492,10.6242997 6.56946004,10.4635974 6.3252047,10.2493276 L7.09418498,10.2493276 C7.36557981,10.2493276 7.58269567,10.0350578 7.58269567,9.76722057 C7.58269567,9.49938333 7.36557981,9.28511354 7.09418498,9.28511354 L5.13106746,9.28511354 C4.85967263,9.28511354 4.64255677,9.49938333 4.64255677,9.76722057 L4.64255677,11.7046045 C4.64255677,11.9724417 4.85967263,12.1867115 5.13106746,12.1867115 C5.40246229,12.1867115 5.61957815,11.9724417 5.61957815,11.7046045 L5.61957815,10.9278765 C5.95432671,11.2314533 6.31612993,11.463551 6.69608269,11.6242533 C7.79972672,12.0974045 8.94865976,11.9902696 10.0433138,11.5349463 C10.3961271,11.3831998 10.6584472,11.2403254 10.8122941,11.1331905 C11.0383999,10.9813603 11.0926789,10.6777835 10.9389168,10.4546416 Z" id="Shape"></path>
                    </g>
                </g>
            </g>
        </g>
    </g>
</svg>