<?xml version="1.0" encoding="UTF-8"?>
<svg width="12px" height="12px" viewBox="0 0 12 12" version="1.1" xmlns="http://www.w3.org/2000/svg" xmlns:xlink="http://www.w3.org/1999/xlink">
    <!-- Generator: sketchtool 46.2 (44496) - http://www.bohemiancoding.com/sketch -->
    <title>A649FB98-C6ED-477D-A120-EA2BA5E8E846</title>
    <desc>Created with sketchtool.</desc>
    <defs>
        <linearGradient x1="50%" y1="0%" x2="50%" y2="100%" id="linearGradient-1">
            <stop stop-color="#55ACEE" offset="0%"></stop>
            <stop stop-color="#3F87C0" offset="100%"></stop>
        </linearGradient>
    </defs>
    <g id="Page-1" stroke="none" stroke-width="1" fill="none" fill-rule="evenodd">
        <g id="Assets" transform="translate(-496.000000, -681.000000)">
            <g id="Social-media-drop" transform="translate(480.000000, 587.000000)">
                <g id="Twitter_color_icon" transform="translate(16.000000, 94.000000)">
                    <path d="M9.13043478,2.04546525e-16 C10.8592174,2.04546525e-16 12,1.11773217 12,2.86956522 L12,9.13043478 C12,10.8822678 10.8592174,12 9.13043478,12 L2.86956522,12 C1.14078261,12 0,10.8822678 0,9.13043478 L0,2.86956522 C0,1.11773217 1.14078261,2.02736379e-16 2.86956522,2.02736378e-16 L9.13043478,2.04546525e-16 Z" id="Base" fill="url(#linearGradient-1)"></path>
                    <path d="M9.041974,3.07705327 C8.720162,2.72961205 8.26161,2.50824509 7.754124,2.50022368 C6.779744,2.48482245 5.989705,3.26669452 5.989705,4.24650989 C5.989705,4.3855693 6.005314,4.52117249 6.035414,4.65134794 C4.569028,4.56102523 3.268923,3.83591145 2.398732,2.74288801 C2.246856,3.00480115 2.159824,3.31092035 2.159824,3.63884079 C2.159824,4.25962208 2.471316,4.81056105 2.944746,5.13585829 C2.655528,5.12373318 2.383467,5.0405915 2.145591,4.90419621 C2.145419,4.91165137 2.145419,4.9191083 2.145419,4.92669606 C2.145419,5.79361952 2.753611,6.5209011 3.560764,6.69032052 C3.412715,6.73015821 3.25684,6.75100691 3.095934,6.74999369 C2.982242,6.74927778 2.871689,6.73730521 2.763974,6.71580802 C2.988477,7.42677324 3.640056,7.94557147 4.412164,7.96272541 C3.808315,8.43872324 3.047559,8.72221274 2.220884,8.72059338 C2.078468,8.7203144 1.93803,8.71157553 1.8,8.69476269 C2.580837,9.20353213 3.508261,9.49975157 4.504657,9.49999982 C7.749996,9.50080837 9.524735,6.81887635 9.524735,4.49262764 C9.524735,4.41630585 9.522972,4.34039233 9.519618,4.26484536 C9.864349,4.02091846 10.163457,3.71508837 10.4,3.36585814 C10.083606,3.50129575 9.743519,3.59124735 9.386662,3.6289793 C9.750915,3.41609675 10.030716,3.0753854 10.162425,2.66681115 C9.821478,2.86315222 9.443895,3.00395464 9.041974,3.07705327 Z" id="Icon" fill="#FFFFFF"></path>
                </g>
            </g>
        </g>
    </g>
</svg>