<?xml version="1.0" encoding="UTF-8"?>
<svg width="36px" height="36px" viewBox="0 0 36 36" version="1.1" xmlns="http://www.w3.org/2000/svg" xmlns:xlink="http://www.w3.org/1999/xlink">
    <!-- Generator: Sketch 50.2 (55047) - http://www.bohemiancoding.com/sketch -->
    <title>Unclean</title>
    <desc>Created with Sketch.</desc>
    <defs></defs>
    <g id="Page-1" stroke="none" stroke-width="1" fill="none" fill-rule="evenodd">
        <g id="Assets" transform="translate(-766.000000, -132.000000)">
            <g id="Name-and-state" transform="translate(766.000000, 132.000000)">
                <g id="Group-6">
                    <g>
                        <g id="Hazardous-point">
                            <circle id="Oval-14" fill="#233A5B" cx="18" cy="18" r="18"></circle>
                            <g id="Trash-rotation" transform="translate(8.000000, 6.000000)" fill="#FFFFFF" fill-rule="nonzero">
                                <path d="M10.7555428,3.56907027 L7.99286002,0.335205297 C7.6392174,-0.0812966986 7.03392256,-0.11394562 6.62222683,0.261274889 C6.228221,0.637449571 6.19554302,1.27919919 6.54823061,1.71445649 L7.74382683,3.12256792 C5.01352015,3.10783304 2.94092796,4.54795636 1.53623622,6.89454138 C1.02925153,7.73780853 0.644844597,8.62547842 0.348599668,9.53671049 C0.178379234,10.0762975 0.067152539,10.5056934 0.0171904273,10.7868749 C-0.082900682,11.3492288 0.26497576,11.8789703 0.777473347,11.9823734 C1.30766083,12.0867306 1.80847358,11.716317 1.90760967,11.1727183 C1.93507974,10.98489 2.02347162,10.6490061 2.17120001,10.2027722 C2.40732029,9.42065446 2.73063853,8.6810311 3.1578716,8.00396548 C4.22924944,6.24494565 5.67443711,5.20637622 7.63923856,5.17982061 L6.34464798,6.41582314 C5.95064215,6.79199782 5.91796417,7.43374744 6.27065176,7.86900473 C6.62429437,8.28550673 7.22958922,8.31815565 7.64128494,7.94293514 L10.6817225,5.02208393 C11.0755524,4.64607719 11.1082304,4.00432756 10.7555428,3.56907027 Z" id="Shape"></path>
                                <path d="M13.9102462,19.6131242 C13.6755756,19.0704255 13.0441689,18.845186 12.5203713,19.1014076 C12.4553709,19.1309156 12.3483038,19.1736916 12.1569236,19.2429741 C11.8392325,19.3516644 11.498573,19.4767779 11.1040948,19.5729716 C9.10833259,20.0695409 7.19190076,19.9343292 5.62482984,18.889409 C5.11539659,18.5431743 4.62416514,18.0992362 4.19356236,17.5443862 L5.82716946,17.8142661 C6.40371547,17.9095143 6.95324092,17.5165862 7.06360172,16.9301779 C7.17396252,16.3437697 6.80101434,15.7984445 6.22446832,15.7031963 L2.05405876,15.0142244 C1.47751274,14.9189762 0.927987292,15.3119042 0.817626496,15.8983125 L0.0193385768,20.1400601 C-0.0910222191,20.7264683 0.281925957,21.2717935 0.858471972,21.3670417 C1.43501799,21.4622899 1.98454344,21.0693619 2.09490423,20.4829536 L2.41495054,18.7823696 C3.00099695,19.5645094 3.67397033,20.1996466 4.41491828,20.684839 C6.56451944,22.1080987 9.04943528,22.2767627 11.5625109,21.6640463 C12.3745471,21.455632 12.9906854,21.2348832 13.3616592,21.0543137 C13.9045549,20.8012472 14.1449512,20.1556397 13.9102462,19.6131242 Z" id="Shape"></path>
                                <path d="M14.5814331,4.3959723 C14.1455309,4.85410379 14.1956584,5.52891258 14.6760186,5.8885727 C14.7333632,5.93423801 14.8220475,6.01208957 14.9734596,6.15449057 C15.2185465,6.39373019 15.4898347,6.64639743 15.7557686,6.96097405 C17.1109992,8.54802155 17.8062551,10.3484529 17.4494747,12.2427319 C17.3270083,12.8614927 17.0999112,13.5078675 16.7367469,14.1493161 L16.2972185,12.5447451 C16.1420965,11.9784468 15.5152248,11.6571882 14.8867571,11.8219133 C14.2582895,11.9866384 13.8796129,12.5714572 14.0347349,13.1377555 L15.1568,17.2340391 C15.3119219,17.8003375 15.9387936,18.121596 16.5672613,17.9568709 L21.1132429,16.7653421 C21.7417105,16.600617 22.1203871,16.0157983 21.9652651,15.4494999 C21.8101431,14.8832016 21.1832714,14.561943 20.5548038,14.7266681 L18.7322475,15.2043709 C19.2532431,14.3191717 19.5910526,13.4214807 19.7509625,12.5298279 C20.2303767,9.93594315 19.3222905,7.6044446 17.6282207,5.60034836 C17.0704959,4.95748759 16.5853126,4.49799541 16.2459908,4.24286509 C15.7604922,3.86444634 15.017139,3.93789229 14.5814331,4.3959723 Z" id="Shape"></path>
                            </g>
                        </g>
                    </g>
                </g>
            </g>
        </g>
    </g>
</svg>