<?xml version="1.0" encoding="UTF-8"?>
<svg width="30px" height="27px" viewBox="0 0 30 27" version="1.1" xmlns="http://www.w3.org/2000/svg" xmlns:xlink="http://www.w3.org/1999/xlink">
    <!-- Generator: sketchtool 46.2 (44496) - http://www.bohemiancoding.com/sketch -->
    <title>A55974F3-10BE-4632-9B5A-1E2CCAED9748</title>
    <desc>Created with sketchtool.</desc>
    <defs></defs>
    <g id="Page-1" stroke="none" stroke-width="1" fill="none" fill-rule="evenodd">
        <g id="Assets" transform="translate(-646.000000, -972.000000)" fill-rule="nonzero" fill="#000000">
            <g id="Trash-scale" transform="translate(474.000000, 972.000000)">
                <g id="Measure_icons">
                    <g id="Wheelbarrow_icon" transform="translate(172.000000, 0.000000)">
                        <path d="M25.1132354,17.7716169 C23.7919684,17.7716169 22.5974457,18.3247312 21.7633682,19.3122275 L20.1394611,18.7030921 C20.5187708,18.4909912 20.8716586,18.2308972 21.2242003,17.9701633 L28.1639239,11.3610064 C28.9279661,11.2906746 29.4945942,10.6726386 29.4945942,9.87862761 C29.4945942,9.0347037 28.8546425,8.38938435 28.0177382,8.38938435 L26.4482325,8.38938435 C26.2554335,7.81748003 25.8240877,7.34202748 25.2609787,7.09868746 C25.6055592,6.5526122 25.6548262,5.90729284 25.359455,5.41089781 C25.0640838,4.96412483 24.5225506,4.61665413 23.636437,4.76557845 C24.0794938,4.1202591 24.1779701,3.37563746 23.7841226,2.87918426 C23.4395421,2.43241128 22.7995327,2.333109 22.1103717,2.58133561 C22.1103717,2.48203333 22.1103717,2.38278923 22.0611623,2.28348695 C21.8150004,1.19139461 20.8304682,0.44677298 19.6981927,0.44677298 C19.3043451,0.44677298 18.9597646,0.546075256 18.6151841,0.744621634 C18.5659748,0.744621634 18.5167078,0.694999583 18.5167078,0.694999583 C18.1228603,0.248226602 17.5321179,0 16.9413755,0 C15.8583669,0 14.9722533,0.794243685 14.7753007,1.78709192 C14.4799295,1.78709192 14.086082,1.8863942 13.7907108,2.2338649 C13.4953395,2.53171355 13.3968632,2.97848653 13.4461302,3.52456179 C12.4615403,2.92886448 11.7231123,3.22671314 11.3293225,3.72310817 C10.9354749,4.16988115 10.8862656,4.86488073 11.0831605,5.46057804 C10.7877893,5.46057804 10.5416274,5.55988031 10.2955232,5.70880464 C9.65557149,6.15557762 9.31093328,7.14842586 9.31093328,7.84336726 C9.26172398,7.89298932 9.11403837,7.99229159 9.01556207,8.04191364 C8.85478091,8.13917984 8.67328914,8.23679509 8.52537278,8.38938435 L7.83407723,8.38938435 C6.9971729,8.38938435 6.35722117,9.0347037 6.35722117,9.87862761 C6.35722117,10.5642613 6.77962508,11.1187717 7.38686675,11.3027165 L7.58797301,13.0060385 C7.63470166,13.3828868 7.7262552,13.7483332 7.8616529,14.0974909 L2.17287261,11.9635682 C1.38523527,11.6657195 0.499121641,12.0131902 0.154483435,12.7578119 C-0.0424114753,13.1549628 -0.0424114753,13.6513578 0.10527413,14.0485088 C0.252959736,14.4456597 0.597540252,14.7931304 0.991387763,14.9420547 L8.32645873,17.6229253 L8.32645873,24.8703626 C8.32645873,25.8632108 9.21257236,26.7567568 10.2955809,26.7567568 C10.787847,26.7567568 11.2801708,26.5582104 11.6247514,26.2106815 L16.9634129,20.7795975 L20.6350155,22.1215453 C20.6337464,22.1755885 20.6335733,22.2300971 20.6335733,22.289027 C20.6335733,24.7711185 22.6026955,26.7567568 25.0641415,26.7567568 C27.5255874,26.7567568 29.5439189,24.7214382 29.5439189,22.2394049 C29.5438035,19.7572552 27.5746814,17.7716169 25.1132354,17.7716169 Z M24.4975133,23.2232362 C24.9323782,23.1013044 25.3196491,22.7921701 25.5070829,22.338649 C25.7144196,21.8159595 25.6060207,21.2200877 25.2507676,20.8082189 C25.9938108,20.8986787 26.5408821,21.5248008 26.5408821,22.289027 C26.5408821,23.1329509 25.9009304,23.7782702 25.0640261,23.7782702 C24.6209693,23.7782702 24.2271217,23.5797238 23.9810175,23.2818752 C24.1596248,23.2956623 24.3340207,23.2736145 24.4975133,23.2232362 Z M10.2954655,7.89298932 C10.2954655,7.39659428 10.5908367,6.75121675 10.8862079,6.4533681 C11.0338936,6.35406582 11.0831029,6.40374605 11.1323699,6.40374605 C11.3785318,6.50304832 12.0184835,6.7015947 12.3138547,6.25482172 C12.5600166,5.90735102 12.3138547,5.51020009 12.1661691,5.31165371 C11.9200072,5.06342711 11.9200072,4.56703208 12.1169598,4.31880547 C12.3631217,4.02095682 12.8061785,4.2195032 13.0522827,4.36842753 L13.150759,4.4677298 C13.3969209,4.61665413 13.7907108,4.81520051 14.135349,4.61665413 C14.4799295,4.36842753 14.4799295,3.87203249 14.4307202,3.37563746 C14.4307202,3.12741086 14.4307202,2.92886448 14.5291965,2.82956221 C14.6768821,2.68063788 14.9722533,2.68063788 15.1199389,2.68063788 C15.2676245,2.68063788 15.4645194,2.68063788 15.612205,2.53171355 L15.7598906,2.38278923 L15.7598906,2.18424285 C15.7598906,1.48924327 16.3014237,0.943226185 16.9905848,0.943226185 C17.285956,0.943226185 17.6305365,1.09215051 17.8766984,1.34037711 C17.8766984,1.34037711 18.4674408,1.93607442 18.9597069,1.63822577 C19.2058688,1.48930144 19.4519731,1.43967939 19.698135,1.43967939 C20.3380867,1.43967939 20.9288291,1.88645237 21.0765147,2.48214968 C21.0765147,2.53177173 21.125724,2.73037628 21.125724,2.92892266 L21.3226189,3.17714926 L21.5195139,3.37569564 L21.5687232,3.42531769 C21.7164088,3.52461996 22.01178,3.67354429 22.3071512,3.52461996 C22.7009987,3.37569564 22.9471029,3.42531769 22.9963699,3.47499791 C23.0948462,3.57430019 23.0948462,3.97139294 22.799475,4.46784615 C22.4548945,4.81531685 22.6025801,5.55993849 22.7502657,5.80816509 L22.9964276,6.10601374 L23.3410081,5.95708942 C23.9809598,5.70886281 24.4240167,5.80816509 24.5717023,6.00671147 C24.6701786,6.20525784 24.5717023,6.55278672 24.276331,6.85063538 C24.0301691,7.04918175 24.0301691,7.34703041 24.1286454,7.59525701 L24.2271217,7.89310566 L24.522493,7.89310566 C24.8178642,7.94272771 25.1132354,8.14133227 25.3101303,8.38950069 L10.1477799,8.38950069 C10.2461985,8.24046002 10.2954655,8.09153569 10.2954655,7.89298932 Z M7.83401954,9.38223258 L7.98170514,9.38223258 L26.6393007,9.38223258 L28.0176805,9.38223258 C28.3130517,9.38223258 28.5099466,9.58077896 28.5099466,9.87862761 C28.5099466,10.1764763 28.3130517,10.3750226 28.0176805,10.3750226 L27.9684712,10.3750226 L7.83401954,10.3750226 C7.53864833,10.3750226 7.34175342,10.1764763 7.34175342,9.87862761 C7.34175342,9.58077896 7.53864833,9.38223258 7.83401954,9.38223258 Z M9.16318999,14.5449038 C8.81860947,14.0485088 8.57244757,13.5024335 8.52323826,12.9067362 L8.37555266,11.3678709 L26.787044,11.3678709 L20.5350393,17.1759196 C19.9166058,17.703612 19.3439203,18.045149 18.6841233,18.1571331 L9.22768706,14.6099418 C9.20801488,14.5901628 9.19734228,14.5794007 9.16318999,14.5449038 Z M0.991272383,13.7010381 C0.892796083,13.5024917 0.942063078,13.3535674 0.991272383,13.204643 C1.08974868,13.0060966 1.28664359,12.8571723 1.5328055,12.8571723 C1.6312818,12.8571723 1.68049111,12.8571723 1.72970041,12.9067944 L24.2271217,21.3458589 C24.4732836,21.4451612 24.6209693,21.7430099 24.522493,21.9911783 C24.5006286,22.0462687 24.4686685,22.0961234 24.4300741,22.1398118 C24.2942725,22.2583695 24.1013582,22.307817 23.9317505,22.2394049 L21.3718859,21.2962369 C21.2816593,21.2659285 21.1914326,21.2544683 21.1012059,21.2725021 L17.1896142,19.8428867 C17.1439817,19.8049576 17.0919456,19.7748818 17.0397941,19.7573716 L14.9721956,19.0127499 C14.9136983,18.9734246 14.8474705,18.9578341 14.7796851,18.9621389 L11.1200243,17.6246123 C11.0672959,17.5769682 11.0045295,17.5409587 10.9354749,17.5235648 L8.96635277,16.8285653 C8.93825789,16.8191411 8.9102207,16.8121603 8.88212582,16.806692 L1.33591059,14.0486833 C1.18816729,13.9988867 1.04048169,13.8499624 0.991272383,13.7010381 Z M11.2799978,18.7024521 L13.9266854,19.6697622 L11.2799978,22.338649 L11.2799978,18.7024521 Z M10.9354173,25.4660599 C10.7385223,25.6149842 10.5415697,25.7142865 10.2954655,25.7142865 C9.8031994,25.7142865 9.31087559,25.3171355 9.31087559,24.8207405 L9.31087559,17.982787 L9.52369286,18.060565 L10.2462562,18.3673724 L10.2462562,23.1825729 C10.2462562,23.4307995 10.3939418,23.6293459 10.6401037,23.7286482 C10.8862656,23.8279504 11.1816368,23.7782702 11.3785318,23.5797238 L14.9023334,20.0263661 L15.9501512,20.4093227 L10.9354173,25.4660599 Z M25.0640261,25.7639085 C23.1933225,25.7639085 21.7164665,24.3242873 21.6180478,22.4875733 L22.6611928,22.8651779 C22.932219,23.9844955 23.8953483,24.7710603 25.0640838,24.7710603 C26.4424635,24.7710603 27.5255297,23.6789679 27.5255297,22.2889688 C27.5255297,20.8990278 26.4425212,19.8068773 25.0640838,19.8068773 C24.6709862,19.8068773 24.278004,19.9022238 23.9100015,20.1174078 L22.8046671,19.7028048 C23.395121,19.1104234 24.2295447,18.8140872 25.0640838,18.8140872 C26.9839966,18.8140872 28.510062,20.3529525 28.510062,22.2889688 C28.5100043,24.224985 26.9839389,25.7639085 25.0640261,25.7639085 Z" id="Shape"></path>
                    </g>
                </g>
            </g>
        </g>
    </g>
</svg>