<?xml version="1.0" encoding="UTF-8"?>
<svg width="64px" height="64px" viewBox="0 0 64 64" version="1.1" xmlns="http://www.w3.org/2000/svg" xmlns:xlink="http://www.w3.org/1999/xlink">
    <!-- Generator: Sketch 46.2 (44496) - http://www.bohemiancoding.com/sketch -->
    <title>info</title>
    <desc>Created with Sketch.</desc>
    <defs></defs>
    <g id="Icons" stroke="none" stroke-width="1" fill="none" fill-rule="evenodd">
        <g id="info">
            <g id="Group" fill="#FFFFFF">
                <circle id="Oval" cx="32" cy="32" r="32"></circle>
            </g>
            <g id="Layer-1" transform="translate(2.000000, 2.000000)" fill-rule="nonzero">
                <path d="M0,30.000078 C0,13.4254279 13.4254167,0 29.9999321,0 C46.5744731,0 60,13.4254279 60,30.000078 C60,46.5746275 46.5744731,60 29.9999321,60 C13.4254167,60 0,46.5746275 0,30.000078 Z" id="svg_4" fill="#000000"></path>
                <path d="M33.89486,12.0973891 C33.07712,12.0973891 32.38328,12.4235062 31.81334,13.0757402 C31.21862,13.7279743 30.92126,14.505638 30.92126,15.3836454 C30.92126,16.211481 31.21862,16.9640588 31.81334,17.6162928 C32.40806,18.2685269 33.1019,18.594644 33.89486,18.594644 C34.76216,18.594644 35.50556,18.243441 36.0755,17.566121 C36.67022,16.888801 36.96758,16.0860514 36.96758,15.1578721 C36.96758,14.3300365 36.67022,13.6276306 36.10028,13.0004825 C35.53034,12.4235062 34.78694,12.0973891 33.89486,12.0973891 Z" id="svg_3" fill="#FFFFFF"></path>
                <path d="M32.68064,46.3898499 C31.78856,46.3898499 31.1195,46.2142484 30.72302,45.8881314 C30.32654,45.5620143 30.1283,44.9348662 30.1283,44.0066869 C30.1283,43.630398 30.17786,43.1286795 30.30176,42.5266173 C30.42566,41.9245551 30.54956,41.2974069 30.72302,40.6702588 L33.25058,30.435201 C33.37448,29.9334825 33.4736,29.431764 33.54794,28.9300454 C33.62228,28.4283269 33.64706,28.0269521 33.64706,27.7510069 C33.64706,26.697398 33.3497,25.8444765 32.75498,25.2173284 C32.16026,24.5901802 31.21862,24.2891491 29.93006,24.2891491 C29.36012,24.2891491 28.59194,24.4145788 27.60074,24.690524 C26.60954,24.9664691 25.51922,25.3929299 24.28022,25.9448202 L23.9333,27.4750617 C24.23066,27.399804 24.6767,27.2994602 25.24664,27.1740306 C25.81658,27.0736869 26.2874,26.9984291 26.63432,26.9984291 C27.5264,26.9984291 28.1459,27.1489447 28.41848,27.4499758 C28.71584,27.7510069 28.86452,28.3530691 28.86452,29.2561625 C28.86452,29.7077091 28.81496,30.2595995 28.69106,30.8867477 C28.56716,31.5389817 28.44326,32.141044 28.31936,32.6929343 L25.81658,42.9279921 C25.6679,43.5300543 25.56878,44.0568588 25.51922,44.4582336 C25.44488,44.8596084 25.4201,45.2358973 25.4201,45.6121862 C25.4201,46.5905373 25.74224,47.4183728 26.36174,48.0706069 C27.00602,48.7479269 27.94766,49.074044 29.21144,49.074044 C29.83094,49.074044 30.57434,48.9486143 31.44164,48.722841 C32.30894,48.4970677 33.4736,48.0706069 34.93562,47.4936306 L35.28254,45.9633891 C34.98518,46.0637328 34.53914,46.1640765 33.99398,46.2644202 C33.42404,46.364764 32.978,46.3898499 32.68064,46.3898499 Z" id="svg_2" fill="#FFFFFF"></path>
            </g>
        </g>
    </g>
</svg>