<?xml version="1.0" encoding="UTF-8"?>
<svg width="179px" height="67px" viewBox="0 0 179 67" version="1.1" xmlns="http://www.w3.org/2000/svg" xmlns:xlink="http://www.w3.org/1999/xlink">
    <!-- Generator: Sketch 46.2 (44496) - http://www.bohemiancoding.com/sketch -->
    <title>Group</title>
    <desc>Created with Sketch.</desc>
    <defs></defs>
    <g id="Designs" stroke="none" stroke-width="1" fill="none" fill-rule="evenodd">
        <g id="Desktop-Map-view-Copy-2" transform="translate(-631.000000, -192.000000)">
            <g id="Group" transform="translate(631.000000, 192.000000)">
                <path d="M174.463929,43.7263158 L178.439133,43.7263158 L178.13729,57.5036316 L174.765773,57.5036316 L174.463929,43.7263158 Z M176.45118,59.0453368 C177.784906,59.0453368 178.816086,59.8288842 178.816086,61.3205158 C178.816086,62.5843474 177.961098,63.5956947 176.45118,63.5956947 C174.941965,63.5956947 174.086275,62.5843474 174.086275,61.3205158 C174.086275,59.8288842 175.118157,59.0453368 176.45118,59.0453368 L176.45118,59.0453368 Z" id="Fill-302" fill="#231F20"></path>
                <path d="M128.745224,53.0047579 C128.268592,52.7522737 127.285145,52.5244737 126.506671,52.5244737 C123.963467,52.5244737 123.0088,54.5464632 123.0088,56.5973684 C123.0088,58.6687263 123.989439,60.4389368 125.701522,60.4389368 C127.563824,60.4389368 128.745224,58.7688737 128.745224,56.7461789 L128.745224,53.0047579 Z M128.847008,46.3061684 L126.834486,46.3061684 L126.834486,43.7263158 L132.370149,43.7263158 L132.370149,60.5905684 L133.880067,60.5905684 L133.880067,63.1704211 L128.923522,63.1704211 C128.923522,62.2084421 129.023902,61.4495789 129.225365,60.6152526 L129.17342,60.6152526 C128.368271,62.4616316 126.909596,63.4729789 124.695612,63.4729789 C121.800024,63.4729789 119.333333,61.3734105 119.333333,57.4316947 C119.333333,53.8151053 121.069282,49.6413579 126.682161,49.6413579 C127.285145,49.6413579 128.142239,49.7422105 128.847008,49.9460316 L128.847008,46.3061684 L128.847008,46.3061684 Z" id="Fill-303" fill="#231F20"></path>
                <path d="M142.399063,61.0228947 C144.563208,61.0228947 145.494008,59.5820421 145.494008,57.2060105 C145.494008,54.3722632 144.563208,52.9568 142.399063,52.9568 C140.234918,52.9568 139.303416,54.8024737 139.303416,57.2060105 C139.303416,59.5820421 140.234918,61.0228947 142.399063,61.0228947 M142.399063,50.0736842 C146.827733,50.0736842 149.320396,52.5265895 149.320396,57.1291368 C149.320396,61.0750842 146.603106,63.9053053 142.399063,63.9053053 C138.197125,63.9053053 135.478431,61.6294211 135.478431,57.1291368 C135.478431,53.3362316 138.094639,50.0736842 142.399063,50.0736842" id="Fill-304" fill="#231F20"></path>
                <path d="M159.180839,43.7263158 C160.640918,43.7263158 161.547149,44.6093053 161.547149,45.9253263 C161.547149,47.2385263 160.640918,48.1250421 159.180839,48.1250421 C157.723569,48.1250421 156.815933,47.2385263 156.815933,45.9253263 C156.815933,44.6093053 157.723569,43.7263158 159.180839,43.7263158 M157.545271,52.9024947 L155.835294,52.9024947 L155.835294,50.3240526 L161.069114,50.3240526 L161.069114,60.9685895 L162.579733,60.9685895 L162.579733,63.5484421 L156.111165,63.5484421 L156.111165,60.9685895 L157.545271,60.9685895 L157.545271,52.9024947" id="Fill-305" fill="#231F20"></path>
                <path d="M165.344757,47.4564526 L168.867196,47.2526316 L168.867196,50.1858211 L172.388933,50.1858211 L172.388933,52.7642632 L168.867196,52.7642632 L168.867196,58.6553263 C168.867196,60.5256842 169.345231,60.9819895 170.80531,60.9819895 C171.282643,60.9819895 171.862463,60.8303579 172.515286,60.5771684 L172.388933,63.0815579 C171.08118,63.5357474 170.176353,63.7127684 169.320663,63.7127684 C166.728322,63.7127684 165.344757,62.4997158 165.344757,60.1723474 L165.344757,52.7642632 L163.556863,52.7642632 L163.556863,50.1858211 L165.344757,50.1858211 L165.344757,47.4564526" id="Fill-306" fill="#231F20"></path>
                <path d="M90.9921355,33.8131368 C90.212257,33.9027053 89.5060845,33.3392 89.4183394,32.5591789 C89.3334021,31.7770421 89.8914609,31.0717789 90.6685315,30.9793895 C91.4449002,30.8933474 92.1482649,31.4519158 92.23601,32.2333474 C92.3265629,33.0161895 91.769908,33.7256842 90.9921355,33.8131368 M83.1463198,34.7179895 C82.3657394,34.8089684 81.6665864,34.2454632 81.5774374,33.4647368 C81.4840766,32.6847158 82.0477511,31.9745158 82.8213119,31.8856526 C83.6054021,31.7953789 84.3045551,32.3553579 84.3937041,33.1417263 C84.4828531,33.9224526 83.9247943,34.6284211 83.1463198,34.7179895 M96.7517237,28.6999789 L92.9597315,30.3467684 L91.3683864,27.1378211 L88.1681472,29.5117368 L86.0461198,26.0947368 L85.003708,28.1301263 L80.7729904,28.1928947 L79.1100453,32.2904737 L76.0663433,30.9744526 C75.8178492,32.1212105 75.7413355,33.3293263 75.8810257,34.5600105 C76.5745629,40.6104632 82.014759,44.9492421 88.0354766,44.2566737 C94.0597041,43.5619895 98.3795707,38.0947895 97.6860335,32.0429263 C97.5526609,30.8552632 97.2248453,29.7317789 96.7517237,28.6999789" id="Fill-307" fill="#1B75BC"></path>
                <path d="M76.5137255,29.9633216 L78.4595608,30.800469 L79.9414,27.1549637 L84.255651,27.0865532 L86.0161686,23.644869 L88.6183373,27.8538795 L91.933698,25.386869 L93.6773686,28.8941426 L96.1882824,27.798869 C94.0234353,24.2859532 89.9773333,22.1377216 85.6132431,22.6412795 C81.2947804,23.1420163 77.8600863,26.09989 76.5137255,29.9633216" id="Fill-308" fill="#1B75BC"></path>
                <path d="M80.9661639,58.1721157 C80.1897952,58.0599789 79.6471795,57.3370841 79.7566854,56.5591789 C79.8675952,55.7763368 80.5864031,55.2325789 81.3592619,55.3440104 C82.1370344,55.455442 82.6754384,56.1755157 82.5659325,56.9541262 C82.4620423,57.7341473 81.7432344,58.2807262 80.9661639,58.1721157 M73.1470227,57.0592104 C72.3727599,56.9541262 71.8308462,56.232642 71.9403521,55.455442 C72.049156,54.6775368 72.7700697,54.128842 73.5422266,54.2423894 C74.3178933,54.3509999 74.8584031,55.0724841 74.7481952,55.8525052 C74.6386893,56.6297052 73.9233913,57.1734631 73.1470227,57.0592104 M79.1824815,44.5414947 C73.3351482,43.7099894 67.9300501,47.6848526 66.8721952,53.4623683 C67.3488266,53.4976315 67.3944541,53.4299262 67.5355482,53.2966315 C67.6864697,53.1308947 67.8577482,52.6710631 68.0851835,52.0701789 C68.5337364,50.8599473 69.418207,49.1257052 72.0007207,48.0332526 C72.9111639,47.6340736 73.9177756,47.4676315 74.9566776,47.6143262 C76.2686423,47.7962841 77.6044737,48.4810947 78.9080148,49.7160104 C80.0845011,50.8444315 81.7144541,52.0377368 83.3128188,52.252842 C84.329258,52.3917789 85.3260423,52.2006526 86.4119756,51.3606841 L87.2395874,52.4263368 C85.9030541,53.4870526 84.4471874,53.7881999 83.1282031,53.5963683 C81.0265325,53.2860526 79.2547835,51.8938631 77.9884462,50.6998526 C76.8238933,49.6045789 75.7491913,49.0925578 74.7692541,48.9543262 C73.9900776,48.8407789 73.248807,48.9656104 72.5299992,49.2808631 C69.204109,50.7689683 69.6674031,52.6661262 68.5695364,54.1612841 C68.1855639,54.6613157 67.4681599,54.916621 66.7058305,54.8164736 C66.3688893,60.493842 70.421309,65.569621 76.1275482,66.376442 C82.1258031,67.2220526 87.6811207,63.0243262 88.5241756,56.9943262 C89.3665286,50.9615052 85.1842462,45.3871052 79.1824815,44.5414947" id="Fill-309" fill="#EF4036"></path>
                <path d="M76.2569076,14.5439368 C75.5001938,14.7541053 74.7217193,14.3048526 74.513237,13.5523368 C74.3061585,12.7885368 74.7476919,12.0049895 75.5030017,11.7955263 C76.2597154,11.5895895 77.0424017,12.0353158 77.2494801,12.7906526 C77.4537507,13.5523368 77.0136213,14.338 76.2569076,14.5439368 M68.6434409,16.6456211 C67.8867272,16.8586105 67.1110605,16.4100632 66.8997703,15.6533158 C66.6926919,14.8951579 67.137033,14.1066737 67.8965546,13.8972105 C68.6476527,13.6905684 69.4268291,14.1398211 69.6353115,14.8951579 C69.8430919,15.6533158 69.3994527,16.4389789 68.6434409,16.6456211 M82.5127821,11.0049263 C78.8674997,11.2813895 76.6535154,9.15572632 75.622335,7.75789474 C74.137688,10.4209684 71.1003036,11.8336105 68.1969938,12.6411368 C65.3175507,13.4380842 62.4851389,13.6390842 61.086833,13.6905684 C61.0250605,14.8415579 61.1373742,16.0207579 61.4595742,17.1929053 C63.0635546,23.0649263 69.1046291,26.5157789 74.9505585,24.9021368 C80.795084,23.2884947 84.2283742,17.2175895 82.6229899,11.3441579 C82.5914017,11.2306105 82.5457742,11.1212947 82.5127821,11.0049263" id="Fill-310" fill="#F15A29"></path>
                <path d="M68.3660667,11.6263616 C71.5438431,10.7483089 74.5440235,9.13396157 75.4074353,6.39260368 L75.9353098,4.77543526 L76.6590314,6.31925631 C76.6618392,6.31714052 76.7720471,6.55904578 77.0387922,6.95540368 C77.2999216,7.34964578 77.7070588,7.87506684 78.2623098,8.37509841 C79.2352275,9.25103526 80.6089647,10.0416353 82.5463765,9.99085631 C80.3555569,5.14005631 74.9329098,2.46992999 69.6590784,3.92065631 C65.4487176,5.08504578 62.5018863,8.56340368 61.772549,12.6102037 C62.1488,12.5975089 62.6064784,12.5671826 63.1259294,12.5234563 C64.5628431,12.402151 66.4700706,12.1489616 68.3660667,11.6263616" id="Fill-311" fill="#F15A29"></path>
                <path d="M66.0811153,44.6274891 C65.0801192,45.0788575 63.8067624,45.2932575 62.416178,45.2149733 C61.0305075,45.1331628 59.7908447,44.7713628 58.8474094,44.2142049 C57.9250329,43.6535207 57.2062251,42.8361207 57.2532565,41.7754049 C57.3283663,40.7153943 58.1398329,39.9868575 59.1162604,39.543247 C60.1172565,39.0897628 61.3934212,38.8810049 62.7797937,38.9557628 C64.1626565,39.0375733 65.4121467,39.3965522 66.3499663,39.9621733 C67.2695349,40.5165101 67.9897467,41.3324996 67.9413114,42.3981522 C67.8676055,43.456047 67.0582447,44.1909312 66.0811153,44.6274891 M59.0657192,29.4516364 C59.8427898,29.4974786 60.4450722,30.1688891 60.4008486,30.9573733 C60.3531153,31.7430364 59.6813388,32.3439207 58.8993545,32.2973733 C58.1180722,32.2508259 57.5164918,31.5801207 57.5642251,30.7916364 C57.6084486,30.0087943 58.2802251,29.4079101 59.0657192,29.4516364 M66.9445271,29.9107628 C67.7293192,29.9537838 68.32388,30.6315417 68.2817624,31.4143838 C68.2333271,32.2049838 67.5643584,32.8009312 66.7802682,32.7550891 C65.997582,32.7106575 65.3995114,32.0371312 65.4465427,31.2535838 C65.4914682,30.4650996 66.1646486,29.8670364 66.9445271,29.9107628 M63.5568643,25.4083628 C57.4982408,25.0550259 52.3135584,29.7012996 51.963982,35.7771417 C51.6115976,41.8593312 56.2333075,47.0747522 62.2821035,47.422447 C68.3365153,47.7757838 73.5254094,43.1330364 73.872178,37.0529628 C74.2245624,30.9764154 69.6028526,25.7560575 63.5568643,25.4083628" id="Fill-312" fill="#00A650"></path>
                <path d="M66.0273885,41.029163 C65.3268316,40.6081209 64.2647649,40.278763 63.0700277,40.2131735 C61.8773963,40.1454682 60.7837414,40.3443525 60.0403649,40.680763 C59.2780355,41.029163 58.9712787,41.4650156 58.9670669,41.7584051 C58.9368826,42.0517946 59.1930983,42.5222051 59.9098002,42.9538261 C60.6068473,43.3776893 61.6661061,43.7049314 62.8643532,43.7691103 C64.0562826,43.843163 65.1485336,43.6442788 65.8975257,43.3029314 C66.6612591,42.9510051 66.966612,42.519384 66.9680159,42.2259946 C66.9996041,41.9290788 66.7405806,41.4586682 66.0273885,41.029163" id="Fill-313" fill="#00A650"></path>
                <path d="M102.80401,60.7532576 C102.791375,60.7532576 102.782952,60.7574892 102.772422,60.7603103 C99.3882692,61.4225524 95.8784652,59.8970682 93.9733437,57.2819524 L95.1701868,56.4095418 C96.706779,58.545784 99.7406535,59.8596892 102.479002,59.2997103 C104.716152,58.8349418 106.840285,57.235405 108.04134,53.6230471 L108.045552,53.6230471 L109.449473,54.0842892 C108.149442,58.0810155 105.562014,60.1960997 102.80401,60.7532576 M96.0834378,49.4810366 C96.8506809,49.326584 97.5982692,49.8237945 97.7477868,50.602405 C97.9092378,51.3704366 97.4059319,52.1243629 96.6386888,52.2738787 C95.8707437,52.4283313 95.1259633,51.9318261 94.9673201,51.1560366 C94.8163986,50.3844787 95.3154927,49.6340787 96.0834378,49.4810366 M103.826767,47.9294576 C104.591904,47.7742997 105.343002,48.2743313 105.493924,49.0465945 C105.648355,49.8209734 105.148559,50.5692576 104.37921,50.7215945 C103.608457,50.8753418 102.864379,50.3795418 102.713457,49.6037524 C102.561132,48.8343103 103.056014,48.0839103 103.826767,47.9294576 M98.6827986,41.825405 C92.7364888,43.0187103 88.8785123,48.8237313 90.065528,54.7944892 C91.2518417,60.7645418 97.0331907,64.6413734 102.976693,63.4508892 C108.920195,62.2632261 112.778171,56.4525629 111.591857,50.4825103 C110.406246,44.5110471 104.623493,40.6349208 98.6827986,41.825405" id="Fill-314" fill="#BED73B"></path>
                <path d="M115.922528,33.0574288 C113.698716,33.3479972 111.66654,31.7738498 111.377332,29.5409867 C111.331704,29.1876498 111.349955,28.8455972 111.394881,28.5049551 C111.27274,28.3448603 111.100057,28.2235551 110.642379,28.2334288 L110.620618,28.2362498 C110.33141,28.260934 110.141881,28.5141235 110.039395,28.7341656 C110.154516,29.035313 110.249983,29.3512709 110.291399,29.6820393 C110.580606,31.9149025 109.01383,33.9566393 106.795634,34.2450919 C104.573226,34.5384814 102.542453,32.961513 102.253246,30.7328814 C101.965442,28.5007235 103.530814,26.4603972 105.74901,26.1698288 C107.121344,25.9906919 108.425587,26.529513 109.281277,27.4914919 C109.552234,27.2220814 109.921465,26.9865235 110.452148,26.8955446 C110.472504,26.8906077 110.521642,26.8877867 110.563057,26.8849656 C111.074085,26.8334814 111.485434,26.9526709 111.811846,27.1332182 C112.407108,25.9984498 113.514803,25.1591867 114.875904,24.9828709 C117.094101,24.6908919 119.124873,26.2671551 119.416889,28.4971972 C119.706097,30.723713 118.137916,32.7682709 115.922528,33.0574288 M109.245477,19.8400919 C103.233183,20.6243446 98.9926378,26.1557235 99.7704104,32.1920709 C100.550289,38.2333551 106.057873,42.4973761 112.065253,41.7110077 C118.080355,40.9302814 122.319497,35.3953761 121.54032,29.3562077 C120.759038,23.3177446 115.252857,19.0572498 109.245477,19.8400919" id="Fill-315" fill="#FBB03F"></path>
                <path d="M105.546111,27.5264159 C104.06708,27.7224791 103.022562,29.0871633 103.209985,30.5717422 C103.405131,32.061258 104.762021,33.1078686 106.24386,32.9202686 C107.719382,32.7220896 108.766707,31.3630475 108.57788,29.8777633 C108.381331,28.3875422 107.030056,27.341637 105.546111,27.5264159" id="Fill-316" fill="#FBB03F"></path>
                <path d="M114.670245,26.1164363 C113.18981,26.3146153 112.1481,27.6715416 112.335524,29.1610574 C112.530669,30.6484574 113.883347,31.6985942 115.365888,31.5081732 C116.849132,31.3163416 117.892245,29.9558889 117.703418,28.4656679 C117.506869,26.9782679 116.152786,25.9288363 114.670245,26.1164363" id="Fill-317" fill="#FBB03F"></path>
                <path d="M96.0638463,6.79445877 L100.630803,14.5410693 L95.6517954,15.4494482 L95.4131287,14.1143851 L98.4842071,13.5544061 L93.9818307,5.9171114 L101.213431,4.10387982 L101.213431,4.10599561 L101.539842,5.41707982 L96.0638463,6.79445877 Z M100.390031,9.88633245 C99.6094503,9.98930087 98.9046816,9.43284824 98.8106189,8.64930087 C98.7116424,7.86998508 99.2640856,7.15907982 100.03905,7.06386929 C100.820333,6.96442719 101.525101,7.51876403 101.623376,8.30160614 C101.722352,9.08162719 101.168505,9.79112192 100.390031,9.88633245 L100.390031,9.88633245 Z M92.5554463,10.8652377 C91.7783758,10.9632693 91.0693954,10.4082272 90.9711209,9.62538508 C90.8777601,8.84465877 91.4302032,8.13304824 92.203062,8.03501666 C92.9850463,7.93980614 93.6912189,8.49414298 93.7880895,9.27486929 C93.887066,10.0577114 93.331815,10.7700272 92.5554463,10.8652377 L92.5554463,10.8652377 Z M94.5630542,0.0845850828 C88.5479522,0.838511399 84.2751169,6.34379561 85.0220032,12.3879009 C85.7667836,18.4313009 91.2490973,22.7214167 97.2663052,21.9717219 C103.281407,21.2192061 107.55354,15.7125114 106.805952,9.67122719 C106.059066,3.62782719 100.577454,-0.662993865 94.5630542,0.0845850828 L94.5630542,0.0845850828 Z" id="Fill-318" fill="#8B5D3B"></path>
                <polygon id="Fill-319" fill="#231F20" points="9.79375686 58.5093368 12.8388627 58.5093368 12.5861569 64.2522947 0 64.2522947 0 61.6689158 1.58502745 61.6689158 1.58502745 49.1244 0 49.1244 0 46.5473684 6.84692549 46.5473684 6.84692549 49.1244 5.2626 49.1244 5.2626 61.6689158 9.59229412 61.6689158"></polygon>
                <path d="M23.2019098,56.0634842 C23.2019098,54.2424947 22.1693255,53.2064632 20.5337569,53.2064632 C18.9213529,53.2064632 17.9919569,54.2664737 17.8396314,56.0634842 L23.2019098,56.0634842 Z M17.8656039,58.4917053 C17.9659843,60.5905684 19.5769843,61.8797895 22.0429725,61.8797895 C23.7297843,61.8797895 24.8143137,61.6012105 26.2975569,60.9685895 L26.1220667,63.7776526 C24.486498,64.3834737 23.0509882,64.6112737 21.2630941,64.6112737 C16.1780902,64.6112737 14.0392157,61.4248947 14.0392157,57.7582316 C14.0392157,53.6352632 16.5318784,50.7789474 20.6587059,50.7789474 C25.1912667,50.7789474 27.028298,54.2178105 27.028298,58.4917053 L17.8656039,58.4917053 L17.8656039,58.4917053 Z" id="Fill-320" fill="#231F20"></path>
                <path d="M29.8663255,48.1624211 L33.3880627,47.9578947 L33.3880627,50.8917895 L36.9119059,50.8917895 L36.9119059,53.4716421 L33.3880627,53.4716421 L33.3880627,59.3669368 C33.3880627,61.2365895 33.8668,61.6914842 35.3268784,61.6914842 C35.8063176,61.6914842 36.3854353,61.5384421 37.0389608,61.2859579 L36.9119059,63.7924632 C35.6048549,64.2466526 34.6972196,64.4229684 33.8436353,64.4229684 C31.2491882,64.4229684 29.8663255,63.2078 29.8663255,60.8832526 L29.8663255,53.4716421 L28.0784314,53.4716421 L28.0784314,50.8917895 L29.8663255,50.8917895 L29.8663255,48.1624211" id="Fill-321" fill="#231F20"></path>
                <path d="M37.9058824,51.8008737 C39.3989529,50.6167368 39.7183451,49.7774737 39.7183451,48.9805263 C39.7183451,47.8203684 38.4730667,47.4352947 38.4730667,46.2962947 C38.4730667,45.1389579 39.3098039,44.4315789 40.3957373,44.4315789 C42.047451,44.4315789 42.8848902,46.0254737 42.8848902,47.5692947 C42.8848902,49.8896105 41.6634784,51.7070737 39.3778941,53.2085789 L37.9058824,51.8008737" id="Fill-322" fill="#231F20"></path>
                <path d="M50.5481961,53.5837789 C49.8420235,53.3312947 49.1625255,53.2064632 48.5068941,53.2064632 C46.897298,53.2064632 46.1405843,53.8644737 46.1405843,54.5958316 C46.1405843,55.2284526 46.3188824,55.4816421 47.3247922,55.6339789 L50.0947294,56.0388 C53.1145647,56.4690105 54.3731804,57.6326947 54.3731804,60.0334105 C54.3731804,62.3882842 52.7376118,64.6112737 48.1559137,64.6112737 C46.5694824,64.6112737 44.3786627,64.2826211 42.9691255,63.7776526 L42.9691255,60.0609158 L46.1405843,60.0609158 L46.1405843,61.6012105 C46.7218078,61.8029158 47.7284196,62.0314211 48.4837294,62.0314211 C49.2144706,62.0314211 51.050098,61.8029158 51.050098,60.4142526 C51.050098,59.6800737 50.5987373,59.2992316 49.0621451,59.0735474 L46.092851,58.6165368 C43.8002471,58.2632 42.8196078,56.9986632 42.8196078,55.1036211 C42.8196078,51.8382526 45.8892824,50.7789474 48.6079765,50.7789474 C50.0189176,50.7789474 51.7808392,51.0039263 53.7196549,51.6612316 L53.7196549,54.9237789 L50.5481961,54.9237789 L50.5481961,53.5837789" id="Fill-323" fill="#231F20"></path>
            </g>
        </g>
    </g>
</svg>